ArgentumSans-BoldItalic.ufo
<glyph name="exclam" format="2">
  <advance width="275"/>
  <unicode hex="0021"/>
  <outline>
    <contour>
      <point x="115" y="700" type="line"/>
      <point x="78" y="516" type="line"/>
      <point x="67" y="258" type="line"/>
      <point x="201" y="258" type="line"/>
      <point x="292" y="516" type="line"/>
      <point x="329" y="700" type="line"/>
    </contour>
    <contour>
      <point x="114" y="197" type="curve" smooth="yes"/>
      <point x="52" y="197"/>
      <point x="3" y="153"/>
      <point x="3" y="84" type="curve" smooth="yes"/>
      <point x="3" y="29"/>
      <point x="40" y="-8"/>
      <point x="96" y="-8" type="curve" smooth="yes"/>
      <point x="161" y="-8"/>
      <point x="208" y="40"/>
      <point x="208" y="105" type="curve" smooth="yes"/>
      <point x="208" y="160"/>
      <point x="171" y="197"/>
    </contour>
  </outline>
</glyph>
<glyph name="numbersign" format="2">
  <advance width="676"/>
  <unicode hex="0023"/>
  <outline>
    <contour>
      <point x="491" y="0" type="line"/>
      <point x="640" y="700" type="line"/>
      <point x="480" y="700" type="line"/>
      <point x="332" y="0" type="line"/>
    </contour>
    <contour>
      <point x="683" y="291" type="line"/>
      <point x="-1" y="291" type="line"/>
      <point x="-34" y="138" type="line"/>
      <point x="650" y="138" type="line"/>
    </contour>
    <contour>
      <point x="227" y="0" type="line"/>
      <point x="375" y="700" type="line"/>
      <point x="216" y="700" type="line"/>
      <point x="67" y="0" type="line"/>
    </contour>
    <contour>
      <point x="739" y="553" type="line"/>
      <point x="55" y="553" type="line"/>
      <point x="23" y="400" type="line"/>
      <point x="707" y="400" type="line"/>
    </contour>
  </outline>
</glyph>
<glyph name="dollar" format="2">
  <advance width="1328"/>
  <unicode hex="0024"/>
  <anchor x="616" y="0" name="bottom"/>
  <anchor x="802" y="1402" name="top"/>
  <outline>
    <contour>
      <point x="448" y="236" type="line"/>
      <point x="336" y="-330" type="line"/>
      <point x="668" y="-330" type="line"/>
      <point x="780" y="236" type="line"/>
    </contour>
    <contour>
      <point x="744" y="1728" type="line"/>
      <point x="630" y="1158" type="line"/>
      <point x="962" y="1158" type="line"/>
      <point x="1076" y="1728" type="line"/>
    </contour>
    <contour>
      <point x="786" y="1420" type="curve" smooth="yes"/>
      <point x="400" y="1420"/>
      <point x="138" y="1228"/>
      <point x="138" y="926" type="curve" smooth="yes"/>
      <point x="138" y="484"/>
      <point x="800" y="584"/>
      <point x="800" y="416" type="curve" smooth="yes"/>
      <point x="800" y="362"/>
      <point x="752" y="338"/>
      <point x="680" y="338" type="curve" smooth="yes"/>
      <point x="538" y="338"/>
      <point x="300" y="436"/>
      <point x="168" y="556" type="curve"/>
      <point x="-38" y="208" type="line"/>
      <point x="134" y="66"/>
      <point x="398" y="-16"/>
      <point x="642" y="-16" type="curve" smooth="yes"/>
      <point x="976" y="-16"/>
      <point x="1278" y="134"/>
      <point x="1278" y="474" type="curve" smooth="yes"/>
      <point x="1278" y="932"/>
      <point x="618" y="840"/>
      <point x="618" y="1004" type="curve" smooth="yes"/>
      <point x="618" y="1048"/>
      <point x="656" y="1066"/>
      <point x="710" y="1066" type="curve" smooth="yes"/>
      <point x="832" y="1066"/>
      <point x="1042" y="980"/>
      <point x="1176" y="902" type="curve"/>
      <point x="1380" y="1254" type="line"/>
      <point x="1232" y="1354"/>
      <point x="1008" y="1420"/>
    </contour>
  </outline>
</glyph>
<glyph name="percent" format="2">
  <advance width="1816"/>
  <unicode hex="0025"/>
  <outline>
    <contour>
      <point x="541" y="1420" type="curve" smooth="yes"/>
      <point x="297" y="1420"/>
      <point x="107" y="1222"/>
      <point x="107" y="950" type="curve" smooth="yes"/>
      <point x="107" y="762"/>
      <point x="213" y="640"/>
      <point x="391" y="640" type="curve" smooth="yes"/>
      <point x="637" y="640"/>
      <point x="825" y="840"/>
      <point x="825" y="1114" type="curve" smooth="yes"/>
      <point x="825" y="1298"/>
      <point x="721" y="1420"/>
    </contour>
    <contour>
      <point x="497" y="1190" type="curve" smooth="yes"/>
      <point x="533" y="1190"/>
      <point x="551" y="1144"/>
      <point x="551" y="1084" type="curve" smooth="yes"/>
      <point x="551" y="968"/>
      <point x="493" y="872"/>
      <point x="437" y="872" type="curve" smooth="yes"/>
      <point x="401" y="872"/>
      <point x="383" y="914"/>
      <point x="383" y="978" type="curve" smooth="yes"/>
      <point x="383" y="1092"/>
      <point x="439" y="1190"/>
    </contour>
    <contour>
      <point x="1583" y="1402" type="line"/>
      <point x="1267" y="1402" type="line"/>
      <point x="293" y="0" type="line"/>
      <point x="609" y="0" type="line"/>
    </contour>
    <contour>
      <point x="1491" y="770" type="curve" smooth="yes"/>
      <point x="1247" y="770"/>
      <point x="1057" y="572"/>
      <point x="1057" y="300" type="curve" smooth="yes"/>
      <point x="1057" y="112"/>
      <point x="1163" y="-10"/>
      <point x="1341" y="-10" type="curve" smooth="yes"/>
      <point x="1587" y="-10"/>
      <point x="1775" y="190"/>
      <point x="1775" y="464" type="curve" smooth="yes"/>
      <point x="1775" y="648"/>
      <point x="1671" y="770"/>
    </contour>
    <contour>
      <point x="1447" y="540" type="curve" smooth="yes"/>
      <point x="1483" y="540"/>
      <point x="1501" y="494"/>
      <point x="1501" y="434" type="curve" smooth="yes"/>
      <point x="1501" y="318"/>
      <point x="1443" y="222"/>
      <point x="1387" y="222" type="curve" smooth="yes"/>
      <point x="1351" y="222"/>
      <point x="1333" y="264"/>
      <point x="1333" y="328" type="curve" smooth="yes"/>
      <point x="1333" y="442"/>
      <point x="1389" y="540"/>
    </contour>
  </outline>
</glyph>
<glyph name="ampersand" format="2">
  <advance width="691"/>
  <unicode hex="0026"/>
  <outline>
    <contour>
      <point x="384" y="711" type="curve" smooth="yes"/>
      <point x="239" y="711"/>
      <point x="151" y="634"/>
      <point x="151" y="507" type="curve" smooth="yes"/>
      <point x="151" y="402"/>
      <point x="210" y="319"/>
      <point x="531" y="-36" type="curve"/>
      <point x="653" y="65" type="line"/>
      <point x="395" y="338"/>
      <point x="323" y="434"/>
      <point x="323" y="506" type="curve" smooth="yes"/>
      <point x="323" y="552"/>
      <point x="350" y="587"/>
      <point x="386" y="587" type="curve" smooth="yes"/>
      <point x="407" y="587"/>
      <point x="417" y="577"/>
      <point x="417" y="555" type="curve" smooth="yes"/>
      <point x="417" y="440"/>
      <point x="28" y="411"/>
      <point x="28" y="183" type="curve" smooth="yes"/>
      <point x="28" y="69"/>
      <point x="124" y="-10"/>
      <point x="263" y="-10" type="curve" smooth="yes"/>
      <point x="417" y="-10"/>
      <point x="562" y="94"/>
      <point x="645" y="265" type="curve"/>
      <point x="516" y="378" type="line"/>
      <point x="470" y="245"/>
      <point x="367" y="145"/>
      <point x="275" y="145" type="curve" smooth="yes"/>
      <point x="235" y="145"/>
      <point x="211" y="167"/>
      <point x="211" y="197" type="curve" smooth="yes"/>
      <point x="211" y="332"/>
      <point x="590" y="325"/>
      <point x="590" y="553" type="curve" smooth="yes"/>
      <point x="590" y="647"/>
      <point x="507" y="711"/>
    </contour>
  </outline>
</glyph>
<glyph name="quotesingle" format="2">
  <advance width="266"/>
  <unicode hex="0027"/>
  <outline>
    <contour>
      <point x="134" y="700" type="line"/>
      <point x="74" y="398" type="line"/>
      <point x="242" y="398" type="line"/>
      <point x="302" y="700" type="line"/>
    </contour>
  </outline>
</glyph>
<glyph name="parenleft" format="2">
  <advance width="740"/>
  <unicode hex="0028"/>
  <outline>
    <contour>
      <point x="542" y="1484" type="line"/>
      <point x="322" y="1258"/>
      <point x="176" y="956"/>
      <point x="114" y="654" type="curve" smooth="yes"/>
      <point x="48" y="316"/>
      <point x="88" y="6"/>
      <point x="212" y="-250" type="curve"/>
      <point x="594" y="-250" type="line"/>
      <point x="496" y="-24"/>
      <point x="462" y="280"/>
      <point x="522" y="582" type="curve" smooth="yes"/>
      <point x="590" y="920"/>
      <point x="758" y="1228"/>
      <point x="952" y="1484" type="curve"/>
    </contour>
  </outline>
</glyph>
<glyph name="parenright" format="2">
  <advance width="350"/>
  <unicode hex="0029"/>
  <outline>
    <contour>
      <point x="111" y="-125" type="line"/>
      <point x="221" y="-12"/>
      <point x="294" y="139"/>
      <point x="325" y="290" type="curve" smooth="yes"/>
      <point x="358" y="459"/>
      <point x="338" y="614"/>
      <point x="276" y="742" type="curve"/>
      <point x="85" y="742" type="line"/>
      <point x="134" y="629"/>
      <point x="151" y="477"/>
      <point x="121" y="326" type="curve" smooth="yes"/>
      <point x="87" y="157"/>
      <point x="3" y="3"/>
      <point x="-94" y="-125" type="curve"/>
    </contour>
  </outline>
</glyph>
<glyph name="asterisk" format="2">
  <advance width="401"/>
  <unicode hex="002A"/>
  <outline>
    <contour>
      <point x="436" y="496" type="line"/>
      <point x="357" y="539" type="line"/>
      <point x="436" y="580" type="line"/>
      <point x="381" y="675" type="line"/>
      <point x="306" y="630" type="line"/>
      <point x="308" y="718" type="line"/>
      <point x="198" y="718" type="line"/>
      <point x="200" y="630" type="line"/>
      <point x="125" y="677" type="line"/>
      <point x="70" y="580" type="line"/>
      <point x="148" y="539" type="line"/>
      <point x="70" y="496" type="line"/>
      <point x="125" y="402" type="line"/>
      <point x="201" y="448" type="line"/>
      <point x="198" y="359" type="line"/>
      <point x="308" y="359" type="line"/>
      <point x="305" y="447" type="line"/>
      <point x="381" y="400" type="line"/>
    </contour>
  </outline>
</glyph>
<glyph name="plus" format="2">
  <advance width="1040"/>
  <unicode hex="002B"/>
  <outline>
    <contour>
      <point x="110" y="798" type="line"/>
      <point x="54" y="518" type="line"/>
      <point x="974" y="518" type="line"/>
      <point x="1030" y="798" type="line"/>
    </contour>
    <contour>
      <point x="494" y="1118" type="line"/>
      <point x="310" y="198" type="line"/>
      <point x="590" y="198" type="line"/>
      <point x="774" y="1118" type="line"/>
    </contour>
  </outline>
</glyph>
<glyph name="comma" format="2">
  <advance width="235"/>
  <unicode hex="002C"/>
  <outline>
    <contour>
      <point x="46" y="96" type="line"/>
      <point x="-67" y="-130" type="line"/>
      <point x="37" y="-130" type="line"/>
      <point x="146" y="16" type="line" smooth="yes"/>
      <point x="163" y="39"/>
      <point x="178" y="65"/>
      <point x="180" y="96" type="curve" smooth="yes"/>
      <point x="184" y="162"/>
      <point x="141" y="197"/>
      <point x="87" y="197" type="curve" smooth="yes"/>
      <point x="27" y="197"/>
      <point x="-19" y="155"/>
      <point x="-25" y="95" type="curve" smooth="yes"/>
      <point x="-31" y="38"/>
      <point x="7" y="-10"/>
      <point x="102" y="-6" type="curve"/>
    </contour>
  </outline>
</glyph>
<glyph name="hyphen" format="2">
  <advance width="358"/>
  <unicode hex="002D"/>
  <outline>
    <contour>
      <point x="60" y="379" type="line"/>
      <point x="32" y="239" type="line"/>
      <point x="312" y="239" type="line"/>
      <point x="340" y="379" type="line"/>
    </contour>
  </outline>
</glyph>
<glyph name="period" format="2">
  <advance width="270"/>
  <unicode hex="002E"/>
  <outline>
    <contour>
      <point x="109" y="197" type="curve" smooth="yes"/>
      <point x="47" y="197"/>
      <point x="-2" y="153"/>
      <point x="-2" y="84" type="curve" smooth="yes"/>
      <point x="-2" y="29"/>
      <point x="35" y="-8"/>
      <point x="91" y="-8" type="curve" smooth="yes"/>
      <point x="156" y="-8"/>
      <point x="203" y="40"/>
      <point x="203" y="105" type="curve" smooth="yes"/>
      <point x="203" y="160"/>
      <point x="166" y="197"/>
    </contour>
  </outline>
</glyph>
<glyph name="slash" format="2">
  <advance width="746"/>
  <unicode hex="002F"/>
  <outline>
    <contour>
      <point x="625" y="1612" type="line"/>
      <point x="-193" y="-208" type="line"/>
      <point x="183" y="-208" type="line"/>
      <point x="1001" y="1612" type="line"/>
    </contour>
  </outline>
</glyph>
<glyph name="zero" format="2">
  <advance width="720"/>
  <unicode hex="0030"/>
  <outline>
    <contour>
      <point x="439" y="710" type="curve" smooth="yes"/>
      <point x="227" y="710"/>
      <point x="86" y="614"/>
      <point x="40" y="383" type="curve" smooth="yes"/>
      <point x="-6" y="151"/>
      <point x="83" y="-10"/>
      <point x="295" y="-10" type="curve" smooth="yes"/>
      <point x="505" y="-10"/>
      <point x="648" y="87"/>
      <point x="694" y="318" type="curve" smooth="yes"/>
      <point x="740" y="550"/>
      <point x="649" y="710"/>
    </contour>
    <contour>
      <point x="406" y="540" type="curve" smooth="yes"/>
      <point x="468" y="540"/>
      <point x="480" y="485"/>
      <point x="452" y="342" type="curve" smooth="yes"/>
      <point x="423" y="199"/>
      <point x="392" y="160"/>
      <point x="329" y="160" type="curve" smooth="yes"/>
      <point x="265" y="160"/>
      <point x="253" y="216"/>
      <point x="282" y="359" type="curve" smooth="yes"/>
      <point x="311" y="502"/>
      <point x="341" y="540"/>
    </contour>
  </outline>
</glyph>
<glyph name="one" format="2">
  <advance width="634"/>
  <unicode hex="0031"/>
  <outline>
    <contour>
      <point x="107" y="517" type="line"/>
      <point x="330" y="517" type="line"/>
      <point x="249" y="618" type="line"/>
      <point x="126" y="0" type="line"/>
      <point x="358" y="0" type="line"/>
      <point x="498" y="700" type="line"/>
      <point x="144" y="700" type="line"/>
    </contour>
  </outline>
</glyph>
<glyph name="two" format="2">
  <advance width="634"/>
  <unicode hex="0032"/>
  <outline>
    <contour>
      <point x="10" y="146" type="line"/>
      <point x="-18" y="0" type="line"/>
      <point x="531" y="0" type="line"/>
      <point x="566" y="178" type="line"/>
      <point x="210" y="178" type="line"/>
      <point x="226" y="107" type="line"/>
      <point x="439" y="285" type="line" smooth="yes"/>
      <point x="544" y="373"/>
      <point x="626" y="457"/>
      <point x="626" y="549" type="curve" smooth="yes"/>
      <point x="626" y="647"/>
      <point x="536" y="712"/>
      <point x="405" y="712" type="curve" smooth="yes"/>
      <point x="295" y="712"/>
      <point x="184" y="671"/>
      <point x="71" y="603" type="curve"/>
      <point x="125" y="436" type="line"/>
      <point x="203" y="491"/>
      <point x="280" y="526"/>
      <point x="333" y="526" type="curve" smooth="yes"/>
      <point x="360" y="526"/>
      <point x="374" y="515"/>
      <point x="374" y="496" type="curve" smooth="yes"/>
      <point x="374" y="470"/>
      <point x="341" y="432"/>
      <point x="304" y="400" type="curve" smooth="yes"/>
    </contour>
  </outline>
</glyph>
<glyph name="three" format="2">
  <advance width="634"/>
  <unicode hex="0033"/>
  <outline>
    <contour>
      <point x="311" y="448" type="line"/>
      <point x="317" y="360" type="line"/>
      <point x="598" y="571" type="line"/>
      <point x="623" y="702" type="line"/>
      <point x="110" y="702" type="line"/>
      <point x="78" y="535" type="line"/>
      <point x="418" y="535" type="line"/>
      <point x="403" y="603" type="line"/>
      <point x="158" y="406" type="line"/>
      <point x="135" y="286" type="line"/>
      <point x="266" y="286" type="line" smooth="yes"/>
      <point x="315" y="286"/>
      <point x="339" y="267"/>
      <point x="339" y="235" type="curve" smooth="yes"/>
      <point x="339" y="187"/>
      <point x="307" y="161"/>
      <point x="241" y="161" type="curve" smooth="yes"/>
      <point x="176" y="161"/>
      <point x="116" y="187"/>
      <point x="64" y="239" type="curve"/>
      <point x="-48" y="83" type="line"/>
      <point x="12" y="27"/>
      <point x="118" y="-10"/>
      <point x="227" y="-10" type="curve" smooth="yes"/>
      <point x="427" y="-10"/>
      <point x="569" y="105"/>
      <point x="569" y="257" type="curve" smooth="yes"/>
      <point x="569" y="342"/>
      <point x="516" y="401"/>
      <point x="436" y="419" type="curve" smooth="yes"/>
    </contour>
  </outline>
</glyph>
<glyph name="four" format="2">
  <advance width="1268"/>
  <unicode hex="0034"/>
  <outline>
    <contour>
      <point x="1144" y="270" type="line"/>
      <point x="1210" y="602" type="line"/>
      <point x="290" y="602" type="line"/>
      <point x="376" y="416" type="line"/>
      <point x="960" y="1402" type="line"/>
      <point x="524" y="1402" type="line"/>
      <point x="24" y="572" type="line"/>
      <point x="-36" y="270" type="line"/>
    </contour>
    <contour>
      <point x="510" y="0" type="line"/>
      <point x="932" y="0" type="line"/>
      <point x="1102" y="870" type="line"/>
      <point x="680" y="870" type="line"/>
    </contour>
  </outline>
</glyph>
<glyph name="five" format="2">
  <advance width="636"/>
  <unicode hex="0035"/>
  <outline>
    <contour>
      <point x="366" y="623" type="line"/>
      <point x="246" y="522" type="line"/>
      <point x="625" y="522" type="line"/>
      <point x="659" y="700" type="line"/>
      <point x="169" y="700" type="line"/>
      <point x="87" y="280" type="line"/>
      <point x="127" y="280"/>
      <point x="254" y="280"/>
      <point x="285" y="280" type="curve" smooth="yes"/>
      <point x="330" y="280"/>
      <point x="352" y="264"/>
      <point x="352" y="233" type="curve" smooth="yes"/>
      <point x="352" y="188"/>
      <point x="322" y="160"/>
      <point x="263" y="160" type="curve" smooth="yes"/>
      <point x="199" y="160"/>
      <point x="144" y="195"/>
      <point x="98" y="241" type="curve"/>
      <point x="-16" y="82" type="line"/>
      <point x="51" y="27"/>
      <point x="157" y="-10"/>
      <point x="257" y="-10" type="curve" smooth="yes"/>
      <point x="461" y="-10"/>
      <point x="606" y="109"/>
      <point x="606" y="270" type="curve" smooth="yes"/>
      <point x="606" y="378"/>
      <point x="515" y="448"/>
      <point x="364" y="448" type="curve" smooth="yes"/>
      <point x="352" y="448"/>
      <point x="294" y="448"/>
      <point x="216" y="448" type="curve"/>
      <point x="313" y="348" type="line"/>
    </contour>
  </outline>
</glyph>
<glyph name="six" format="2">
  <advance width="634"/>
  <unicode hex="0036"/>
  <outline>
    <contour>
      <point x="259" y="-10" type="curve" smooth="yes"/>
      <point x="441" y="-10"/>
      <point x="579" y="109"/>
      <point x="579" y="282" type="curve" smooth="yes"/>
      <point x="579" y="393"/>
      <point x="511" y="467"/>
      <point x="397" y="467" type="curve" smooth="yes"/>
      <point x="330" y="467"/>
      <point x="279" y="443"/>
      <point x="243" y="410" type="curve"/>
      <point x="259" y="496"/>
      <point x="314" y="542"/>
      <point x="402" y="542" type="curve" smooth="yes"/>
      <point x="456" y="542"/>
      <point x="499" y="526"/>
      <point x="530" y="496" type="curve"/>
      <point x="644" y="650" type="line"/>
      <point x="593" y="688"/>
      <point x="506" y="711"/>
      <point x="422" y="711" type="curve" smooth="yes"/>
      <point x="187" y="711"/>
      <point x="9" y="523"/>
      <point x="9" y="261" type="curve" smooth="yes"/>
      <point x="9" y="96"/>
      <point x="98" y="-10"/>
    </contour>
    <contour>
      <point x="285" y="166" type="curve" smooth="yes"/>
      <point x="246" y="166"/>
      <point x="227" y="186"/>
      <point x="227" y="220" type="curve" smooth="yes"/>
      <point x="227" y="272"/>
      <point x="257" y="307"/>
      <point x="314" y="307" type="curve" smooth="yes"/>
      <point x="351" y="307"/>
      <point x="370" y="288"/>
      <point x="370" y="254" type="curve" smooth="yes"/>
      <point x="370" y="199"/>
      <point x="341" y="166"/>
    </contour>
  </outline>
</glyph>
<glyph name="seven" format="2">
  <advance width="622"/>
  <unicode hex="0037"/>
  <outline>
    <contour>
      <point x="58" y="424" type="line"/>
      <point x="262" y="424" type="line"/>
      <point x="300" y="624" type="line"/>
      <point x="180" y="522" type="line"/>
      <point x="501" y="522" type="line"/>
      <point x="459" y="616" type="line"/>
      <point x="68" y="0" type="line"/>
      <point x="313" y="0" type="line"/>
      <point x="659" y="546" type="line"/>
      <point x="689" y="700" type="line"/>
      <point x="111" y="700" type="line"/>
    </contour>
  </outline>
</glyph>
<glyph name="eight" format="2">
  <advance width="634"/>
  <unicode hex="0038"/>
  <outline>
    <contour>
      <point x="379" y="711" type="curve" smooth="yes"/>
      <point x="207" y="711"/>
      <point x="85" y="623"/>
      <point x="85" y="500" type="curve" smooth="yes"/>
      <point x="85" y="454"/>
      <point x="105" y="405"/>
      <point x="140" y="375" type="curve"/>
      <point x="50" y="335"/>
      <point x="-17" y="252"/>
      <point x="-17" y="165" type="curve" smooth="yes"/>
      <point x="-17" y="60"/>
      <point x="80" y="-10"/>
      <point x="240" y="-10" type="curve" smooth="yes"/>
      <point x="438" y="-10"/>
      <point x="578" y="87"/>
      <point x="578" y="228" type="curve" smooth="yes"/>
      <point x="578" y="288"/>
      <point x="550" y="346"/>
      <point x="502" y="375" type="curve"/>
      <point x="560" y="413"/>
      <point x="603" y="478"/>
      <point x="603" y="545" type="curve" smooth="yes"/>
      <point x="603" y="646"/>
      <point x="519" y="711"/>
    </contour>
    <contour>
      <point x="298" y="284" type="curve" smooth="yes"/>
      <point x="341" y="284"/>
      <point x="364" y="265"/>
      <point x="364" y="232" type="curve" smooth="yes"/>
      <point x="364" y="183"/>
      <point x="332" y="155"/>
      <point x="272" y="155" type="curve" smooth="yes"/>
      <point x="229" y="155"/>
      <point x="207" y="173"/>
      <point x="207" y="205" type="curve" smooth="yes"/>
      <point x="207" y="254"/>
      <point x="238" y="284"/>
    </contour>
    <contour>
      <point x="351" y="561" type="curve" smooth="yes"/>
      <point x="388" y="561"/>
      <point x="406" y="545"/>
      <point x="406" y="516" type="curve" smooth="yes"/>
      <point x="406" y="473"/>
      <point x="380" y="449"/>
      <point x="329" y="449" type="curve" smooth="yes"/>
      <point x="293" y="449"/>
      <point x="274" y="463"/>
      <point x="274" y="492" type="curve" smooth="yes"/>
      <point x="274" y="534"/>
      <point x="301" y="561"/>
    </contour>
  </outline>
</glyph>
<glyph name="nine" format="2">
  <advance width="633"/>
  <unicode hex="0039"/>
  <outline>
    <contour>
      <point x="-2" y="52" type="line"/>
      <point x="51" y="14"/>
      <point x="137" y="-10"/>
      <point x="219" y="-10" type="curve" smooth="yes"/>
      <point x="457" y="-10"/>
      <point x="633" y="179"/>
      <point x="633" y="440" type="curve" smooth="yes"/>
      <point x="633" y="606"/>
      <point x="544" y="711"/>
      <point x="384" y="711" type="curve" smooth="yes"/>
      <point x="201" y="711"/>
      <point x="65" y="593"/>
      <point x="65" y="420" type="curve" smooth="yes"/>
      <point x="65" y="309"/>
      <point x="132" y="234"/>
      <point x="245" y="234" type="curve" smooth="yes"/>
      <point x="312" y="234"/>
      <point x="363" y="259"/>
      <point x="400" y="292" type="curve"/>
      <point x="383" y="206"/>
      <point x="329" y="160"/>
      <point x="239" y="160" type="curve" smooth="yes"/>
      <point x="186" y="160"/>
      <point x="143" y="175"/>
      <point x="112" y="206" type="curve"/>
    </contour>
    <contour>
      <point x="357" y="536" type="curve" smooth="yes"/>
      <point x="397" y="536"/>
      <point x="416" y="516"/>
      <point x="416" y="482" type="curve" smooth="yes"/>
      <point x="416" y="430"/>
      <point x="386" y="395"/>
      <point x="329" y="395" type="curve" smooth="yes"/>
      <point x="291" y="395"/>
      <point x="273" y="414"/>
      <point x="273" y="448" type="curve" smooth="yes"/>
      <point x="273" y="502"/>
      <point x="301" y="536"/>
    </contour>
  </outline>
</glyph>
<glyph name="less" format="2">
  <advance width="501"/>
  <unicode hex="003C"/>
  <outline>
    <contour>
      <point x="47" y="412" type="line"/>
      <point x="14" y="234" type="line"/>
      <point x="437" y="49" type="line"/>
      <point x="464" y="194" type="line"/>
      <point x="173" y="317" type="line"/>
      <point x="513" y="430" type="line"/>
      <point x="544" y="597" type="line"/>
    </contour>
  </outline>
</glyph>
<glyph name="equal" format="2">
  <advance width="1040"/>
  <unicode hex="003D"/>
  <outline>
    <contour>
      <point x="154" y="1018" type="line"/>
      <point x="98" y="738" type="line"/>
      <point x="1018" y="738" type="line"/>
      <point x="1074" y="1018" type="line"/>
    </contour>
    <contour>
      <point x="66" y="578" type="line"/>
      <point x="10" y="298" type="line"/>
      <point x="930" y="298" type="line"/>
      <point x="986" y="578" type="line"/>
    </contour>
  </outline>
</glyph>
<glyph name="greater" format="2">
  <advance width="1040"/>
  <unicode hex="003E"/>
  <outline>
    <contour>
      <point x="927" y="468" type="line"/>
      <point x="993" y="824" type="line"/>
      <point x="147" y="1194" type="line"/>
      <point x="93" y="904" type="line"/>
      <point x="675" y="658" type="line"/>
      <point x="-5" y="432" type="line"/>
      <point x="-67" y="98" type="line"/>
    </contour>
  </outline>
</glyph>
<glyph name="question" format="2">
  <advance width="996"/>
  <unicode hex="003F"/>
  <outline>
    <contour>
      <point x="453" y="974" type="line"/>
      <point x="458" y="1028"/>
      <point x="500" y="1066"/>
      <point x="558" y="1066" type="curve" smooth="yes"/>
      <point x="596" y="1066"/>
      <point x="627" y="1037"/>
      <point x="627" y="1000" type="curve" smooth="yes"/>
      <point x="627" y="968"/>
      <point x="616" y="934"/>
      <point x="596" y="907" type="curve" smooth="yes"/>
      <point x="587" y="895"/>
      <point x="577" y="884"/>
      <point x="565" y="876" type="curve"/>
      <point x="548" y="864"/>
      <point x="528" y="857"/>
      <point x="505" y="857" type="curve" smooth="yes"/>
      <point x="345" y="857" type="line"/>
      <point x="274" y="516" type="line"/>
      <point x="627" y="516" type="line"/>
      <point x="644" y="620" type="line"/>
      <point x="644" y="620" type="line"/>
      <point x="698" y="620"/>
      <point x="749" y="632"/>
      <point x="795" y="655" type="curve" smooth="yes"/>
      <point x="842" y="678"/>
      <point x="884" y="711"/>
      <point x="918" y="752" type="curve" smooth="yes"/>
      <point x="976" y="822"/>
      <point x="1012" y="915"/>
      <point x="1012" y="1016" type="curve" smooth="yes"/>
      <point x="1012" y="1260"/>
      <point x="801" y="1399"/>
      <point x="574" y="1399" type="curve" smooth="yes"/>
      <point x="322" y="1399"/>
      <point x="133" y="1222"/>
      <point x="87" y="974" type="curve"/>
    </contour>
    <contour>
      <point x="164" y="177" type="curve" smooth="yes"/>
      <point x="164" y="63"/>
      <point x="263" y="-9"/>
      <point x="372" y="-9" type="curve" smooth="yes"/>
      <point x="491" y="-9"/>
      <point x="609" y="82"/>
      <point x="609" y="208" type="curve" smooth="yes"/>
      <point x="609" y="321"/>
      <point x="509" y="393"/>
      <point x="402" y="393" type="curve" smooth="yes"/>
      <point x="285" y="393"/>
      <point x="164" y="301"/>
    </contour>
  </outline>
</glyph>
<glyph name="at" format="2">
  <advance width="847"/>
  <unicode hex="0040"/>
  <outline>
    <contour>
      <point x="490" y="698" type="curve" smooth="yes"/>
      <point x="234" y="698"/>
      <point x="1" y="482"/>
      <point x="1" y="216" type="curve" smooth="yes"/>
      <point x="1" y="8"/>
      <point x="147" y="-145"/>
      <point x="359" y="-145" type="curve" smooth="yes"/>
      <point x="437" y="-145"/>
      <point x="541" y="-116"/>
      <point x="605" y="-69" type="curve"/>
      <point x="566" y="17" type="line"/>
      <point x="504" y="-27"/>
      <point x="429" y="-46"/>
      <point x="373" y="-46" type="curve" smooth="yes"/>
      <point x="217" y="-46"/>
      <point x="110" y="71"/>
      <point x="110" y="228" type="curve" smooth="yes"/>
      <point x="110" y="429"/>
      <point x="286" y="599"/>
      <point x="476" y="599" type="curve" smooth="yes"/>
      <point x="649" y="599"/>
      <point x="739" y="478"/>
      <point x="739" y="322" type="curve" smooth="yes"/>
      <point x="739" y="201"/>
      <point x="682" y="122"/>
      <point x="641" y="122" type="curve" smooth="yes"/>
      <point x="623" y="122"/>
      <point x="612" y="132"/>
      <point x="617" y="166" type="curve" smooth="yes"/>
      <point x="663" y="491" type="line"/>
      <point x="528" y="491" type="line"/>
      <point x="522" y="450" type="line"/>
      <point x="522" y="450"/>
      <point x="487" y="503"/>
      <point x="415" y="503" type="curve" smooth="yes"/>
      <point x="283" y="503"/>
      <point x="187" y="376"/>
      <point x="187" y="241" type="curve" smooth="yes"/>
      <point x="187" y="121"/>
      <point x="270" y="43"/>
      <point x="365" y="43" type="curve" smooth="yes"/>
      <point x="411" y="43"/>
      <point x="463" y="62"/>
      <point x="507" y="114" type="curve"/>
      <point x="508" y="107" type="line" smooth="yes"/>
      <point x="515" y="55"/>
      <point x="556" y="33"/>
      <point x="616" y="33" type="curve" smooth="yes"/>
      <point x="741" y="33"/>
      <point x="846" y="150"/>
      <point x="846" y="331" type="curve" smooth="yes"/>
      <point x="846" y="543"/>
      <point x="702" y="698"/>
    </contour>
    <contour>
      <point x="425" y="379" type="curve" smooth="yes"/>
      <point x="468" y="379"/>
      <point x="490" y="341"/>
      <point x="490" y="294" type="curve" smooth="yes"/>
      <point x="490" y="228"/>
      <point x="454" y="164"/>
      <point x="396" y="164" type="curve" smooth="yes"/>
      <point x="357" y="164"/>
      <point x="337" y="206"/>
      <point x="337" y="255" type="curve" smooth="yes"/>
      <point x="337" y="320"/>
      <point x="375" y="379"/>
    </contour>
  </outline>
</glyph>
<glyph name="A" format="2">
  <advance width="788"/>
  <unicode hex="0041"/>
  <anchor x="326" y="0" name="bottom"/>
  <anchor x="664" y="0" name="ogonek"/>
  <anchor x="447" y="700" name="top"/>
  <outline>
    <contour>
      <point x="341" y="700" type="line"/>
      <point x="-70" y="0" type="line"/>
      <point x="166" y="0" type="line"/>
      <point x="463" y="558" type="line"/>
      <point x="397" y="569" type="line"/>
      <point x="499" y="0" type="line"/>
      <point x="748" y="0" type="line"/>
      <point x="579" y="700" type="line"/>
    </contour>
    <contour>
      <point x="170" y="265" type="line"/>
      <point x="143" y="99" type="line"/>
      <point x="550" y="99" type="line"/>
      <point x="577" y="265" type="line"/>
    </contour>
  </outline>
</glyph>
<glyph name="B" format="2">
  <advance width="714"/>
  <unicode hex="0042"/>
  <outline>
    <contour>
      <point x="130" y="700" type="line"/>
      <point x="-10" y="0" type="line"/>
      <point x="361" y="0" type="line" smooth="yes"/>
      <point x="551" y="0"/>
      <point x="686" y="91"/>
      <point x="686" y="229" type="curve" smooth="yes"/>
      <point x="686" y="300"/>
      <point x="647" y="357"/>
      <point x="579" y="373" type="curve"/>
      <point x="667" y="398"/>
      <point x="730" y="468"/>
      <point x="730" y="547" type="curve" smooth="yes"/>
      <point x="730" y="639"/>
      <point x="637" y="700"/>
      <point x="484" y="700" type="curve" smooth="yes"/>
    </contour>
    <contour>
      <point x="346" y="629" type="line"/>
      <point x="226" y="530" type="line"/>
      <point x="437" y="530" type="line" smooth="yes"/>
      <point x="465" y="530"/>
      <point x="481" y="515"/>
      <point x="481" y="490" type="curve" smooth="yes"/>
      <point x="481" y="455"/>
      <point x="454" y="430"/>
      <point x="417" y="430" type="curve" smooth="yes"/>
      <point x="291" y="430" type="line"/>
      <point x="260" y="277" type="line"/>
      <point x="386" y="277" type="line" smooth="yes"/>
      <point x="425" y="277"/>
      <point x="448" y="260"/>
      <point x="448" y="234" type="curve" smooth="yes"/>
      <point x="448" y="197"/>
      <point x="413" y="170"/>
      <point x="365" y="170" type="curve" smooth="yes"/>
      <point x="154" y="170" type="line"/>
      <point x="236" y="71" type="line"/>
    </contour>
  </outline>
</glyph>
<glyph name="C" format="2">
  <advance width="703"/>
  <unicode hex="0043"/>
  <anchor x="346" y="0" name="bottom"/>
  <anchor x="445" y="700" name="top"/>
  <outline>
    <contour>
      <point x="446" y="715" type="curve" smooth="yes"/>
      <point x="212" y="715"/>
      <point x="28" y="546"/>
      <point x="28" y="317" type="curve" smooth="yes"/>
      <point x="28" y="124"/>
      <point x="163" y="-16"/>
      <point x="363" y="-16" type="curve" smooth="yes"/>
      <point x="471" y="-16"/>
      <point x="596" y="40"/>
      <point x="682" y="126" type="curve"/>
      <point x="563" y="269" type="line"/>
      <point x="512" y="219"/>
      <point x="445" y="187"/>
      <point x="395" y="187" type="curve" smooth="yes"/>
      <point x="319" y="187"/>
      <point x="267" y="251"/>
      <point x="267" y="337" type="curve" smooth="yes"/>
      <point x="267" y="443"/>
      <point x="339" y="522"/>
      <point x="429" y="522" type="curve" smooth="yes"/>
      <point x="483" y="522"/>
      <point x="542" y="484"/>
      <point x="578" y="426" type="curve"/>
      <point x="729" y="585" type="line"/>
      <point x="664" y="664"/>
      <point x="553" y="715"/>
    </contour>
  </outline>
</glyph>
<glyph name="D" format="2">
  <advance width="1516"/>
  <unicode hex="0044"/>
  <anchor x="590" y="0" name="bottom"/>
  <anchor x="460" y="700" name="center"/>
  <anchor x="848" y="1400" name="top"/>
  <outline>
    <contour>
      <point x="268" y="1400" type="line"/>
      <point x="-10" y="0" type="line"/>
      <point x="630" y="0" type="line" smooth="yes"/>
      <point x="1136" y="0"/>
      <point x="1500" y="306"/>
      <point x="1524" y="770" type="curve" smooth="yes"/>
      <point x="1544" y="1154"/>
      <point x="1290" y="1400"/>
      <point x="860" y="1400" type="curve" smooth="yes"/>
    </contour>
    <contour>
      <point x="794" y="1040" type="line" smooth="yes"/>
      <point x="960" y="1040"/>
      <point x="1056" y="920"/>
      <point x="1046" y="738" type="curve" smooth="yes"/>
      <point x="1034" y="512"/>
      <point x="898" y="360"/>
      <point x="714" y="360" type="curve" smooth="yes"/>
      <point x="324" y="360" type="line"/>
      <point x="486" y="162" type="line"/>
      <point x="698" y="1238" type="line"/>
      <point x="458" y="1040" type="line"/>
    </contour>
  </outline>
</glyph>
<glyph name="E" format="2">
  <advance width="679"/>
  <unicode hex="0045"/>
  <anchor x="305" y="0" name="bottom"/>
  <anchor x="591" y="0" name="ogonek"/>
  <anchor x="426" y="700" name="top"/>
  <anchor x="100" y="700" name="topleft"/>
  <outline>
    <contour>
      <point x="259" y="263" type="line"/>
      <point x="602" y="263" type="line"/>
      <point x="637" y="438" type="line"/>
      <point x="294" y="438" type="line"/>
    </contour>
    <contour>
      <point x="346" y="623" type="line"/>
      <point x="226" y="524" type="line"/>
      <point x="687" y="524" type="line"/>
      <point x="722" y="700" type="line"/>
      <point x="130" y="700" type="line"/>
      <point x="-10" y="0" type="line"/>
      <point x="591" y="0" type="line"/>
      <point x="626" y="176" type="line"/>
      <point x="156" y="176" type="line"/>
      <point x="236" y="77" type="line"/>
    </contour>
  </outline>
</glyph>
<glyph name="F" format="2">
  <advance width="620"/>
  <unicode hex="0046"/>
  <outline>
    <contour>
      <point x="252" y="228" type="line"/>
      <point x="578" y="228" type="line"/>
      <point x="613" y="403" type="line"/>
      <point x="287" y="403" type="line"/>
    </contour>
    <contour>
      <point x="346" y="623" type="line"/>
      <point x="226" y="524" type="line"/>
      <point x="658" y="524" type="line"/>
      <point x="693" y="700" type="line"/>
      <point x="130" y="700" type="line"/>
      <point x="-10" y="0" type="line"/>
      <point x="222" y="0" type="line"/>
    </contour>
  </outline>
</glyph>
<glyph name="G" format="2">
  <advance width="1476"/>
  <unicode hex="0047"/>
  <anchor x="794" y="0" name="bottom"/>
  <anchor x="900" y="1402" name="top"/>
  <outline>
    <contour>
      <point x="946" y="152" type="line"/>
      <point x="1354" y="152" type="line"/>
      <point x="1488" y="832" type="line"/>
      <point x="808" y="832" type="line"/>
      <point x="746" y="512" type="line"/>
      <point x="1018" y="512" type="line"/>
    </contour>
    <contour>
      <point x="928" y="1432" type="curve" smooth="yes"/>
      <point x="440" y="1432"/>
      <point x="60" y="1092"/>
      <point x="60" y="634" type="curve" smooth="yes"/>
      <point x="60" y="248"/>
      <point x="338" y="-32"/>
      <point x="750" y="-32" type="curve" smooth="yes"/>
      <point x="950" y="-32"/>
      <point x="1188" y="46"/>
      <point x="1354" y="152" type="curve"/>
      <point x="1158" y="478" type="line"/>
      <point x="1050" y="406"/>
      <point x="902" y="354"/>
      <point x="820" y="354" type="curve" smooth="yes"/>
      <point x="654" y="354"/>
      <point x="538" y="486"/>
      <point x="538" y="668" type="curve" smooth="yes"/>
      <point x="538" y="882"/>
      <point x="694" y="1046"/>
      <point x="886" y="1046" type="curve" smooth="yes"/>
      <point x="1002" y="1046"/>
      <point x="1132" y="986"/>
      <point x="1218" y="894" type="curve"/>
      <point x="1512" y="1212" type="line"/>
      <point x="1374" y="1346"/>
      <point x="1146" y="1432"/>
    </contour>
  </outline>
</glyph>
<glyph name="H" format="2">
  <advance width="770"/>
  <unicode hex="0048"/>
  <anchor x="372" y="0" name="bottom"/>
  <anchor x="442" y="350" name="center"/>
  <anchor x="512" y="700" name="top"/>
  <anchor x="142" y="700" name="topleft"/>
  <outline>
    <contour>
      <point x="364" y="700" type="line"/>
      <point x="133" y="700" type="line"/>
      <point x="-7" y="0" type="line"/>
      <point x="225" y="0" type="line"/>
    </contour>
    <contour>
      <point x="441" y="0" type="line"/>
      <point x="673" y="0" type="line"/>
      <point x="813" y="700" type="line"/>
      <point x="581" y="700" type="line"/>
    </contour>
    <contour>
      <point x="260" y="253" type="line"/>
      <point x="508" y="253" type="line"/>
      <point x="543" y="428" type="line"/>
      <point x="294" y="428" type="line"/>
    </contour>
  </outline>
</glyph>
<glyph name="I" format="2">
  <advance width="664"/>
  <unicode hex="0049"/>
  <anchor x="221" y="0" name="bottom"/>
  <anchor x="325" y="0" name="ogonek"/>
  <anchor x="493" y="1400" name="top"/>
  <outline>
    <contour>
      <point x="271" y="1400" type="line"/>
      <point x="-9" y="0" type="line"/>
      <point x="455" y="0" type="line"/>
      <point x="733" y="1400" type="line"/>
    </contour>
  </outline>
</glyph>
<glyph name="J" format="2">
  <advance width="559"/>
  <unicode hex="004A"/>
  <anchor x="371" y="700" name="top"/>
  <outline>
    <contour>
      <point x="376" y="700" type="line"/>
      <point x="285" y="242" type="line" smooth="yes"/>
      <point x="277" y="202"/>
      <point x="252" y="183"/>
      <point x="220" y="183" type="curve" smooth="yes"/>
      <point x="185" y="183"/>
      <point x="134" y="207"/>
      <point x="90" y="262" type="curve"/>
      <point x="-45" y="112" type="line"/>
      <point x="10" y="34"/>
      <point x="91" y="-10"/>
      <point x="204" y="-10" type="curve" smooth="yes"/>
      <point x="364" y="-10"/>
      <point x="485" y="80"/>
      <point x="516" y="237" type="curve" smooth="yes"/>
      <point x="609" y="700" type="line"/>
    </contour>
  </outline>
</glyph>
<glyph name="K" format="2">
  <advance width="758"/>
  <unicode hex="004B"/>
  <anchor x="312" y="0" name="bottom"/>
  <anchor x="452" y="700" name="top"/>
  <outline>
    <contour>
      <point x="361" y="700" type="line"/>
      <point x="130" y="700" type="line"/>
      <point x="-10" y="0" type="line"/>
      <point x="222" y="0" type="line"/>
    </contour>
    <contour>
      <point x="332" y="262" type="line"/>
      <point x="439" y="0" type="line"/>
      <point x="708" y="0" type="line"/>
      <point x="516" y="443" type="line"/>
    </contour>
    <contour>
      <point x="240" y="137" type="line"/>
      <point x="841" y="700" type="line"/>
      <point x="565" y="700" type="line"/>
      <point x="302" y="436" type="line"/>
    </contour>
  </outline>
</glyph>
<glyph name="L" format="2">
  <advance width="573"/>
  <unicode hex="004C"/>
  <anchor x="252" y="0" name="bottom"/>
  <anchor x="471" y="399" name="center"/>
  <anchor x="239" y="700" name="top"/>
  <anchor x="459" y="698" name="topright"/>
  <outline>
    <contour>
      <point x="130" y="700" type="line"/>
      <point x="-10" y="0" type="line"/>
      <point x="513" y="0" type="line"/>
      <point x="552" y="193" type="line"/>
      <point x="160" y="193" type="line"/>
      <point x="241" y="94" type="line"/>
      <point x="361" y="700" type="line"/>
    </contour>
  </outline>
</glyph>
<glyph name="M" format="2">
  <advance width="931"/>
  <unicode hex="004D"/>
  <anchor x="418" y="0" name="bottom"/>
  <anchor x="552" y="700" name="top"/>
  <outline>
    <contour>
      <point x="-6" y="0" type="line"/>
      <point x="197" y="0" type="line"/>
      <point x="291" y="482" type="line"/>
      <point x="247" y="481" type="line"/>
      <point x="350" y="68" type="line"/>
      <point x="501" y="68" type="line"/>
      <point x="759" y="468" type="line"/>
      <point x="723" y="482" type="line"/>
      <point x="629" y="0" type="line"/>
      <point x="832" y="0" type="line"/>
      <point x="967" y="700" type="line"/>
      <point x="722" y="700" type="line"/>
      <point x="422" y="251" type="line"/>
      <point x="505" y="238" type="line"/>
      <point x="375" y="700" type="line"/>
      <point x="130" y="700" type="line"/>
    </contour>
  </outline>
</glyph>
<glyph name="N" format="2">
  <advance width="770"/>
  <unicode hex="004E"/>
  <anchor x="330" y="0" name="bottom"/>
  <anchor x="470" y="700" name="top"/>
  <outline>
    <contour>
      <point x="600" y="700" type="line"/>
      <point x="508" y="242" type="line"/>
      <point x="578" y="253" type="line"/>
      <point x="323" y="700" type="line"/>
      <point x="130" y="700" type="line"/>
      <point x="-10" y="0" type="line"/>
      <point x="201" y="0" type="line"/>
      <point x="293" y="456" type="line"/>
      <point x="223" y="445" type="line"/>
      <point x="476" y="0" type="line"/>
      <point x="670" y="0" type="line"/>
      <point x="810" y="700" type="line"/>
    </contour>
  </outline>
</glyph>
<glyph name="O" format="2">
  <advance width="1598"/>
  <unicode hex="004F"/>
  <anchor x="769" y="0" name="bottom"/>
  <anchor x="831" y="702" name="center"/>
  <anchor x="1255" y="0" name="ogonek"/>
  <anchor x="887" y="1400" name="top"/>
  <anchor x="209" y="1400" name="topleft"/>
  <anchor x="1233" y="1400" name="topright"/>
  <outline>
    <contour>
      <point x="905" y="1430" type="curve" smooth="yes"/>
      <point x="431" y="1430"/>
      <point x="59" y="1094"/>
      <point x="59" y="634" type="curve" smooth="yes"/>
      <point x="59" y="248"/>
      <point x="341" y="-32"/>
      <point x="757" y="-32" type="curve" smooth="yes"/>
      <point x="1233" y="-32"/>
      <point x="1605" y="312"/>
      <point x="1605" y="768" type="curve" smooth="yes"/>
      <point x="1605" y="1154"/>
      <point x="1321" y="1430"/>
    </contour>
    <contour>
      <point x="871" y="1044" type="curve" smooth="yes"/>
      <point x="1019" y="1044"/>
      <point x="1127" y="914"/>
      <point x="1127" y="736" type="curve" smooth="yes"/>
      <point x="1127" y="520"/>
      <point x="975" y="354"/>
      <point x="801" y="354" type="curve" smooth="yes"/>
      <point x="655" y="354"/>
      <point x="537" y="488"/>
      <point x="537" y="666" type="curve" smooth="yes"/>
      <point x="537" y="882"/>
      <point x="699" y="1044"/>
    </contour>
  </outline>
</glyph>
<glyph name="P" format="2">
  <advance width="1370"/>
  <unicode hex="0050"/>
  <outline>
    <contour>
      <point x="689" y="1246" type="line"/>
      <point x="449" y="1048" type="line"/>
      <point x="819" y="1048" type="line" smooth="yes"/>
      <point x="903" y="1048"/>
      <point x="949" y="1002"/>
      <point x="949" y="922" type="curve" smooth="yes"/>
      <point x="949" y="798"/>
      <point x="873" y="714"/>
      <point x="753" y="714" type="curve" smooth="yes"/>
      <point x="553" y="714" type="line"/>
      <point x="481" y="364" type="line"/>
      <point x="705" y="364" type="line" smooth="yes"/>
      <point x="1135" y="364"/>
      <point x="1399" y="618"/>
      <point x="1399" y="998" type="curve" smooth="yes"/>
      <point x="1399" y="1254"/>
      <point x="1227" y="1400"/>
      <point x="913" y="1400" type="curve" smooth="yes"/>
      <point x="257" y="1400" type="line"/>
      <point x="-23" y="0" type="line"/>
      <point x="441" y="0" type="line"/>
    </contour>
  </outline>
</glyph>
<glyph name="Q" format="2">
  <advance width="1598"/>
  <unicode hex="0051"/>
  <outline>
    <contour>
      <point x="917" y="1432" type="curve" smooth="yes"/>
      <point x="441" y="1432"/>
      <point x="69" y="1096"/>
      <point x="69" y="636" type="curve" smooth="yes"/>
      <point x="69" y="248"/>
      <point x="351" y="-32"/>
      <point x="769" y="-32" type="curve" smooth="yes"/>
      <point x="1245" y="-32"/>
      <point x="1617" y="312"/>
      <point x="1617" y="770" type="curve" smooth="yes"/>
      <point x="1617" y="1156"/>
      <point x="1333" y="1432"/>
    </contour>
    <contour>
      <point x="883" y="1046" type="curve" smooth="yes"/>
      <point x="1031" y="1046"/>
      <point x="1139" y="916"/>
      <point x="1139" y="738" type="curve" smooth="yes"/>
      <point x="1139" y="520"/>
      <point x="987" y="354"/>
      <point x="813" y="354" type="curve" smooth="yes"/>
      <point x="667" y="354"/>
      <point x="547" y="488"/>
      <point x="547" y="668" type="curve" smooth="yes"/>
      <point x="547" y="884"/>
      <point x="711" y="1046"/>
    </contour>
    <contour>
      <point x="1273" y="-120" type="line"/>
      <point x="1545" y="106" type="line"/>
      <point x="1003" y="774" type="line"/>
      <point x="733" y="548" type="line"/>
    </contour>
  </outline>
</glyph>
<glyph name="R" format="2">
  <advance width="714"/>
  <unicode hex="0052"/>
  <anchor x="299" y="0" name="bottom"/>
  <anchor x="431" y="700" name="top"/>
  <outline>
    <contour>
      <point x="322" y="265" type="line"/>
      <point x="392" y="0" type="line"/>
      <point x="654" y="0" type="line"/>
      <point x="546" y="265" type="line"/>
    </contour>
    <contour>
      <point x="346" y="623" type="line"/>
      <point x="226" y="524" type="line"/>
      <point x="433" y="524" type="line" smooth="yes"/>
      <point x="475" y="524"/>
      <point x="498" y="501"/>
      <point x="498" y="461" type="curve" smooth="yes"/>
      <point x="498" y="399"/>
      <point x="460" y="357"/>
      <point x="400" y="357" type="curve" smooth="yes"/>
      <point x="278" y="357" type="line"/>
      <point x="242" y="182" type="line"/>
      <point x="364" y="182" type="line" smooth="yes"/>
      <point x="587" y="182"/>
      <point x="723" y="308"/>
      <point x="723" y="498" type="curve" smooth="yes"/>
      <point x="723" y="626"/>
      <point x="633" y="700"/>
      <point x="468" y="700" type="curve" smooth="yes"/>
      <point x="130" y="700" type="line"/>
      <point x="-10" y="0" type="line"/>
      <point x="222" y="0" type="line"/>
    </contour>
  </outline>
</glyph>
<glyph name="S" format="2">
  <advance width="639"/>
  <unicode hex="0053"/>
  <anchor x="273" y="4" name="bottom"/>
  <anchor x="425" y="692" name="top"/>
  <outline>
    <contour>
      <point x="715" y="599" type="line"/>
      <point x="625" y="674"/>
      <point x="491" y="715"/>
      <point x="375" y="715" type="curve" smooth="yes"/>
      <point x="226" y="715"/>
      <point x="76" y="638"/>
      <point x="76" y="470" type="curve" smooth="yes"/>
      <point x="76" y="273"/>
      <point x="388" y="283"/>
      <point x="388" y="203" type="curve" smooth="yes"/>
      <point x="388" y="174"/>
      <point x="362" y="161"/>
      <point x="337" y="161" type="curve" smooth="yes"/>
      <point x="254" y="161"/>
      <point x="131" y="238"/>
      <point x="78" y="299" type="curve"/>
      <point x="-43" y="133" type="line"/>
      <point x="51" y="38"/>
      <point x="203" y="-16"/>
      <point x="335" y="-16" type="curve" smooth="yes"/>
      <point x="485" y="-16"/>
      <point x="632" y="60"/>
      <point x="632" y="229" type="curve" smooth="yes"/>
      <point x="632" y="432"/>
      <point x="321" y="427"/>
      <point x="321" y="505" type="curve" smooth="yes"/>
      <point x="321" y="528"/>
      <point x="340" y="539"/>
      <point x="361" y="539" type="curve" smooth="yes"/>
      <point x="429" y="539"/>
      <point x="542" y="472"/>
      <point x="596" y="432" type="curve"/>
    </contour>
  </outline>
</glyph>
<glyph name="T" format="2">
  <advance width="631"/>
  <unicode hex="0054"/>
  <anchor x="260" y="0" name="bottom"/>
  <anchor x="321" y="300" name="center"/>
  <anchor x="417" y="700" name="top"/>
  <outline>
    <contour>
      <point x="251" y="533" type="line"/>
      <point x="144" y="0" type="line"/>
      <point x="375" y="0" type="line"/>
      <point x="482" y="533" type="line"/>
    </contour>
    <contour>
      <point x="679" y="517" type="line"/>
      <point x="716" y="700" type="line"/>
      <point x="86" y="700" type="line"/>
      <point x="49" y="517" type="line"/>
    </contour>
  </outline>
</glyph>
<glyph name="U" format="2">
  <advance width="743"/>
  <unicode hex="0055"/>
  <anchor x="316" y="0" name="bottom"/>
  <anchor x="560" y="0" name="ogonek"/>
  <anchor x="456" y="700" name="top"/>
  <anchor x="723" y="700" name="topright"/>
  <outline>
    <contour>
      <point x="561" y="700" type="line"/>
      <point x="480" y="297" type="line" smooth="yes"/>
      <point x="466" y="227"/>
      <point x="413" y="183"/>
      <point x="356" y="183" type="curve" smooth="yes"/>
      <point x="299" y="183"/>
      <point x="258" y="228"/>
      <point x="272" y="297" type="curve" smooth="yes"/>
      <point x="352" y="700" type="line"/>
      <point x="121" y="700" type="line"/>
      <point x="40" y="297" type="line" smooth="yes"/>
      <point x="3" y="111"/>
      <point x="124" y="-10"/>
      <point x="327" y="-10" type="curve" smooth="yes"/>
      <point x="530" y="-10"/>
      <point x="675" y="111"/>
      <point x="712" y="297" type="curve" smooth="yes"/>
      <point x="793" y="700" type="line"/>
    </contour>
  </outline>
</glyph>
<glyph name="V" format="2">
  <advance width="753"/>
  <unicode hex="0056"/>
  <outline>
    <contour>
      <point x="611" y="700" type="line"/>
      <point x="347" y="150" type="line"/>
      <point x="406" y="141" type="line"/>
      <point x="322" y="700" type="line"/>
      <point x="75" y="700" type="line"/>
      <point x="225" y="0" type="line"/>
      <point x="464" y="0" type="line"/>
      <point x="848" y="700" type="line"/>
    </contour>
  </outline>
</glyph>
<glyph name="W" format="2">
  <advance width="1109"/>
  <unicode hex="0057"/>
  <anchor x="585" y="700" name="top"/>
  <outline>
    <contour>
      <point x="967" y="700" type="line"/>
      <point x="751" y="147" type="line"/>
      <point x="795" y="140" type="line"/>
      <point x="758" y="700" type="line"/>
      <point x="532" y="699" type="line"/>
      <point x="315" y="147" type="line"/>
      <point x="359" y="140" type="line"/>
      <point x="322" y="700" type="line"/>
      <point x="75" y="700" type="line"/>
      <point x="186" y="0" type="line"/>
      <point x="424" y="0" type="line"/>
      <point x="632" y="512" type="line"/>
      <point x="587" y="519" type="line"/>
      <point x="621" y="0" type="line"/>
      <point x="860" y="0" type="line"/>
      <point x="1204" y="700" type="line"/>
    </contour>
  </outline>
</glyph>
<glyph name="X" format="2">
  <advance width="771"/>
  <unicode hex="0058"/>
  <outline>
    <contour>
      <point x="548" y="700" type="line"/>
      <point x="419" y="535" type="line"/>
      <point x="344" y="700" type="line"/>
      <point x="75" y="700" type="line"/>
      <point x="249" y="355" type="line"/>
      <point x="-56" y="0" type="line"/>
      <point x="215" y="0" type="line"/>
      <point x="360" y="181" type="line"/>
      <point x="448" y="0" type="line"/>
      <point x="726" y="0" type="line"/>
      <point x="538" y="366" type="line"/>
      <point x="821" y="700" type="line"/>
    </contour>
  </outline>
</glyph>
<glyph name="Y" format="2">
  <advance width="708"/>
  <unicode hex="0059"/>
  <anchor x="329" y="0" name="bottom"/>
  <anchor x="439" y="700" name="top"/>
  <anchor x="100" y="700" name="topleft"/>
  <outline>
    <contour>
      <point x="262" y="316" type="line"/>
      <point x="210" y="0" type="line"/>
      <point x="441" y="0" type="line"/>
      <point x="493" y="316" type="line"/>
    </contour>
    <contour>
      <point x="262" y="166" type="line"/>
      <point x="442" y="166" type="line"/>
      <point x="808" y="700" type="line"/>
      <point x="577" y="700" type="line"/>
      <point x="340" y="346" type="line"/>
      <point x="430" y="335" type="line"/>
      <point x="301" y="700" type="line"/>
      <point x="70" y="700" type="line"/>
    </contour>
  </outline>
</glyph>
<glyph name="Z" format="2">
  <advance width="684"/>
  <unicode hex="005A"/>
  <anchor x="307" y="0" name="bottom"/>
  <anchor x="417" y="700" name="top"/>
  <outline>
    <contour>
      <point x="100" y="700" type="line"/>
      <point x="71" y="522" type="line"/>
      <point x="486" y="522" type="line"/>
      <point x="458" y="592" type="line"/>
      <point x="-4" y="145" type="line"/>
      <point x="-28" y="0" type="line"/>
      <point x="614" y="0" type="line"/>
      <point x="644" y="178" type="line"/>
      <point x="210" y="178" type="line"/>
      <point x="238" y="107" type="line"/>
      <point x="699" y="555" type="line"/>
      <point x="723" y="700" type="line"/>
    </contour>
  </outline>
</glyph>
<glyph name="bracketleft" format="2">
  <advance width="762"/>
  <unicode hex="005B"/>
  <outline>
    <contour>
      <point x="296" y="1484" type="line"/>
      <point x="-52" y="-248" type="line"/>
      <point x="582" y="-248" type="line"/>
      <point x="650" y="84" type="line"/>
      <point x="416" y="84" type="line"/>
      <point x="628" y="1152" type="line"/>
      <point x="862" y="1152" type="line"/>
      <point x="930" y="1484" type="line"/>
    </contour>
  </outline>
</glyph>
<glyph name="bracketright" format="2">
  <advance width="359"/>
  <unicode hex="005D"/>
  <outline>
    <contour>
      <point x="258" y="-124" type="line"/>
      <point x="432" y="742" type="line"/>
      <point x="115" y="742" type="line"/>
      <point x="81" y="576" type="line"/>
      <point x="198" y="576" type="line"/>
      <point x="92" y="42" type="line"/>
      <point x="-25" y="42" type="line"/>
      <point x="-59" y="-124" type="line"/>
    </contour>
  </outline>
</glyph>
<glyph name="asciicircum" format="2">
  <advance width="586"/>
  <unicode hex="005E"/>
  <outline>
    <contour>
      <point x="432" y="523" type="line"/>
      <point x="254" y="523" type="line"/>
      <point x="-7" y="143" type="line"/>
      <point x="153" y="143" type="line"/>
      <point x="325" y="404" type="line"/>
      <point x="389" y="143" type="line"/>
      <point x="541" y="143" type="line"/>
    </contour>
  </outline>
</glyph>
<glyph name="underscore" format="2">
  <advance width="577"/>
  <unicode hex="005F"/>
  <outline>
    <contour>
      <point x="-82" y="-84" type="line"/>
      <point x="-106" y="-204" type="line"/>
      <point x="493" y="-204" type="line"/>
      <point x="517" y="-84" type="line"/>
    </contour>
  </outline>
</glyph>
<glyph name="a" format="2">
  <advance width="1226"/>
  <unicode hex="0061"/>
  <anchor x="570" y="0" name="bottom"/>
  <anchor x="1032" y="0" name="ogonek"/>
  <anchor x="716" y="1094" name="top"/>
  <outline>
    <contour>
      <point x="714" y="1114" type="curve" smooth="yes"/>
      <point x="569" y="1114"/>
      <point x="382" y="1076"/>
      <point x="187" y="1008" type="curve"/>
      <point x="245" y="718" type="line"/>
      <point x="340" y="751"/>
      <point x="468" y="778"/>
      <point x="565" y="778" type="curve" smooth="yes"/>
      <point x="713" y="778"/>
      <point x="776" y="741"/>
      <point x="759" y="655" type="curve" smooth="yes"/>
      <point x="628" y="0" type="line"/>
      <point x="1080" y="0" type="line"/>
      <point x="1223" y="709" type="line" smooth="yes"/>
      <point x="1275" y="968"/>
      <point x="1092" y="1114"/>
    </contour>
    <contour>
      <point x="801" y="658" type="line"/>
      <point x="488" y="658" type="line" smooth="yes"/>
      <point x="182" y="658"/>
      <point x="21" y="554"/>
      <point x="-23" y="350" type="curve" smooth="yes"/>
      <point x="-70" y="132"/>
      <point x="81" y="-20"/>
      <point x="351" y="-20" type="curve" smooth="yes"/>
      <point x="512" y="-20"/>
      <point x="641" y="67"/>
      <point x="728" y="233" type="curve"/>
      <point x="702" y="352" type="line"/>
      <point x="647" y="294"/>
      <point x="580" y="266"/>
      <point x="509" y="266" type="curve" smooth="yes"/>
      <point x="436" y="266"/>
      <point x="402" y="300"/>
      <point x="414" y="360" type="curve" smooth="yes"/>
      <point x="426" y="419"/>
      <point x="473" y="450"/>
      <point x="543" y="450" type="curve" smooth="yes"/>
      <point x="761" y="450" type="line"/>
    </contour>
  </outline>
</glyph>
<glyph name="b" format="2">
  <advance width="684"/>
  <unicode hex="0062"/>
  <anchor x="287" y="0" name="bottom"/>
  <anchor x="397" y="547" name="top"/>
  <outline>
    <contour>
      <point x="474" y="555" type="curve" smooth="yes"/>
      <point x="419" y="555"/>
      <point x="367" y="532"/>
      <point x="324" y="493" type="curve"/>
      <point x="373" y="742" type="line"/>
      <point x="148" y="742" type="line"/>
      <point x="1" y="0" type="line"/>
      <point x="226" y="0" type="line"/>
      <point x="240" y="72" type="line"/>
      <point x="271" y="20"/>
      <point x="324" y="-8"/>
      <point x="394" y="-8" type="curve" smooth="yes"/>
      <point x="552" y="-8"/>
      <point x="676" y="135"/>
      <point x="676" y="318" type="curve" smooth="yes"/>
      <point x="676" y="458"/>
      <point x="593" y="555"/>
    </contour>
    <contour>
      <point x="382" y="387" type="curve" smooth="yes"/>
      <point x="424" y="387"/>
      <point x="449" y="356"/>
      <point x="449" y="303" type="curve" smooth="yes"/>
      <point x="449" y="233"/>
      <point x="405" y="176"/>
      <point x="351" y="176" type="curve" smooth="yes"/>
      <point x="308" y="176"/>
      <point x="281" y="208"/>
      <point x="281" y="259" type="curve" smooth="yes"/>
      <point x="281" y="329"/>
      <point x="327" y="387"/>
    </contour>
  </outline>
</glyph>
<glyph name="c" format="2">
  <advance width="565"/>
  <unicode hex="0063"/>
  <anchor x="248" y="0" name="bottom"/>
  <anchor x="338" y="547" name="top"/>
  <outline>
    <contour>
      <point x="271" y="-8" type="curve" smooth="yes"/>
      <point x="396" y="-8"/>
      <point x="498" y="48"/>
      <point x="547" y="145" type="curve"/>
      <point x="374" y="229" type="line"/>
      <point x="358" y="188"/>
      <point x="333" y="170"/>
      <point x="301" y="170" type="curve" smooth="yes"/>
      <point x="261" y="170"/>
      <point x="238" y="204"/>
      <point x="238" y="257" type="curve" smooth="yes"/>
      <point x="238" y="326"/>
      <point x="272" y="373"/>
      <point x="321" y="373" type="curve" smooth="yes"/>
      <point x="353" y="373"/>
      <point x="375" y="354"/>
      <point x="386" y="321" type="curve"/>
      <point x="572" y="397" type="line"/>
      <point x="537" y="497"/>
      <point x="448" y="555"/>
      <point x="329" y="555" type="curve" smooth="yes"/>
      <point x="140" y="555"/>
      <point x="10" y="429"/>
      <point x="10" y="242" type="curve" smooth="yes"/>
      <point x="10" y="90"/>
      <point x="110" y="-8"/>
    </contour>
  </outline>
</glyph>
<glyph name="d" format="2">
  <advance width="693"/>
  <unicode hex="0064"/>
  <anchor x="294" y="0" name="bottom"/>
  <anchor x="588" y="630" name="center"/>
  <anchor x="792" y="742" name="topright"/>
  <outline>
    <contour>
      <point x="220" y="-8" type="curve" smooth="yes"/>
      <point x="275" y="-8"/>
      <point x="327" y="15"/>
      <point x="370" y="54" type="curve"/>
      <point x="359" y="0" type="line"/>
      <point x="584" y="0" type="line"/>
      <point x="732" y="742" type="line"/>
      <point x="507" y="742" type="line"/>
      <point x="454" y="475" type="line"/>
      <point x="423" y="527"/>
      <point x="370" y="555"/>
      <point x="300" y="555" type="curve" smooth="yes"/>
      <point x="142" y="555"/>
      <point x="18" y="412"/>
      <point x="18" y="229" type="curve" smooth="yes"/>
      <point x="18" y="89"/>
      <point x="101" y="-8"/>
    </contour>
    <contour>
      <point x="312" y="160" type="curve" smooth="yes"/>
      <point x="270" y="160"/>
      <point x="245" y="191"/>
      <point x="245" y="244" type="curve" smooth="yes"/>
      <point x="245" y="314"/>
      <point x="289" y="371"/>
      <point x="343" y="371" type="curve" smooth="yes"/>
      <point x="386" y="371"/>
      <point x="413" y="339"/>
      <point x="413" y="288" type="curve" smooth="yes"/>
      <point x="413" y="218"/>
      <point x="367" y="160"/>
    </contour>
  </outline>
</glyph>
<glyph name="e" format="2">
  <advance width="1228"/>
  <unicode hex="0065"/>
  <anchor x="549" y="0" name="bottom"/>
  <anchor x="1021" y="0" name="ogonek"/>
  <anchor x="701" y="1094" name="top"/>
  <outline>
    <contour>
      <point x="619" y="-14" type="curve" smooth="yes"/>
      <point x="801" y="-14"/>
      <point x="959" y="48"/>
      <point x="1087" y="168" type="curve"/>
      <point x="855" y="396" type="line"/>
      <point x="785" y="342"/>
      <point x="709" y="314"/>
      <point x="635" y="314" type="curve" smooth="yes"/>
      <point x="521" y="314"/>
      <point x="461" y="374"/>
      <point x="461" y="486" type="curve" smooth="yes"/>
      <point x="461" y="654"/>
      <point x="559" y="804"/>
      <point x="671" y="804" type="curve" smooth="yes"/>
      <point x="751" y="804"/>
      <point x="799" y="732"/>
      <point x="769" y="654" type="curve"/>
      <point x="355" y="654" type="line"/>
      <point x="355" y="446" type="line"/>
      <point x="1187" y="446" type="line"/>
      <point x="1273" y="832"/>
      <point x="1045" y="1108"/>
      <point x="639" y="1108" type="curve" smooth="yes"/>
      <point x="279" y="1108"/>
      <point x="21" y="844"/>
      <point x="21" y="478" type="curve" smooth="yes"/>
      <point x="21" y="178"/>
      <point x="253" y="-14"/>
    </contour>
  </outline>
</glyph>
<glyph name="f" format="2">
  <advance width="433"/>
  <unicode hex="0066"/>
  <outline>
    <contour>
      <point x="69" y="547" type="line"/>
      <point x="41" y="405" type="line"/>
      <point x="446" y="405" type="line"/>
      <point x="474" y="547" type="line"/>
    </contour>
    <contour>
      <point x="540" y="759" type="line"/>
      <point x="500" y="773"/>
      <point x="453" y="782"/>
      <point x="405" y="782" type="curve" smooth="yes"/>
      <point x="273" y="783"/>
      <point x="179" y="719"/>
      <point x="156" y="605" type="curve" smooth="yes"/>
      <point x="35" y="0" type="line"/>
      <point x="259" y="0" type="line"/>
      <point x="370" y="553" type="line" smooth="yes"/>
      <point x="376" y="582"/>
      <point x="408" y="609"/>
      <point x="445" y="608" type="curve"/>
      <point x="454" y="608"/>
      <point x="473" y="604"/>
      <point x="487" y="599" type="curve"/>
    </contour>
  </outline>
</glyph>
<glyph name="g" format="2">
  <advance width="648"/>
  <unicode hex="0067"/>
  <anchor x="269" y="0" name="bottom"/>
  <anchor x="379" y="547" name="top"/>
  <outline>
    <contour>
      <point x="223" y="-204" type="curve" smooth="yes"/>
      <point x="393" y="-204"/>
      <point x="525" y="-116"/>
      <point x="554" y="36" type="curve" smooth="yes"/>
      <point x="656" y="547" type="line"/>
      <point x="431" y="547" type="line"/>
      <point x="418" y="484" type="line"/>
      <point x="389" y="530"/>
      <point x="340" y="555"/>
      <point x="276" y="555" type="curve" smooth="yes"/>
      <point x="128" y="555"/>
      <point x="11" y="419"/>
      <point x="11" y="245" type="curve" smooth="yes"/>
      <point x="11" y="120"/>
      <point x="89" y="32"/>
      <point x="200" y="32" type="curve" smooth="yes"/>
      <point x="250" y="32"/>
      <point x="298" y="49"/>
      <point x="338" y="78" type="curve"/>
      <point x="335" y="60" type="line" smooth="yes"/>
      <point x="326" y="6"/>
      <point x="279" y="-30"/>
      <point x="212" y="-30" type="curve" smooth="yes"/>
      <point x="162" y="-30"/>
      <point x="96" y="-17"/>
      <point x="51" y="13" type="curve"/>
      <point x="-40" y="-128" type="line"/>
      <point x="15" y="-166"/>
      <point x="108" y="-204"/>
    </contour>
    <contour>
      <point x="293" y="200" type="curve" smooth="yes"/>
      <point x="258" y="200"/>
      <point x="238" y="221"/>
      <point x="238" y="260" type="curve" smooth="yes"/>
      <point x="238" y="321"/>
      <point x="275" y="371"/>
      <point x="321" y="371" type="curve" smooth="yes"/>
      <point x="356" y="371"/>
      <point x="379" y="344"/>
      <point x="379" y="301" type="curve" smooth="yes"/>
      <point x="379" y="246"/>
      <point x="339" y="200"/>
    </contour>
  </outline>
</glyph>
<glyph name="h" format="2">
  <advance width="679"/>
  <unicode hex="0068"/>
  <anchor x="285" y="0" name="bottom"/>
  <anchor x="227" y="630" name="center"/>
  <anchor x="258" y="742" name="top"/>
  <outline>
    <contour>
      <point x="482" y="555" type="curve" smooth="yes"/>
      <point x="419" y="555"/>
      <point x="364" y="528"/>
      <point x="321" y="479" type="curve"/>
      <point x="373" y="742" type="line"/>
      <point x="148" y="742" type="line"/>
      <point x="1" y="0" type="line"/>
      <point x="226" y="0" type="line"/>
      <point x="279" y="267" type="line" smooth="yes"/>
      <point x="290" y="325"/>
      <point x="331" y="367"/>
      <point x="374" y="367" type="curve" smooth="yes"/>
      <point x="412" y="367"/>
      <point x="432" y="337"/>
      <point x="423" y="291" type="curve" smooth="yes"/>
      <point x="365" y="0" type="line"/>
      <point x="590" y="0" type="line"/>
      <point x="655" y="325" type="line" smooth="yes"/>
      <point x="681" y="454"/>
      <point x="605" y="555"/>
    </contour>
  </outline>
</glyph>
<glyph name="k" format="2">
  <advance width="672"/>
  <unicode hex="006B"/>
  <anchor x="293" y="0" name="bottom"/>
  <anchor x="261" y="742" name="top"/>
  <anchor x="364" y="547" name="topright"/>
  <outline>
    <contour>
      <point x="148" y="742" type="line"/>
      <point x="0" y="0" type="line"/>
      <point x="225" y="0" type="line"/>
      <point x="373" y="742" type="line"/>
    </contour>
    <contour>
      <point x="459" y="547" type="line"/>
      <point x="292" y="394" type="line"/>
      <point x="236" y="111" type="line"/>
      <point x="737" y="547" type="line"/>
    </contour>
    <contour>
      <point x="287" y="224" type="line"/>
      <point x="353" y="0" type="line"/>
      <point x="612" y="0" type="line"/>
      <point x="466" y="360" type="line"/>
    </contour>
  </outline>
</glyph>
<glyph name="l" format="2">
  <advance width="369"/>
  <unicode hex="006C"/>
  <anchor x="157" y="0" name="bottom"/>
  <anchor x="458" y="390" name="center"/>
  <anchor x="236" y="742" name="top"/>
  <anchor x="418" y="742" name="topright"/>
  <outline>
    <contour>
      <point x="32" y="236" type="line" smooth="yes"/>
      <point x="-1" y="71"/>
      <point x="99" y="-11"/>
      <point x="224" y="-11" type="curve" smooth="yes"/>
      <point x="253" y="-11"/>
      <point x="290" y="-7"/>
      <point x="326" y="5" type="curve"/>
      <point x="339" y="199" type="line"/>
      <point x="321" y="191"/>
      <point x="301" y="182"/>
      <point x="279" y="182" type="curve" smooth="yes"/>
      <point x="259" y="182"/>
      <point x="248" y="187"/>
      <point x="255" y="223" type="curve" smooth="yes"/>
      <point x="358" y="742" type="line"/>
      <point x="133" y="742" type="line"/>
    </contour>
  </outline>
</glyph>
<glyph name="m" format="2">
  <advance width="1038"/>
  <unicode hex="006D"/>
  <anchor x="482" y="0" name="bottom"/>
  <anchor x="574" y="547" name="top"/>
  <outline>
    <contour>
      <point x="477" y="555" type="curve" smooth="yes"/>
      <point x="414" y="555"/>
      <point x="359" y="528"/>
      <point x="316" y="479" type="curve"/>
      <point x="329" y="547" type="line"/>
      <point x="104" y="547" type="line"/>
      <point x="-4" y="0" type="line"/>
      <point x="221" y="0" type="line"/>
      <point x="274" y="267" type="line" smooth="yes"/>
      <point x="285" y="325"/>
      <point x="326" y="367"/>
      <point x="369" y="367" type="curve" smooth="yes"/>
      <point x="407" y="367"/>
      <point x="427" y="337"/>
      <point x="418" y="291" type="curve" smooth="yes"/>
      <point x="360" y="0" type="line"/>
      <point x="585" y="0" type="line"/>
      <point x="650" y="325" type="line" smooth="yes"/>
      <point x="676" y="454"/>
      <point x="600" y="555"/>
    </contour>
    <contour>
      <point x="841" y="555" type="curve" smooth="yes"/>
      <point x="747" y="555"/>
      <point x="665" y="488"/>
      <point x="601" y="367" type="curve"/>
      <point x="585" y="0" type="line"/>
      <point x="638" y="267" type="line" smooth="yes"/>
      <point x="649" y="325"/>
      <point x="690" y="367"/>
      <point x="733" y="367" type="curve" smooth="yes"/>
      <point x="771" y="367"/>
      <point x="791" y="337"/>
      <point x="782" y="291" type="curve" smooth="yes"/>
      <point x="724" y="0" type="line"/>
      <point x="949" y="0" type="line"/>
      <point x="1014" y="325" type="line" smooth="yes"/>
      <point x="1040" y="454"/>
      <point x="964" y="555"/>
    </contour>
  </outline>
</glyph>
<glyph name="n" format="2">
  <advance width="674"/>
  <unicode hex="006E"/>
  <anchor x="296" y="0" name="bottom"/>
  <anchor x="430" y="547" name="top"/>
  <anchor x="49" y="547" name="topleft"/>
  <outline>
    <contour>
      <point x="477" y="555" type="curve" smooth="yes"/>
      <point x="414" y="555"/>
      <point x="359" y="528"/>
      <point x="316" y="479" type="curve"/>
      <point x="329" y="547" type="line"/>
      <point x="104" y="547" type="line"/>
      <point x="-4" y="0" type="line"/>
      <point x="221" y="0" type="line"/>
      <point x="274" y="267" type="line" smooth="yes"/>
      <point x="285" y="325"/>
      <point x="326" y="367"/>
      <point x="369" y="367" type="curve" smooth="yes"/>
      <point x="407" y="367"/>
      <point x="427" y="337"/>
      <point x="418" y="291" type="curve" smooth="yes"/>
      <point x="360" y="0" type="line"/>
      <point x="585" y="0" type="line"/>
      <point x="650" y="325" type="line" smooth="yes"/>
      <point x="676" y="454"/>
      <point x="600" y="555"/>
    </contour>
  </outline>
</glyph>
<glyph name="o" format="2">
  <advance width="642"/>
  <unicode hex="006F"/>
  <anchor x="296" y="0" name="bottom"/>
  <anchor x="321" y="274" name="center"/>
  <anchor x="513" y="0" name="ogonek"/>
  <anchor x="349" y="547" name="top"/>
  <anchor x="489" y="547" name="topright"/>
  <outline>
    <contour>
      <point x="350" y="555" type="curve" smooth="yes"/>
      <point x="148" y="555"/>
      <point x="11" y="432"/>
      <point x="11" y="246" type="curve" smooth="yes"/>
      <point x="11" y="92"/>
      <point x="119" y="-8"/>
      <point x="294" y="-8" type="curve" smooth="yes"/>
      <point x="495" y="-8"/>
      <point x="632" y="116"/>
      <point x="632" y="302" type="curve" smooth="yes"/>
      <point x="632" y="456"/>
      <point x="525" y="555"/>
    </contour>
    <contour>
      <point x="332" y="377" type="curve" smooth="yes"/>
      <point x="377" y="377"/>
      <point x="404" y="341"/>
      <point x="404" y="285" type="curve" smooth="yes"/>
      <point x="404" y="214"/>
      <point x="366" y="165"/>
      <point x="311" y="165" type="curve" smooth="yes"/>
      <point x="266" y="165"/>
      <point x="239" y="201"/>
      <point x="239" y="257" type="curve" smooth="yes"/>
      <point x="239" y="328"/>
      <point x="277" y="377"/>
    </contour>
  </outline>
</glyph>
<glyph name="p" format="2">
  <advance width="1380"/>
  <unicode hex="0070"/>
  <outline>
    <contour>
      <point x="953" y="1110" type="curve" smooth="yes"/>
      <point x="843" y="1110"/>
      <point x="739" y="1064"/>
      <point x="653" y="986" type="curve"/>
      <point x="675" y="1094" type="line"/>
      <point x="225" y="1094" type="line"/>
      <point x="-71" y="-388" type="line"/>
      <point x="379" y="-388" type="line"/>
      <point x="485" y="144" type="line"/>
      <point x="547" y="40"/>
      <point x="653" y="-16"/>
      <point x="793" y="-16" type="curve" smooth="yes"/>
      <point x="1109" y="-16"/>
      <point x="1357" y="270"/>
      <point x="1357" y="636" type="curve" smooth="yes"/>
      <point x="1357" y="916"/>
      <point x="1191" y="1110"/>
    </contour>
    <contour>
      <point x="769" y="774" type="curve" smooth="yes"/>
      <point x="853" y="774"/>
      <point x="903" y="712"/>
      <point x="903" y="606" type="curve" smooth="yes"/>
      <point x="903" y="466"/>
      <point x="815" y="352"/>
      <point x="707" y="352" type="curve" smooth="yes"/>
      <point x="621" y="352"/>
      <point x="567" y="416"/>
      <point x="567" y="518" type="curve" smooth="yes"/>
      <point x="567" y="658"/>
      <point x="659" y="774"/>
    </contour>
  </outline>
</glyph>
<glyph name="q" format="2">
  <advance width="1380"/>
  <unicode hex="0071"/>
  <outline>
    <contour>
      <point x="428" y="-16" type="curve" smooth="yes"/>
      <point x="538" y="-16"/>
      <point x="642" y="30"/>
      <point x="728" y="108" type="curve"/>
      <point x="628" y="-388" type="line"/>
      <point x="1078" y="-388" type="line"/>
      <point x="1374" y="1094" type="line"/>
      <point x="924" y="1094" type="line"/>
      <point x="896" y="950" type="line"/>
      <point x="834" y="1054"/>
      <point x="728" y="1110"/>
      <point x="588" y="1110" type="curve" smooth="yes"/>
      <point x="272" y="1110"/>
      <point x="24" y="824"/>
      <point x="24" y="458" type="curve" smooth="yes"/>
      <point x="24" y="178"/>
      <point x="190" y="-16"/>
    </contour>
    <contour>
      <point x="612" y="320" type="curve" smooth="yes"/>
      <point x="528" y="320"/>
      <point x="478" y="382"/>
      <point x="478" y="488" type="curve" smooth="yes"/>
      <point x="478" y="628"/>
      <point x="566" y="742"/>
      <point x="674" y="742" type="curve" smooth="yes"/>
      <point x="760" y="742"/>
      <point x="814" y="678"/>
      <point x="814" y="576" type="curve" smooth="yes"/>
      <point x="814" y="436"/>
      <point x="722" y="320"/>
    </contour>
  </outline>
</glyph>
<glyph name="r" format="2">
  <advance width="453"/>
  <unicode hex="0072"/>
  <anchor x="105" y="0" name="bottom"/>
  <anchor x="304" y="547" name="top"/>
  <outline>
    <contour>
      <point x="104" y="547" type="line"/>
      <point x="-5" y="0" type="line"/>
      <point x="220" y="0" type="line"/>
      <point x="329" y="547" type="line"/>
    </contour>
    <contour>
      <point x="491" y="557" type="line"/>
      <point x="359" y="557"/>
      <point x="261" y="454"/>
      <point x="226" y="280" type="curve"/>
      <point x="271" y="252" type="line"/>
      <point x="285" y="324"/>
      <point x="367" y="370"/>
      <point x="465" y="355" type="curve"/>
    </contour>
  </outline>
</glyph>
<glyph name="s" format="2">
  <advance width="1104"/>
  <unicode hex="0073"/>
  <anchor x="442" y="0" name="bottom"/>
  <anchor x="752" y="1094" name="top"/>
  <outline>
    <contour>
      <point x="548" y="-18" type="curve" smooth="yes"/>
      <point x="826" y="-18"/>
      <point x="1016" y="132"/>
      <point x="1016" y="352" type="curve" smooth="yes"/>
      <point x="1016" y="662"/>
      <point x="534" y="678"/>
      <point x="534" y="768" type="curve" smooth="yes"/>
      <point x="534" y="794"/>
      <point x="560" y="812"/>
      <point x="598" y="812" type="curve" smooth="yes"/>
      <point x="680" y="812"/>
      <point x="812" y="756"/>
      <point x="952" y="662" type="curve"/>
      <point x="1144" y="914" type="line"/>
      <point x="970" y="1040"/>
      <point x="768" y="1110"/>
      <point x="576" y="1110" type="curve" smooth="yes"/>
      <point x="302" y="1110"/>
      <point x="114" y="956"/>
      <point x="114" y="732" type="curve" smooth="yes"/>
      <point x="114" y="426"/>
      <point x="588" y="404"/>
      <point x="588" y="328" type="curve" smooth="yes"/>
      <point x="588" y="298"/>
      <point x="566" y="284"/>
      <point x="514" y="284" type="curve" smooth="yes"/>
      <point x="404" y="284"/>
      <point x="266" y="346"/>
      <point x="130" y="452" type="curve"/>
      <point x="-50" y="196" type="line"/>
      <point x="108" y="60"/>
      <point x="324" y="-18"/>
    </contour>
  </outline>
</glyph>
<glyph name="t" format="2">
  <advance width="920"/>
  <unicode hex="0074"/>
  <anchor x="431" y="0" name="bottom"/>
  <anchor x="401" y="598" name="center"/>
  <anchor x="541" y="1340" name="top"/>
  <anchor x="895" y="1484" name="topright"/>
  <outline>
    <contour>
      <point x="319" y="1340" type="line"/>
      <point x="125" y="370" type="line" smooth="yes"/>
      <point x="79" y="142"/>
      <point x="223" y="-22"/>
      <point x="485" y="-20" type="curve" smooth="yes"/>
      <point x="589" y="-20"/>
      <point x="715" y="-2"/>
      <point x="795" y="40" type="curve"/>
      <point x="755" y="362" type="line"/>
      <point x="715" y="346"/>
      <point x="665" y="328"/>
      <point x="627" y="328" type="curve"/>
      <point x="585" y="326"/>
      <point x="567" y="344"/>
      <point x="579" y="402" type="curve" smooth="yes"/>
      <point x="767" y="1340" type="line"/>
    </contour>
    <contour>
      <point x="125" y="1094" type="line"/>
      <point x="69" y="810" type="line"/>
      <point x="923" y="810" type="line"/>
      <point x="979" y="1094" type="line"/>
    </contour>
  </outline>
</glyph>
<glyph name="u" format="2">
  <advance width="674"/>
  <unicode hex="0075"/>
  <anchor x="282" y="0" name="bottom"/>
  <anchor x="511" y="0" name="ogonek"/>
  <anchor x="392" y="547" name="top"/>
  <anchor x="607" y="547" name="topright"/>
  <anchor x="637" y="0" name="topleft"/>
  <outline>
    <contour>
      <point x="209" y="-8" type="curve" smooth="yes"/>
      <point x="272" y="-8"/>
      <point x="327" y="19"/>
      <point x="370" y="68" type="curve"/>
      <point x="357" y="0" type="line"/>
      <point x="582" y="0" type="line"/>
      <point x="690" y="547" type="line"/>
      <point x="465" y="547" type="line"/>
      <point x="412" y="280" type="line" smooth="yes"/>
      <point x="401" y="222"/>
      <point x="360" y="180"/>
      <point x="317" y="180" type="curve" smooth="yes"/>
      <point x="279" y="180"/>
      <point x="259" y="210"/>
      <point x="268" y="256" type="curve" smooth="yes"/>
      <point x="326" y="547" type="line"/>
      <point x="101" y="547" type="line"/>
      <point x="36" y="222" type="line" smooth="yes"/>
      <point x="10" y="93"/>
      <point x="86" y="-8"/>
    </contour>
  </outline>
</glyph>
<glyph name="v" format="2">
  <advance width="600"/>
  <unicode hex="0076"/>
  <outline>
    <contour>
      <point x="442" y="547" type="line"/>
      <point x="284" y="204" type="line"/>
      <point x="267" y="547" type="line"/>
      <point x="39" y="547" type="line"/>
      <point x="130" y="0" type="line"/>
      <point x="360" y="0" type="line"/>
      <point x="671" y="547" type="line"/>
    </contour>
  </outline>
</glyph>
<glyph name="w" format="2">
  <advance width="965"/>
  <unicode hex="0077"/>
  <anchor x="536" y="547" name="top"/>
  <outline>
    <contour>
      <point x="815" y="547" type="line"/>
      <point x="663" y="221" type="line"/>
      <point x="642" y="547" type="line"/>
      <point x="434" y="547" type="line"/>
      <point x="284" y="221" type="line"/>
      <point x="263" y="547" type="line"/>
      <point x="39" y="547" type="line"/>
      <point x="128" y="0" type="line"/>
      <point x="348" y="0" type="line"/>
      <point x="488" y="288" type="line"/>
      <point x="507" y="0" type="line"/>
      <point x="727" y="0" type="line"/>
      <point x="1036" y="547" type="line"/>
    </contour>
  </outline>
</glyph>
<glyph name="x" format="2">
  <advance width="642"/>
  <unicode hex="0078"/>
  <outline>
    <contour>
      <point x="60" y="547" type="line"/>
      <point x="174" y="280" type="line"/>
      <point x="-66" y="0" type="line"/>
      <point x="187" y="0" type="line"/>
      <point x="302" y="142" type="line"/>
      <point x="344" y="0" type="line"/>
      <point x="598" y="0" type="line"/>
      <point x="475" y="281" type="line"/>
      <point x="701" y="547" type="line"/>
      <point x="450" y="547" type="line"/>
      <point x="348" y="419" type="line"/>
      <point x="313" y="547" type="line"/>
    </contour>
  </outline>
</glyph>
<glyph name="y" format="2">
  <advance width="1248"/>
  <unicode hex="0079"/>
  <anchor x="954" y="0" name="bottom"/>
  <anchor x="734" y="1094" name="top"/>
  <outline>
    <contour>
      <point x="920" y="1094" type="line"/>
      <point x="524" y="288" type="line"/>
      <point x="642" y="270" type="line"/>
      <point x="526" y="1094" type="line"/>
      <point x="72" y="1094" type="line"/>
      <point x="310" y="34" type="line"/>
      <point x="284" y="10" type="line"/>
      <point x="254" y="-16"/>
      <point x="208" y="-48"/>
      <point x="144" y="-48" type="curve" smooth="yes"/>
      <point x="102" y="-48"/>
      <point x="64" y="-40"/>
      <point x="24" y="4" type="curve"/>
      <point x="-202" y="-270" type="line"/>
      <point x="-98" y="-358"/>
      <point x="12" y="-408"/>
      <point x="168" y="-408" type="curve" smooth="yes"/>
      <point x="390" y="-408"/>
      <point x="556" y="-322"/>
      <point x="690" y="-92" type="curve" smooth="yes"/>
      <point x="1376" y="1094" type="line"/>
    </contour>
  </outline>
</glyph>
<glyph name="z" format="2">
  <advance width="1136"/>
  <unicode hex="007A"/>
  <anchor x="499" y="0" name="bottom"/>
  <anchor x="677" y="1094" name="top"/>
  <outline>
    <contour>
      <point x="181" y="1094" type="line"/>
      <point x="115" y="758" type="line"/>
      <point x="547" y="758" type="line"/>
      <point x="-9" y="262" type="line"/>
      <point x="-57" y="0" type="line"/>
      <point x="987" y="0" type="line"/>
      <point x="1055" y="336" type="line"/>
      <point x="583" y="336" type="line"/>
      <point x="1137" y="832" type="line"/>
      <point x="1185" y="1094" type="line"/>
    </contour>
  </outline>
</glyph>
<glyph name="braceleft" format="2">
  <advance width="356"/>
  <unicode hex="007B"/>
  <outline>
    <contour>
      <point x="325" y="520" type="line" smooth="yes"/>
      <point x="334" y="566"/>
      <point x="354" y="579"/>
      <point x="418" y="579" type="curve"/>
      <point x="451" y="744" type="line"/>
      <point x="363" y="744" type="line" smooth="yes"/>
      <point x="218" y="744"/>
      <point x="162" y="706"/>
      <point x="139" y="591" type="curve" smooth="yes"/>
      <point x="107" y="428" type="line" smooth="yes"/>
      <point x="102" y="402"/>
      <point x="92" y="394"/>
      <point x="69" y="394" type="curve" smooth="yes"/>
      <point x="24" y="394" type="line"/>
      <point x="-10" y="224" type="line"/>
      <point x="35" y="224" type="line" smooth="yes"/>
      <point x="58" y="224"/>
      <point x="64" y="216"/>
      <point x="59" y="190" type="curve" smooth="yes"/>
      <point x="27" y="27" type="line" smooth="yes"/>
      <point x="4" y="-88"/>
      <point x="44" y="-126"/>
      <point x="189" y="-126" type="curve" smooth="yes"/>
      <point x="277" y="-126" type="line"/>
      <point x="310" y="39" type="line"/>
      <point x="247" y="39"/>
      <point x="232" y="52"/>
      <point x="241" y="98" type="curve" smooth="yes"/>
      <point x="256" y="175" type="line" smooth="yes"/>
      <point x="272" y="256"/>
      <point x="254" y="290"/>
      <point x="187" y="309" type="curve"/>
      <point x="260" y="324"/>
      <point x="294" y="362"/>
      <point x="310" y="443" type="curve" smooth="yes"/>
    </contour>
  </outline>
</glyph>
<glyph name="bar" format="2">
  <advance width="305"/>
  <unicode hex="007C"/>
  <outline>
    <contour>
      <point x="174" y="796" type="line"/>
      <point x="-6" y="-103" type="line"/>
      <point x="160" y="-103" type="line"/>
      <point x="340" y="796" type="line"/>
    </contour>
  </outline>
</glyph>
<glyph name="braceright" format="2">
  <advance width="356"/>
  <unicode hex="007D"/>
  <outline>
    <contour>
      <point x="52" y="98" type="line" smooth="yes"/>
      <point x="43" y="52"/>
      <point x="23" y="39"/>
      <point x="-41" y="39" type="curve"/>
      <point x="-74" y="-126" type="line"/>
      <point x="14" y="-126" type="line" smooth="yes"/>
      <point x="159" y="-126"/>
      <point x="215" y="-88"/>
      <point x="238" y="27" type="curve" smooth="yes"/>
      <point x="270" y="190" type="line" smooth="yes"/>
      <point x="275" y="216"/>
      <point x="285" y="224"/>
      <point x="308" y="224" type="curve" smooth="yes"/>
      <point x="353" y="224" type="line"/>
      <point x="387" y="394" type="line"/>
      <point x="342" y="394" type="line" smooth="yes"/>
      <point x="319" y="394"/>
      <point x="313" y="402"/>
      <point x="318" y="428" type="curve" smooth="yes"/>
      <point x="350" y="591" type="line" smooth="yes"/>
      <point x="373" y="706"/>
      <point x="333" y="744"/>
      <point x="188" y="744" type="curve" smooth="yes"/>
      <point x="100" y="744" type="line"/>
      <point x="67" y="579" type="line"/>
      <point x="130" y="579"/>
      <point x="145" y="566"/>
      <point x="136" y="520" type="curve" smooth="yes"/>
      <point x="121" y="443" type="line" smooth="yes"/>
      <point x="105" y="362"/>
      <point x="123" y="328"/>
      <point x="190" y="309" type="curve"/>
      <point x="117" y="294"/>
      <point x="83" y="256"/>
      <point x="67" y="175" type="curve" smooth="yes"/>
    </contour>
  </outline>
</glyph>
<glyph name="asciitilde" format="2">
  <advance width="1040"/>
  <unicode hex="007E"/>
  <outline>
    <contour>
      <point x="404" y="862" type="curve" smooth="yes"/>
      <point x="230" y="862"/>
      <point x="130" y="734"/>
      <point x="76" y="460" type="curve"/>
      <point x="374" y="460" type="line"/>
      <point x="386" y="516"/>
      <point x="406" y="542"/>
      <point x="442" y="542" type="curve" smooth="yes"/>
      <point x="494" y="542"/>
      <point x="534" y="454"/>
      <point x="672" y="454" type="curve" smooth="yes"/>
      <point x="846" y="454"/>
      <point x="952" y="582"/>
      <point x="1008" y="856" type="curve"/>
      <point x="712" y="856" type="line"/>
      <point x="700" y="800"/>
      <point x="670" y="774"/>
      <point x="634" y="774" type="curve" smooth="yes"/>
      <point x="582" y="774"/>
      <point x="542" y="862"/>
    </contour>
  </outline>
</glyph>
<glyph name="exclamdown" format="2">
  <advance width="588"/>
  <unicode hex="00A1"/>
  <outline>
    <contour>
      <point x="341" y="-338" type="line"/>
      <point x="413" y="30" type="line"/>
      <point x="435" y="546" type="line"/>
      <point x="167" y="546" type="line"/>
      <point x="-15" y="30" type="line"/>
      <point x="-87" y="-338" type="line"/>
    </contour>
    <contour>
      <point x="341" y="668" type="curve" smooth="yes"/>
      <point x="465" y="668"/>
      <point x="563" y="756"/>
      <point x="563" y="894" type="curve" smooth="yes"/>
      <point x="563" y="1004"/>
      <point x="489" y="1078"/>
      <point x="377" y="1078" type="curve" smooth="yes"/>
      <point x="247" y="1078"/>
      <point x="153" y="982"/>
      <point x="153" y="852" type="curve" smooth="yes"/>
      <point x="153" y="742"/>
      <point x="227" y="668"/>
    </contour>
  </outline>
</glyph>
<glyph name="cent" format="2">
  <advance width="1200"/>
  <unicode hex="00A2"/>
  <anchor x="531" y="0" name="bottom"/>
  <anchor x="711" y="1094" name="top"/>
  <outline>
    <contour>
      <point x="413" y="236" type="line"/>
      <point x="301" y="-330" type="line"/>
      <point x="633" y="-330" type="line"/>
      <point x="745" y="236" type="line"/>
    </contour>
    <contour>
      <point x="649" y="1428" type="line"/>
      <point x="555" y="958" type="line"/>
      <point x="887" y="958" type="line"/>
      <point x="981" y="1428" type="line"/>
    </contour>
    <contour>
      <point x="577" y="-16" type="curve" smooth="yes"/>
      <point x="827" y="-16"/>
      <point x="1031" y="96"/>
      <point x="1129" y="290" type="curve"/>
      <point x="783" y="458" type="line"/>
      <point x="751" y="376"/>
      <point x="701" y="340"/>
      <point x="637" y="340" type="curve" smooth="yes"/>
      <point x="557" y="340"/>
      <point x="511" y="408"/>
      <point x="511" y="514" type="curve" smooth="yes"/>
      <point x="511" y="652"/>
      <point x="579" y="746"/>
      <point x="677" y="746" type="curve" smooth="yes"/>
      <point x="741" y="746"/>
      <point x="785" y="708"/>
      <point x="807" y="642" type="curve"/>
      <point x="1179" y="794" type="line"/>
      <point x="1109" y="994"/>
      <point x="931" y="1110"/>
      <point x="693" y="1110" type="curve" smooth="yes"/>
      <point x="315" y="1110"/>
      <point x="55" y="858"/>
      <point x="55" y="484" type="curve" smooth="yes"/>
      <point x="55" y="180"/>
      <point x="255" y="-16"/>
    </contour>
  </outline>
</glyph>
<glyph name="sterling" format="2">
  <advance width="544"/>
  <unicode hex="00A3"/>
  <outline>
    <contour>
      <point x="427" y="711" type="curve" smooth="yes"/>
      <point x="261" y="711"/>
      <point x="148" y="621"/>
      <point x="117" y="464" type="curve" smooth="yes"/>
      <point x="39" y="74" type="line"/>
      <point x="160" y="173" type="line"/>
      <point x="-11" y="173" type="line"/>
      <point x="-46" y="0" type="line"/>
      <point x="495" y="0" type="line"/>
      <point x="530" y="173" type="line"/>
      <point x="191" y="173" type="line"/>
      <point x="272" y="74" type="line"/>
      <point x="349" y="459" type="line" smooth="yes"/>
      <point x="357" y="499"/>
      <point x="379" y="518"/>
      <point x="414" y="518" type="curve" smooth="yes"/>
      <point x="448" y="518"/>
      <point x="483" y="498"/>
      <point x="518" y="459" type="curve"/>
      <point x="636" y="629" type="line"/>
      <point x="588" y="682"/>
      <point x="512" y="711"/>
    </contour>
    <contour>
      <point x="15" y="303" type="line"/>
      <point x="477" y="303" type="line"/>
      <point x="491" y="373" type="line"/>
      <point x="29" y="373" type="line"/>
    </contour>
  </outline>
</glyph>
<glyph name="currency" format="2">
  <advance width="1386"/>
  <unicode hex="00A4"/>
  <outline>
    <contour>
      <point x="710" y="1154" type="curve" smooth="yes"/>
      <point x="430" y="1154"/>
      <point x="202" y="926"/>
      <point x="202" y="646" type="curve" smooth="yes"/>
      <point x="202" y="366"/>
      <point x="430" y="138"/>
      <point x="710" y="138" type="curve" smooth="yes"/>
      <point x="990" y="138"/>
      <point x="1218" y="366"/>
      <point x="1218" y="646" type="curve" smooth="yes"/>
      <point x="1218" y="926"/>
      <point x="992" y="1154"/>
    </contour>
    <contour>
      <point x="48" y="222" type="line"/>
      <point x="298" y="-28" type="line"/>
      <point x="512" y="186" type="line"/>
      <point x="262" y="436" type="line"/>
    </contour>
    <contour>
      <point x="910" y="186" type="line"/>
      <point x="1124" y="-28" type="line"/>
      <point x="1374" y="222" type="line"/>
      <point x="1160" y="436" type="line"/>
    </contour>
    <contour>
      <point x="48" y="1048" type="line"/>
      <point x="262" y="834" type="line"/>
      <point x="512" y="1084" type="line"/>
      <point x="298" y="1298" type="line"/>
    </contour>
    <contour>
      <point x="710" y="806" type="curve" smooth="yes"/>
      <point x="798" y="806"/>
      <point x="870" y="734"/>
      <point x="870" y="646" type="curve" smooth="yes"/>
      <point x="870" y="558"/>
      <point x="798" y="488"/>
      <point x="710" y="488" type="curve" smooth="yes"/>
      <point x="622" y="488"/>
      <point x="552" y="558"/>
      <point x="552" y="646" type="curve" smooth="yes"/>
      <point x="552" y="734"/>
      <point x="622" y="806"/>
    </contour>
    <contour>
      <point x="910" y="1084" type="line"/>
      <point x="1160" y="834" type="line"/>
      <point x="1374" y="1048" type="line"/>
      <point x="1124" y="1298" type="line"/>
    </contour>
  </outline>
</glyph>
<glyph name="yen" format="2">
  <advance width="1476"/>
  <unicode hex="00A5"/>
  <outline>
    <contour>
      <point x="1204" y="1400" type="line"/>
      <point x="734" y="694" type="line"/>
      <point x="912" y="672" type="line"/>
      <point x="652" y="1400" type="line"/>
      <point x="190" y="1400" type="line"/>
      <point x="680" y="40" type="line"/>
      <point x="736" y="40" type="line"/>
      <point x="1666" y="1400" type="line"/>
    </contour>
    <contour>
      <point x="576" y="634" type="line"/>
      <point x="472" y="0" type="line"/>
      <point x="934" y="0" type="line"/>
      <point x="1038" y="634" type="line"/>
    </contour>
    <contour>
      <point x="198" y="550" type="line"/>
      <point x="1382" y="550" type="line"/>
      <point x="1410" y="690" type="line"/>
      <point x="226" y="690" type="line"/>
    </contour>
    <contour>
      <point x="154" y="320" type="line"/>
      <point x="1338" y="320" type="line"/>
      <point x="1366" y="460" type="line"/>
      <point x="182" y="460" type="line"/>
    </contour>
  </outline>
</glyph>
<glyph name="brokenbar" format="2">
  <advance width="305"/>
  <unicode hex="00A6"/>
  <outline>
    <contour>
      <point x="62" y="236" type="line"/>
      <point x="-6" y="-103" type="line"/>
      <point x="160" y="-103" type="line"/>
      <point x="228" y="236" type="line"/>
    </contour>
    <contour>
      <point x="174" y="796" type="line"/>
      <point x="106" y="457" type="line"/>
      <point x="272" y="457" type="line"/>
      <point x="340" y="796" type="line"/>
    </contour>
  </outline>
</glyph>
<glyph name="section" format="2">
  <advance width="573"/>
  <unicode hex="00A7"/>
  <outline>
    <contour>
      <point x="243" y="-86" type="curve" smooth="yes"/>
      <point x="372" y="-86"/>
      <point x="477" y="-15"/>
      <point x="477" y="72" type="curve" smooth="yes"/>
      <point x="477" y="100"/>
      <point x="467" y="128"/>
      <point x="447" y="154" type="curve"/>
      <point x="526" y="185"/>
      <point x="568" y="238"/>
      <point x="568" y="306" type="curve" smooth="yes"/>
      <point x="568" y="454"/>
      <point x="315" y="479"/>
      <point x="315" y="526" type="curve" smooth="yes"/>
      <point x="315" y="536"/>
      <point x="324" y="541"/>
      <point x="340" y="541" type="curve" smooth="yes"/>
      <point x="382" y="541"/>
      <point x="452" y="511"/>
      <point x="523" y="463" type="curve"/>
      <point x="617" y="593" type="line"/>
      <point x="530" y="655"/>
      <point x="432" y="688"/>
      <point x="335" y="688" type="curve" smooth="yes"/>
      <point x="209" y="688"/>
      <point x="108" y="617"/>
      <point x="108" y="527" type="curve" smooth="yes"/>
      <point x="108" y="499"/>
      <point x="118" y="472"/>
      <point x="137" y="446" type="curve"/>
      <point x="58" y="416"/>
      <point x="17" y="363"/>
      <point x="17" y="293" type="curve" smooth="yes"/>
      <point x="17" y="146"/>
      <point x="264" y="121"/>
      <point x="264" y="78" type="curve" smooth="yes"/>
      <point x="264" y="68"/>
      <point x="256" y="64"/>
      <point x="238" y="64" type="curve" smooth="yes"/>
      <point x="185" y="64"/>
      <point x="111" y="96"/>
      <point x="38" y="151" type="curve"/>
      <point x="-50" y="19" type="line"/>
      <point x="27" y="-47"/>
      <point x="136" y="-86"/>
    </contour>
    <contour>
      <point x="314" y="274" type="curve" smooth="yes"/>
      <point x="270" y="274"/>
      <point x="225" y="293"/>
      <point x="225" y="311" type="curve" smooth="yes"/>
      <point x="225" y="324"/>
      <point x="238" y="331"/>
      <point x="262" y="331" type="curve" smooth="yes"/>
      <point x="309" y="331"/>
      <point x="354" y="312"/>
      <point x="354" y="292" type="curve" smooth="yes"/>
      <point x="354" y="280"/>
      <point x="340" y="274"/>
    </contour>
  </outline>
</glyph>
<glyph name="copyright" format="2">
  <advance width="698"/>
  <unicode hex="00A9"/>
  <outline>
    <contour>
      <point x="365" y="689" type="curve" smooth="yes"/>
      <point x="174" y="689"/>
      <point x="26" y="533"/>
      <point x="26" y="348" type="curve" smooth="yes"/>
      <point x="26" y="163"/>
      <point x="173" y="9"/>
      <point x="363" y="9" type="curve" smooth="yes"/>
      <point x="554" y="9"/>
      <point x="703" y="165"/>
      <point x="703" y="350" type="curve" smooth="yes"/>
      <point x="703" y="536"/>
      <point x="555" y="689"/>
    </contour>
    <contour>
      <point x="365" y="589" type="curve" smooth="yes"/>
      <point x="499" y="589"/>
      <point x="603" y="481"/>
      <point x="603" y="350" type="curve" smooth="yes"/>
      <point x="603" y="219"/>
      <point x="499" y="109"/>
      <point x="363" y="109" type="curve" smooth="yes"/>
      <point x="229" y="109"/>
      <point x="126" y="217"/>
      <point x="126" y="348" type="curve" smooth="yes"/>
      <point x="126" y="479"/>
      <point x="230" y="589"/>
    </contour>
    <contour>
      <point x="372" y="510" type="curve" smooth="yes"/>
      <point x="273" y="510"/>
      <point x="201" y="442"/>
      <point x="201" y="349" type="curve" smooth="yes"/>
      <point x="201" y="255"/>
      <point x="271" y="187"/>
      <point x="368" y="187" type="curve" smooth="yes"/>
      <point x="417" y="187"/>
      <point x="470" y="211"/>
      <point x="505" y="250" type="curve"/>
      <point x="445" y="314" type="line"/>
      <point x="424" y="292"/>
      <point x="396" y="278"/>
      <point x="374" y="278" type="curve" smooth="yes"/>
      <point x="336" y="278"/>
      <point x="308" y="308"/>
      <point x="308" y="351" type="curve" smooth="yes"/>
      <point x="308" y="393"/>
      <point x="336" y="423"/>
      <point x="374" y="423" type="curve" smooth="yes"/>
      <point x="398" y="423"/>
      <point x="426" y="406"/>
      <point x="445" y="380" type="curve"/>
      <point x="505" y="452" type="line"/>
      <point x="473" y="487"/>
      <point x="420" y="510"/>
    </contour>
  </outline>
</glyph>
<glyph name="ordfeminine" format="2">
  <advance width="379"/>
  <unicode hex="00AA"/>
  <outline>
    <contour>
      <point x="283" y="794" type="curve"/>
      <point x="239" y="794"/>
      <point x="181" y="783"/>
      <point x="122" y="764" type="curve"/>
      <point x="136" y="667" type="line"/>
      <point x="175" y="679"/>
      <point x="212" y="686"/>
      <point x="235" y="686" type="curve"/>
      <point x="276" y="686"/>
      <point x="294" y="675"/>
      <point x="289" y="653" type="curve" smooth="yes"/>
      <point x="250" y="458" type="line"/>
      <point x="399" y="458" type="line"/>
      <point x="442" y="671" type="line" smooth="yes"/>
      <point x="458" y="750"/>
      <point x="401" y="794"/>
    </contour>
    <contour>
      <point x="303" y="658" type="line"/>
      <point x="213" y="658" type="line"/>
      <point x="120" y="657"/>
      <point x="70" y="627"/>
      <point x="58" y="564" type="curve"/>
      <point x="42" y="497"/>
      <point x="89" y="451"/>
      <point x="173" y="451" type="curve"/>
      <point x="218" y="451"/>
      <point x="256" y="478"/>
      <point x="280" y="526" type="curve"/>
      <point x="272" y="564" type="line"/>
      <point x="258" y="551"/>
      <point x="241" y="544"/>
      <point x="225" y="544" type="curve"/>
      <point x="207" y="544"/>
      <point x="199" y="553"/>
      <point x="202" y="568" type="curve"/>
      <point x="205" y="583"/>
      <point x="216" y="591"/>
      <point x="232" y="591" type="curve"/>
      <point x="290" y="591" type="line"/>
    </contour>
  </outline>
</glyph>
<glyph name="logicalnot" format="2">
  <advance width="1190"/>
  <unicode hex="00AC"/>
  <outline>
    <contour>
      <point x="130" y="898" type="line"/>
      <point x="74" y="618" type="line"/>
      <point x="1094" y="618" type="line"/>
      <point x="1150" y="898" type="line"/>
    </contour>
    <contour>
      <point x="1150" y="898" type="line"/>
      <point x="830" y="898" type="line"/>
      <point x="702" y="258" type="line"/>
      <point x="1022" y="258" type="line"/>
    </contour>
  </outline>
</glyph>
<glyph name="registered" format="2">
  <advance width="698"/>
  <unicode hex="00AE"/>
  <outline>
    <contour>
      <point x="365" y="689" type="curve" smooth="yes"/>
      <point x="174" y="689"/>
      <point x="26" y="533"/>
      <point x="26" y="348" type="curve" smooth="yes"/>
      <point x="26" y="163"/>
      <point x="173" y="9"/>
      <point x="363" y="9" type="curve" smooth="yes"/>
      <point x="554" y="9"/>
      <point x="703" y="165"/>
      <point x="703" y="350" type="curve" smooth="yes"/>
      <point x="703" y="536"/>
      <point x="555" y="689"/>
    </contour>
    <contour>
      <point x="351" y="325" type="line"/>
      <point x="404" y="211" type="line"/>
      <point x="517" y="211" type="line"/>
      <point x="447" y="325" type="line"/>
    </contour>
    <contour>
      <point x="365" y="589" type="curve" smooth="yes"/>
      <point x="499" y="589"/>
      <point x="603" y="481"/>
      <point x="603" y="350" type="curve" smooth="yes"/>
      <point x="603" y="219"/>
      <point x="499" y="109"/>
      <point x="363" y="109" type="curve" smooth="yes"/>
      <point x="229" y="109"/>
      <point x="126" y="217"/>
      <point x="126" y="348" type="curve" smooth="yes"/>
      <point x="126" y="479"/>
      <point x="230" y="589"/>
    </contour>
    <contour>
      <point x="235" y="512" type="line"/>
      <point x="235" y="211" type="line"/>
      <point x="335" y="211" type="line"/>
      <point x="335" y="289" type="line"/>
      <point x="376" y="289" type="line" smooth="yes"/>
      <point x="458" y="289"/>
      <point x="505" y="331"/>
      <point x="505" y="405" type="curve" smooth="yes"/>
      <point x="505" y="473"/>
      <point x="458" y="512"/>
      <point x="376" y="512" type="curve" smooth="yes"/>
    </contour>
    <contour>
      <point x="376" y="437" type="line" smooth="yes"/>
      <point x="398" y="437"/>
      <point x="410" y="424"/>
      <point x="410" y="401" type="curve" smooth="yes"/>
      <point x="410" y="378"/>
      <point x="398" y="365"/>
      <point x="376" y="365" type="curve" smooth="yes"/>
      <point x="335" y="365" type="line"/>
      <point x="335" y="437" type="line"/>
    </contour>
  </outline>
</glyph>
<glyph name="degree" format="2">
  <advance width="383"/>
  <unicode hex="00B0"/>
  <outline>
    <contour>
      <point x="284" y="824" type="curve" smooth="yes"/>
      <point x="217" y="824"/>
      <point x="163" y="770"/>
      <point x="163" y="703" type="curve" smooth="yes"/>
      <point x="163" y="636"/>
      <point x="217" y="582"/>
      <point x="284" y="582" type="curve" smooth="yes"/>
      <point x="351" y="582"/>
      <point x="405" y="636"/>
      <point x="405" y="703" type="curve" smooth="yes"/>
      <point x="405" y="770"/>
      <point x="351" y="824"/>
    </contour>
    <contour>
      <point x="284" y="741" type="curve" smooth="yes"/>
      <point x="305" y="741"/>
      <point x="322" y="724"/>
      <point x="322" y="703" type="curve" smooth="yes"/>
      <point x="322" y="682"/>
      <point x="305" y="665"/>
      <point x="284" y="665" type="curve" smooth="yes"/>
      <point x="263" y="665"/>
      <point x="246" y="682"/>
      <point x="246" y="703" type="curve" smooth="yes"/>
      <point x="246" y="724"/>
      <point x="263" y="741"/>
    </contour>
  </outline>
</glyph>
<glyph name="micro" format="2">
  <advance width="684"/>
  <unicode hex="00B5"/>
  <outline>
    <contour>
      <point x="212" y="-8" type="curve" smooth="yes"/>
      <point x="275" y="-8"/>
      <point x="330" y="19"/>
      <point x="373" y="68" type="curve"/>
      <point x="360" y="0" type="line"/>
      <point x="585" y="0" type="line"/>
      <point x="693" y="547" type="line"/>
      <point x="468" y="547" type="line"/>
      <point x="415" y="280" type="line" smooth="yes"/>
      <point x="404" y="222"/>
      <point x="363" y="180"/>
      <point x="320" y="180" type="curve" smooth="yes"/>
      <point x="282" y="180"/>
      <point x="262" y="210"/>
      <point x="271" y="256" type="curve" smooth="yes"/>
      <point x="329" y="547" type="line"/>
      <point x="104" y="547" type="line"/>
      <point x="39" y="222" type="line" smooth="yes"/>
      <point x="13" y="93"/>
      <point x="89" y="-8"/>
    </contour>
    <contour>
      <point x="181" y="-194" type="line"/>
      <point x="329" y="547" type="line"/>
      <point x="104" y="547" type="line"/>
      <point x="-44" y="-194" type="line"/>
    </contour>
  </outline>
</glyph>
<glyph name="uni00B5" format="2">
  <advance width="1384"/>
  <unicode hex="00B5"/>
  <outline>
    <contour>
      <point x="432" y="-16" type="curve" smooth="yes"/>
      <point x="558" y="-16"/>
      <point x="668" y="38"/>
      <point x="754" y="136" type="curve"/>
      <point x="728" y="0" type="line"/>
      <point x="1178" y="0" type="line"/>
      <point x="1394" y="1094" type="line"/>
      <point x="944" y="1094" type="line"/>
      <point x="838" y="560" type="line" smooth="yes"/>
      <point x="816" y="444"/>
      <point x="734" y="360"/>
      <point x="648" y="360" type="curve" smooth="yes"/>
      <point x="572" y="360"/>
      <point x="532" y="420"/>
      <point x="550" y="512" type="curve" smooth="yes"/>
      <point x="666" y="1094" type="line"/>
      <point x="216" y="1094" type="line"/>
      <point x="86" y="444" type="line" smooth="yes"/>
      <point x="34" y="186"/>
      <point x="186" y="-16"/>
    </contour>
    <contour>
      <point x="370" y="-388" type="line"/>
      <point x="666" y="1094" type="line"/>
      <point x="216" y="1094" type="line"/>
      <point x="-80" y="-388" type="line"/>
    </contour>
  </outline>
</glyph>
<glyph name="paragraph" format="2">
  <advance width="660"/>
  <unicode hex="00B6"/>
  <outline>
    <contour>
      <point x="332" y="742" type="line" smooth="yes"/>
      <point x="144" y="742"/>
      <point x="50" y="629"/>
      <point x="27" y="513" type="curve" smooth="yes"/>
      <point x="10" y="427"/>
      <point x="27" y="293"/>
      <point x="199" y="293" type="curve" smooth="yes"/>
      <point x="206" y="293"/>
      <point x="214" y="293"/>
      <point x="221" y="293" type="curve"/>
      <point x="141" y="-105" type="line"/>
      <point x="307" y="-105" type="line"/>
      <point x="452" y="618" type="line"/>
      <point x="524" y="618" type="line"/>
      <point x="379" y="-105" type="line"/>
      <point x="545" y="-105" type="line"/>
      <point x="715" y="742" type="line"/>
    </contour>
  </outline>
</glyph>
<glyph name="periodcentered" format="2">
  <advance width="484"/>
  <unicode hex="00B7"/>
  <anchor x="300" y="584" name="_center"/>
  <anchor x="190" y="276" name="_top"/>
  <anchor x="328" y="726" name="top"/>
  <outline>
    <contour>
      <point x="287" y="816" type="curve" smooth="yes"/>
      <point x="133" y="816"/>
      <point x="9" y="700"/>
      <point x="9" y="546" type="curve" smooth="yes"/>
      <point x="9" y="436"/>
      <point x="81" y="360"/>
      <point x="197" y="360" type="curve" smooth="yes"/>
      <point x="351" y="360"/>
      <point x="475" y="476"/>
      <point x="475" y="630" type="curve" smooth="yes"/>
      <point x="475" y="740"/>
      <point x="403" y="816"/>
    </contour>
  </outline>
</glyph>
<glyph name="ordmasculine" format="2">
  <advance width="401"/>
  <unicode hex="00BA"/>
  <outline>
    <contour>
      <point x="287" y="793" type="curve" smooth="yes"/>
      <point x="159" y="793"/>
      <point x="72" y="720"/>
      <point x="72" y="607" type="curve" smooth="yes"/>
      <point x="72" y="514"/>
      <point x="141" y="453"/>
      <point x="253" y="453" type="curve" smooth="yes"/>
      <point x="382" y="453"/>
      <point x="469" y="527"/>
      <point x="469" y="639" type="curve" smooth="yes"/>
      <point x="469" y="733"/>
      <point x="400" y="793"/>
    </contour>
    <contour>
      <point x="275" y="678" type="curve" smooth="yes"/>
      <point x="300" y="678"/>
      <point x="314" y="659"/>
      <point x="314" y="629" type="curve" smooth="yes"/>
      <point x="314" y="591"/>
      <point x="294" y="565"/>
      <point x="264" y="565" type="curve" smooth="yes"/>
      <point x="240" y="565"/>
      <point x="225" y="584"/>
      <point x="225" y="613" type="curve" smooth="yes"/>
      <point x="225" y="652"/>
      <point x="246" y="678"/>
    </contour>
  </outline>
</glyph>
<glyph name="questiondown" format="2">
  <advance width="1212"/>
  <unicode hex="00BF"/>
  <outline>
    <contour>
      <point x="420" y="522" type="line"/>
      <point x="421" y="515"/>
      <point x="422" y="505"/>
      <point x="422" y="500" type="curve" smooth="yes"/>
      <point x="422" y="368"/>
      <point x="-8" y="388"/>
      <point x="-8" y="1" type="curve" smooth="yes"/>
      <point x="-8" y="-287"/>
      <point x="353" y="-368"/>
      <point x="580" y="-368" type="curve" smooth="yes"/>
      <point x="810" y="-368"/>
      <point x="1019" y="-286"/>
      <point x="1162" y="-101" type="curve"/>
      <point x="841" y="110" type="line"/>
      <point x="791" y="43"/>
      <point x="711" y="-6"/>
      <point x="625" y="-6" type="curve" smooth="yes"/>
      <point x="571" y="-6"/>
      <point x="487" y="17"/>
      <point x="487" y="85" type="curve" smooth="yes"/>
      <point x="487" y="253"/>
      <point x="836" y="227"/>
      <point x="836" y="488" type="curve" smooth="yes"/>
      <point x="836" y="505"/>
      <point x="834" y="522"/>
      <point x="832" y="538" type="curve"/>
    </contour>
    <contour>
      <point x="658" y="1084" type="curve" smooth="yes"/>
      <point x="512" y="1084"/>
      <point x="373" y="978"/>
      <point x="373" y="824" type="curve" smooth="yes"/>
      <point x="373" y="680"/>
      <point x="501" y="608"/>
      <point x="632" y="608" type="curve" smooth="yes"/>
      <point x="777" y="608"/>
      <point x="912" y="710"/>
      <point x="912" y="864" type="curve" smooth="yes"/>
      <point x="912" y="1004"/>
      <point x="788" y="1084"/>
    </contour>
  </outline>
</glyph>
<glyph name="AE" format="2">
  <advance width="2290"/>
  <unicode hex="00C6"/>
  <anchor x="1507" y="0" name="bottom"/>
  <anchor x="2095" y="20" name="ogonek"/>
  <anchor x="1487" y="1400" name="top"/>
  <outline>
    <contour>
      <point x="925" y="1400" type="line"/>
      <point x="-133" y="0" type="line"/>
      <point x="353" y="0" type="line"/>
      <point x="1081" y="1048" type="line"/>
      <point x="1669" y="1048" type="line"/>
      <point x="1723" y="1400" type="line"/>
    </contour>
    <contour>
      <point x="459" y="576" type="line"/>
      <point x="381" y="244" type="line"/>
      <point x="1185" y="244" type="line"/>
      <point x="1263" y="576" type="line"/>
    </contour>
    <contour>
      <point x="1185" y="1400" type="line"/>
      <point x="905" y="0" type="line"/>
      <point x="2107" y="0" type="line"/>
      <point x="2177" y="352" type="line"/>
      <point x="1439" y="352" type="line"/>
      <point x="1475" y="526" type="line"/>
      <point x="2129" y="526" type="line"/>
      <point x="2199" y="876" type="line"/>
      <point x="1545" y="876" type="line"/>
      <point x="1579" y="1048" type="line"/>
      <point x="2299" y="1048" type="line"/>
      <point x="2369" y="1400" type="line"/>
    </contour>
  </outline>
</glyph>
<glyph name="Ccedilla" format="2">
  <advance width="1374"/>
  <unicode hex="00C7"/>
  <anchor x="558" y="-530" name="bottom"/>
  <anchor x="874" y="1400" name="top"/>
  <outline>
    <contour>
      <point x="876" y="1430" type="curve" smooth="yes"/>
      <point x="408" y="1430"/>
      <point x="40" y="1092"/>
      <point x="40" y="634" type="curve" smooth="yes"/>
      <point x="40" y="294"/>
      <point x="250" y="37"/>
      <point x="573" y="-20" type="curve"/>
      <point x="508" y="-146" type="line"/>
      <point x="548" y="-146" type="line" smooth="yes"/>
      <point x="604" y="-146"/>
      <point x="656" y="-162"/>
      <point x="656" y="-192" type="curve" smooth="yes"/>
      <point x="656" y="-222"/>
      <point x="614" y="-242"/>
      <point x="562" y="-242" type="curve" smooth="yes"/>
      <point x="530" y="-242"/>
      <point x="498" y="-236"/>
      <point x="468" y="-224" type="curve"/>
      <point x="370" y="-410" type="line"/>
      <point x="440" y="-436"/>
      <point x="522" y="-452"/>
      <point x="604" y="-452" type="curve" smooth="yes"/>
      <point x="764" y="-452"/>
      <point x="924" y="-386"/>
      <point x="924" y="-222" type="curve" smooth="yes"/>
      <point x="924" y="-158"/>
      <point x="884" y="-100"/>
      <point x="782" y="-72" type="curve"/>
      <point x="809" y="-25" type="line"/>
      <point x="999" y="3"/>
      <point x="1202" y="106"/>
      <point x="1348" y="252" type="curve"/>
      <point x="1110" y="538" type="line"/>
      <point x="1008" y="438"/>
      <point x="874" y="374"/>
      <point x="774" y="374" type="curve" smooth="yes"/>
      <point x="622" y="374"/>
      <point x="518" y="502"/>
      <point x="518" y="674" type="curve" smooth="yes"/>
      <point x="518" y="886"/>
      <point x="662" y="1044"/>
      <point x="842" y="1044" type="curve" smooth="yes"/>
      <point x="950" y="1044"/>
      <point x="1068" y="968"/>
      <point x="1140" y="852" type="curve"/>
      <point x="1442" y="1170" type="line"/>
      <point x="1312" y="1328"/>
      <point x="1090" y="1430"/>
    </contour>
  </outline>
</glyph>
<glyph name="multiply" format="2">
  <advance width="543"/>
  <unicode hex="00D7"/>
  <outline>
    <contour>
      <point x="170" y="541" type="line"/>
      <point x="71" y="442" type="line"/>
      <point x="396" y="117" type="line"/>
      <point x="495" y="216" type="line"/>
    </contour>
    <contour>
      <point x="396" y="541" type="line"/>
      <point x="71" y="216" type="line"/>
      <point x="170" y="117" type="line"/>
      <point x="495" y="442" type="line"/>
    </contour>
  </outline>
</glyph>
<glyph name="Oslash" format="2">
  <advance width="796"/>
  <unicode hex="00D8"/>
  <anchor x="383" y="0" name="bottom"/>
  <anchor x="414" y="351" name="center"/>
  <anchor x="626" y="0" name="ogonek"/>
  <anchor x="486" y="700" name="top"/>
  <anchor x="103" y="700" name="topleft"/>
  <anchor x="607" y="700" name="topright"/>
  <outline>
    <contour>
      <point x="49" y="-55" type="line"/>
      <point x="176" y="-55" type="line"/>
      <point x="790" y="754" type="line"/>
      <point x="663" y="754" type="line"/>
    </contour>
    <contour>
      <point x="451" y="715" type="curve" smooth="yes"/>
      <point x="214" y="715"/>
      <point x="28" y="547"/>
      <point x="28" y="317" type="curve" smooth="yes"/>
      <point x="28" y="124"/>
      <point x="169" y="-16"/>
      <point x="377" y="-16" type="curve" smooth="yes"/>
      <point x="615" y="-16"/>
      <point x="801" y="156"/>
      <point x="801" y="384" type="curve" smooth="yes"/>
      <point x="801" y="577"/>
      <point x="659" y="715"/>
    </contour>
    <contour>
      <point x="434" y="522" type="curve" smooth="yes"/>
      <point x="508" y="522"/>
      <point x="562" y="457"/>
      <point x="562" y="368" type="curve" smooth="yes"/>
      <point x="562" y="260"/>
      <point x="486" y="177"/>
      <point x="399" y="177" type="curve" smooth="yes"/>
      <point x="326" y="177"/>
      <point x="267" y="244"/>
      <point x="267" y="333" type="curve" smooth="yes"/>
      <point x="267" y="441"/>
      <point x="348" y="522"/>
    </contour>
  </outline>
</glyph>
<glyph name="Thorn" format="2">
  <advance width="700"/>
  <unicode hex="00DE"/>
  <outline>
    <contour>
      <point x="301" y="614" type="line"/>
      <point x="298" y="438" type="line"/>
      <point x="399" y="438" type="line" smooth="yes"/>
      <point x="433" y="438"/>
      <point x="453" y="414"/>
      <point x="453" y="377" type="curve" smooth="yes"/>
      <point x="453" y="320"/>
      <point x="416" y="278"/>
      <point x="367" y="278" type="curve" smooth="yes"/>
      <point x="266" y="278" type="line"/>
      <point x="230" y="102" type="line"/>
      <point x="341" y="102" type="line" smooth="yes"/>
      <point x="548" y="102"/>
      <point x="696" y="231"/>
      <point x="696" y="409" type="curve" smooth="yes"/>
      <point x="696" y="534"/>
      <point x="602" y="614"/>
      <point x="444" y="614" type="curve" smooth="yes"/>
    </contour>
    <contour>
      <point x="130" y="700" type="line"/>
      <point x="-10" y="0" type="line"/>
      <point x="222" y="0" type="line"/>
      <point x="361" y="700" type="line"/>
    </contour>
  </outline>
</glyph>
<glyph name="germandbls" format="2">
  <advance width="1340"/>
  <unicode hex="00DF"/>
  <outline>
    <contour>
      <point x="816" y="1504" type="curve" smooth="yes"/>
      <point x="476" y="1504"/>
      <point x="226" y="1308"/>
      <point x="164" y="992" type="curve" smooth="yes"/>
      <point x="-34" y="0" type="line"/>
      <point x="416" y="0" type="line"/>
      <point x="622" y="1026" type="line" smooth="yes"/>
      <point x="642" y="1126"/>
      <point x="690" y="1170"/>
      <point x="778" y="1170" type="curve" smooth="yes"/>
      <point x="842" y="1170"/>
      <point x="874" y="1138"/>
      <point x="874" y="1072" type="curve" smooth="yes"/>
      <point x="874" y="940"/>
      <point x="816" y="882"/>
      <point x="686" y="882" type="curve"/>
      <point x="624" y="568" type="line"/>
      <point x="670" y="568" type="line" smooth="yes"/>
      <point x="786" y="568"/>
      <point x="842" y="536"/>
      <point x="842" y="470" type="curve" smooth="yes"/>
      <point x="842" y="364"/>
      <point x="772" y="316"/>
      <point x="620" y="316" type="curve" smooth="yes"/>
      <point x="574" y="316" type="line"/>
      <point x="510" y="0" type="line"/>
      <point x="604" y="0" type="line" smooth="yes"/>
      <point x="1000" y="0"/>
      <point x="1280" y="194"/>
      <point x="1280" y="470" type="curve" smooth="yes"/>
      <point x="1280" y="608"/>
      <point x="1210" y="724"/>
      <point x="1096" y="770" type="curve"/>
      <point x="1236" y="860"/>
      <point x="1324" y="1002"/>
      <point x="1324" y="1136" type="curve" smooth="yes"/>
      <point x="1324" y="1358"/>
      <point x="1122" y="1504"/>
    </contour>
  </outline>
</glyph>
<glyph name="ae" format="2">
  <advance width="1916"/>
  <unicode hex="00E6"/>
  <anchor x="1035" y="1094" name="top"/>
  <outline>
    <contour>
      <point x="391" y="-22" type="curve" smooth="yes"/>
      <point x="589" y="-22"/>
      <point x="739" y="48"/>
      <point x="835" y="186" type="curve"/>
      <point x="911" y="64"/>
      <point x="1053" y="-16"/>
      <point x="1263" y="-16" type="curve" smooth="yes"/>
      <point x="1471" y="-16"/>
      <point x="1643" y="50"/>
      <point x="1771" y="178" type="curve"/>
      <point x="1547" y="420" type="line"/>
      <point x="1477" y="356"/>
      <point x="1393" y="316"/>
      <point x="1309" y="316" type="curve" smooth="yes"/>
      <point x="1231" y="316"/>
      <point x="1151" y="346"/>
      <point x="1151" y="426" type="curve" smooth="yes"/>
      <point x="1151" y="448" type="line"/>
      <point x="1863" y="448" type="line"/>
      <point x="1923" y="846"/>
      <point x="1717" y="1110"/>
      <point x="1327" y="1110" type="curve" smooth="yes"/>
      <point x="1211" y="1110"/>
      <point x="1107" y="1084"/>
      <point x="1015" y="1024" type="curve"/>
      <point x="939" y="1080"/>
      <point x="823" y="1114"/>
      <point x="671" y="1114" type="curve" smooth="yes"/>
      <point x="515" y="1114"/>
      <point x="319" y="1078"/>
      <point x="125" y="1010" type="curve"/>
      <point x="213" y="706" type="line"/>
      <point x="339" y="752"/>
      <point x="469" y="778"/>
      <point x="559" y="778" type="curve" smooth="yes"/>
      <point x="655" y="778"/>
      <point x="709" y="748"/>
      <point x="709" y="684" type="curve" smooth="yes"/>
      <point x="709" y="658" type="line"/>
      <point x="449" y="658" type="line" smooth="yes"/>
      <point x="171" y="658"/>
      <point x="19" y="548"/>
      <point x="1" y="340" type="curve" smooth="yes"/>
      <point x="-19" y="124"/>
      <point x="127" y="-22"/>
    </contour>
    <contour>
      <point x="507" y="266" type="curve" smooth="yes"/>
      <point x="449" y="266"/>
      <point x="419" y="294"/>
      <point x="423" y="346" type="curve" smooth="yes"/>
      <point x="429" y="412"/>
      <point x="475" y="454"/>
      <point x="537" y="448" type="curve"/>
      <point x="691" y="448" type="line"/>
      <point x="679" y="356" type="line"/>
      <point x="635" y="302"/>
      <point x="571" y="266"/>
    </contour>
    <contour>
      <point x="1163" y="658" type="line"/>
      <point x="1187" y="742"/>
      <point x="1243" y="810"/>
      <point x="1327" y="810" type="curve" smooth="yes"/>
      <point x="1401" y="810"/>
      <point x="1447" y="756"/>
      <point x="1433" y="658" type="curve"/>
    </contour>
  </outline>
</glyph>
<glyph name="ccedilla" format="2">
  <advance width="565"/>
  <unicode hex="00E7"/>
  <anchor x="168" y="-265" name="bottom"/>
  <anchor x="348" y="547" name="top"/>
  <outline>
    <contour>
      <point x="143" y="-91" type="line"/>
      <point x="163" y="-91" type="line" smooth="yes"/>
      <point x="191" y="-91"/>
      <point x="217" y="-99"/>
      <point x="217" y="-114" type="curve" smooth="yes"/>
      <point x="217" y="-129"/>
      <point x="196" y="-139"/>
      <point x="170" y="-139" type="curve" smooth="yes"/>
      <point x="154" y="-139"/>
      <point x="138" y="-136"/>
      <point x="123" y="-130" type="curve"/>
      <point x="74" y="-223" type="line"/>
      <point x="109" y="-236"/>
      <point x="150" y="-244"/>
      <point x="191" y="-244" type="curve" smooth="yes"/>
      <point x="271" y="-244"/>
      <point x="351" y="-211"/>
      <point x="351" y="-129" type="curve" smooth="yes"/>
      <point x="351" y="-97"/>
      <point x="331" y="-68"/>
      <point x="280" y="-54" type="curve"/>
      <point x="307" y="-6" type="line"/>
      <point x="415" y="4"/>
      <point x="503" y="58"/>
      <point x="547" y="145" type="curve"/>
      <point x="374" y="229" type="line"/>
      <point x="358" y="188"/>
      <point x="333" y="170"/>
      <point x="301" y="170" type="curve" smooth="yes"/>
      <point x="261" y="170"/>
      <point x="238" y="204"/>
      <point x="238" y="257" type="curve" smooth="yes"/>
      <point x="238" y="326"/>
      <point x="272" y="373"/>
      <point x="321" y="373" type="curve" smooth="yes"/>
      <point x="353" y="373"/>
      <point x="375" y="354"/>
      <point x="386" y="321" type="curve"/>
      <point x="572" y="397" type="line"/>
      <point x="537" y="497"/>
      <point x="448" y="555"/>
      <point x="329" y="555" type="curve" smooth="yes"/>
      <point x="140" y="555"/>
      <point x="10" y="429"/>
      <point x="10" y="242" type="curve" smooth="yes"/>
      <point x="10" y="117"/>
      <point x="77" y="29"/>
      <point x="190" y="1" type="curve"/>
    </contour>
  </outline>
</glyph>
<glyph name="eth" format="2">
  <advance width="607"/>
  <unicode hex="00F0"/>
  <outline>
    <contour>
      <point x="133" y="671" type="line"/>
      <point x="270" y="606"/>
      <point x="372" y="504"/>
      <point x="392" y="408" type="curve"/>
      <point x="360" y="430"/>
      <point x="299" y="450"/>
      <point x="235" y="450" type="curve" smooth="yes"/>
      <point x="91" y="450"/>
      <point x="-4" y="349"/>
      <point x="-4" y="209" type="curve" smooth="yes"/>
      <point x="-4" y="77"/>
      <point x="98" y="-8"/>
      <point x="264" y="-8" type="curve" smooth="yes"/>
      <point x="468" y="-8"/>
      <point x="603" y="137"/>
      <point x="603" y="339" type="curve" smooth="yes"/>
      <point x="603" y="519"/>
      <point x="484" y="678"/>
      <point x="291" y="752" type="curve"/>
    </contour>
    <contour>
      <point x="294" y="301" type="curve" smooth="yes"/>
      <point x="334" y="301"/>
      <point x="353" y="278"/>
      <point x="353" y="251" type="curve" smooth="yes"/>
      <point x="353" y="216"/>
      <point x="321" y="175"/>
      <point x="268" y="175" type="curve" smooth="yes"/>
      <point x="234" y="175"/>
      <point x="212" y="194"/>
      <point x="212" y="223" type="curve" smooth="yes"/>
      <point x="212" y="264"/>
      <point x="244" y="301"/>
    </contour>
    <contour>
      <point x="135" y="476" type="line"/>
      <point x="619" y="677" type="line"/>
      <point x="589" y="752" type="line"/>
      <point x="105" y="549" type="line"/>
    </contour>
  </outline>
</glyph>
<glyph name="divide" format="2">
  <advance width="498"/>
  <unicode hex="00F7"/>
  <outline>
    <component base="dotaccent" xScale="0.8" yScale="0.8" xOffset="110" yOffset="-54"/>
    <component base="dotaccent" xScale="0.8" yScale="0.8" xOffset="38" yOffset="-414"/>
    <contour>
      <point x="44" y="399" type="line"/>
      <point x="16" y="259" type="line"/>
      <point x="476" y="259" type="line"/>
      <point x="504" y="399" type="line"/>
    </contour>
  </outline>
</glyph>
<glyph name="oslash" format="2">
  <advance width="642"/>
  <unicode hex="00F8"/>
  <anchor x="348" y="547" name="top"/>
  <outline>
    <contour>
      <point x="350" y="555" type="curve" smooth="yes"/>
      <point x="148" y="555"/>
      <point x="11" y="432"/>
      <point x="11" y="246" type="curve" smooth="yes"/>
      <point x="11" y="92"/>
      <point x="119" y="-8"/>
      <point x="294" y="-8" type="curve" smooth="yes"/>
      <point x="495" y="-8"/>
      <point x="632" y="116"/>
      <point x="632" y="302" type="curve" smooth="yes"/>
      <point x="632" y="456"/>
      <point x="525" y="555"/>
    </contour>
    <contour>
      <point x="334" y="395" type="curve" smooth="yes"/>
      <point x="386" y="395"/>
      <point x="418" y="353"/>
      <point x="418" y="287" type="curve" smooth="yes"/>
      <point x="418" y="205"/>
      <point x="373" y="147"/>
      <point x="309" y="147" type="curve" smooth="yes"/>
      <point x="257" y="147"/>
      <point x="225" y="189"/>
      <point x="225" y="255" type="curve" smooth="yes"/>
      <point x="225" y="337"/>
      <point x="270" y="395"/>
    </contour>
    <contour>
      <point x="36" y="-80" type="line"/>
      <point x="124" y="-80" type="line"/>
      <point x="616" y="627" type="line"/>
      <point x="528" y="627" type="line"/>
    </contour>
  </outline>
</glyph>
<glyph name="thorn" format="2">
  <advance width="683"/>
  <unicode hex="00FE"/>
  <anchor x="167" y="0" name="bottom"/>
  <anchor x="167" y="742" name="top"/>
  <anchor x="309" y="547" name="topright"/>
  <outline>
    <contour>
      <point x="473" y="555" type="curve" smooth="yes"/>
      <point x="418" y="555"/>
      <point x="366" y="532"/>
      <point x="323" y="493" type="curve"/>
      <point x="373" y="742" type="line"/>
      <point x="148" y="742" type="line"/>
      <point x="-39" y="-194" type="line"/>
      <point x="186" y="-194" type="line"/>
      <point x="239" y="72" type="line"/>
      <point x="270" y="20"/>
      <point x="323" y="-8"/>
      <point x="393" y="-8" type="curve" smooth="yes"/>
      <point x="551" y="-8"/>
      <point x="675" y="135"/>
      <point x="675" y="318" type="curve" smooth="yes"/>
      <point x="675" y="458"/>
      <point x="592" y="555"/>
    </contour>
    <contour>
      <point x="381" y="387" type="curve" smooth="yes"/>
      <point x="423" y="387"/>
      <point x="448" y="356"/>
      <point x="448" y="303" type="curve" smooth="yes"/>
      <point x="448" y="233"/>
      <point x="404" y="176"/>
      <point x="350" y="176" type="curve" smooth="yes"/>
      <point x="307" y="176"/>
      <point x="280" y="208"/>
      <point x="280" y="259" type="curve" smooth="yes"/>
      <point x="280" y="329"/>
      <point x="326" y="387"/>
    </contour>
  </outline>
</glyph>
<glyph name="Dcroat" format="2">
  <advance width="1516"/>
  <unicode hex="0110"/>
  <outline>
    <component base="D"/>
    <contour>
      <point x="12" y="798" type="line"/>
      <point x="-26" y="604" type="line"/>
      <point x="806" y="604" type="line"/>
      <point x="844" y="796" type="line"/>
    </contour>
  </outline>
</glyph>
<glyph name="dcroat" format="2">
  <advance width="1380"/>
  <unicode hex="0111"/>
  <outline>
    <contour>
      <point x="640" y="1134" type="line"/>
      <point x="1510" y="1134" type="line"/>
      <point x="1550" y="1334" type="line"/>
      <point x="680" y="1334" type="line"/>
    </contour>
    <contour>
      <point x="438" y="-16" type="curve" smooth="yes"/>
      <point x="548" y="-16"/>
      <point x="652" y="24"/>
      <point x="736" y="92" type="curve"/>
      <point x="716" y="0" type="line"/>
      <point x="1166" y="0" type="line"/>
      <point x="1460" y="1484" type="line"/>
      <point x="1010" y="1484" type="line"/>
      <point x="890" y="892" type="line"/>
      <point x="826" y="980"/>
      <point x="720" y="1026"/>
      <point x="580" y="1026" type="curve" smooth="yes"/>
      <point x="268" y="1026"/>
      <point x="26" y="764"/>
      <point x="26" y="430" type="curve" smooth="yes"/>
      <point x="26" y="166"/>
      <point x="196" y="-16"/>
    </contour>
    <contour>
      <point x="616" y="320" type="curve" smooth="yes"/>
      <point x="530" y="320"/>
      <point x="480" y="368"/>
      <point x="480" y="454" type="curve" smooth="yes"/>
      <point x="480" y="566"/>
      <point x="566" y="658"/>
      <point x="672" y="658" type="curve" smooth="yes"/>
      <point x="760" y="658"/>
      <point x="814" y="608"/>
      <point x="814" y="526" type="curve" smooth="yes"/>
      <point x="814" y="414"/>
      <point x="724" y="320"/>
    </contour>
  </outline>
</glyph>
<glyph name="Hbar" format="2">
  <advance width="870"/>
  <unicode hex="0126"/>
  <anchor x="380" y="0" name="bottom"/>
  <anchor x="450" y="350" name="center"/>
  <anchor x="520" y="700" name="top"/>
  <anchor x="150" y="700" name="topleft"/>
  <outline>
    <contour>
      <point x="82" y="610" type="line"/>
      <point x="63" y="512" type="line"/>
      <point x="903" y="512" type="line"/>
      <point x="922" y="609" type="line"/>
    </contour>
    <contour>
      <point x="411" y="700" type="line"/>
      <point x="180" y="700" type="line"/>
      <point x="40" y="0" type="line"/>
      <point x="272" y="0" type="line"/>
    </contour>
    <contour>
      <point x="488" y="0" type="line"/>
      <point x="720" y="0" type="line"/>
      <point x="860" y="700" type="line"/>
      <point x="628" y="700" type="line"/>
    </contour>
    <contour>
      <point x="307" y="253" type="line"/>
      <point x="555" y="253" type="line"/>
      <point x="590" y="428" type="line"/>
      <point x="341" y="428" type="line"/>
    </contour>
  </outline>
</glyph>
<glyph name="hbar" format="2">
  <advance width="1374"/>
  <unicode hex="0127"/>
  <outline>
    <contour>
      <point x="120" y="1134" type="line"/>
      <point x="990" y="1134" type="line"/>
      <point x="1030" y="1334" type="line"/>
      <point x="160" y="1334" type="line"/>
    </contour>
    <contour>
      <point x="958" y="1026" type="curve" smooth="yes"/>
      <point x="832" y="1026"/>
      <point x="724" y="978"/>
      <point x="638" y="890" type="curve"/>
      <point x="760" y="1484" type="line"/>
      <point x="310" y="1484" type="line"/>
      <point x="16" y="0" type="line"/>
      <point x="466" y="0" type="line"/>
      <point x="564" y="484" type="line" smooth="yes"/>
      <point x="584" y="580"/>
      <point x="664" y="650"/>
      <point x="750" y="650" type="curve" smooth="yes"/>
      <point x="826" y="650"/>
      <point x="864" y="604"/>
      <point x="850" y="532" type="curve" smooth="yes"/>
      <point x="744" y="0" type="line"/>
      <point x="1194" y="0" type="line"/>
      <point x="1312" y="602" type="line" smooth="yes"/>
      <point x="1358" y="836"/>
      <point x="1204" y="1026"/>
    </contour>
  </outline>
</glyph>
<glyph name="dotlessi" format="2">
  <advance width="324"/>
  <unicode hex="0131"/>
  <anchor x="109" y="0" name="bottom"/>
  <anchor x="161" y="0" name="ogonek"/>
  <anchor x="217" y="547" name="top"/>
  <outline>
    <contour>
      <point x="104" y="547" type="line"/>
      <point x="-5" y="0" type="line"/>
      <point x="220" y="0" type="line"/>
      <point x="329" y="547" type="line"/>
    </contour>
  </outline>
</glyph>
<glyph name="kgreenlandic" format="2">
  <advance width="667"/>
  <unicode hex="0138"/>
  <anchor x="313" y="0" name="bottom"/>
  <anchor x="280" y="10" name="ogonek"/>
  <anchor x="157" y="547" name="top"/>
  <outline>
    <contour>
      <point x="104" y="547" type="line"/>
      <point x="-5" y="0" type="line"/>
      <point x="220" y="0" type="line"/>
      <point x="329" y="547" type="line"/>
    </contour>
    <contour>
      <point x="454" y="547" type="line"/>
      <point x="287" y="394" type="line"/>
      <point x="231" y="111" type="line"/>
      <point x="732" y="547" type="line"/>
    </contour>
    <contour>
      <point x="282" y="224" type="line"/>
      <point x="348" y="0" type="line"/>
      <point x="607" y="0" type="line"/>
      <point x="461" y="360" type="line"/>
    </contour>
  </outline>
</glyph>
<glyph name="Lslash" format="2">
  <advance width="1276"/>
  <unicode hex="0141"/>
  <anchor x="609" y="0" name="bottom"/>
  <anchor x="1047" y="798" name="center"/>
  <anchor x="583" y="1400" name="top"/>
  <anchor x="1023" y="1396" name="topright"/>
  <outline>
    <contour>
      <point x="9" y="428" type="line"/>
      <point x="943" y="858" type="line"/>
      <point x="989" y="1094" type="line"/>
      <point x="55" y="662" type="line"/>
    </contour>
    <contour>
      <point x="365" y="1400" type="line"/>
      <point x="85" y="0" type="line"/>
      <point x="1131" y="0" type="line"/>
      <point x="1209" y="386" type="line"/>
      <point x="425" y="386" type="line"/>
      <point x="587" y="188" type="line"/>
      <point x="827" y="1400" type="line"/>
    </contour>
  </outline>
</glyph>
<glyph name="lslash" format="2">
  <advance width="442"/>
  <unicode hex="0142"/>
  <outline>
    <component base="l" xOffset="53"/>
    <contour>
      <point x="-9" y="214" type="line"/>
      <point x="459" y="430" type="line"/>
      <point x="482" y="548" type="line"/>
      <point x="14" y="332" type="line"/>
    </contour>
  </outline>
</glyph>
<glyph name="Eng" format="2">
  <advance width="770"/>
  <unicode hex="014A"/>
  <anchor x="330" y="0" name="bottom"/>
  <anchor x="470" y="700" name="top"/>
  <outline>
    <contour>
      <point x="471" y="33" type="line"/>
      <point x="462" y="-11"/>
      <point x="440" y="-32"/>
      <point x="400" y="-32" type="curve" smooth="yes"/>
      <point x="377" y="-32"/>
      <point x="346" y="-25"/>
      <point x="310" y="-10" type="curve"/>
      <point x="201" y="-185" type="line"/>
      <point x="246" y="-211"/>
      <point x="298" y="-225"/>
      <point x="361" y="-225" type="curve" smooth="yes"/>
      <point x="514" y="-225"/>
      <point x="632" y="-143"/>
      <point x="670" y="0" type="curve"/>
    </contour>
    <contour>
      <point x="600" y="700" type="line"/>
      <point x="528" y="340" type="line"/>
      <point x="323" y="700" type="line"/>
      <point x="130" y="700" type="line"/>
      <point x="-10" y="0" type="line"/>
      <point x="201" y="0" type="line"/>
      <point x="273" y="357" type="line"/>
      <point x="476" y="0" type="line"/>
      <point x="670" y="0" type="line"/>
      <point x="810" y="700" type="line"/>
    </contour>
  </outline>
</glyph>
<glyph name="eng" format="2">
  <advance width="671"/>
  <unicode hex="014B"/>
  <anchor x="287" y="0" name="bottom"/>
  <anchor x="409" y="547" name="top"/>
  <outline>
    <contour>
      <point x="497" y="557" type="curve" smooth="yes"/>
      <point x="425" y="557"/>
      <point x="362" y="525"/>
      <point x="314" y="469" type="curve"/>
      <point x="329" y="547" type="line"/>
      <point x="104" y="547" type="line"/>
      <point x="-5" y="0" type="line"/>
      <point x="220" y="0" type="line"/>
      <point x="274" y="271" type="line" smooth="yes"/>
      <point x="285" y="324"/>
      <point x="320" y="359"/>
      <point x="364" y="359" type="curve" smooth="yes"/>
      <point x="403" y="359"/>
      <point x="423" y="330"/>
      <point x="414" y="284" type="curve" smooth="yes"/>
      <point x="360" y="17" type="line" smooth="yes"/>
      <point x="354" y="-14"/>
      <point x="335" y="-30"/>
      <point x="307" y="-29" type="curve"/>
      <point x="289" y="-29"/>
      <point x="272" y="-24"/>
      <point x="255" y="-15" type="curve"/>
      <point x="174" y="-169" type="line"/>
      <point x="213" y="-191"/>
      <point x="264" y="-203"/>
      <point x="324" y="-203" type="curve" smooth="yes"/>
      <point x="456" y="-203"/>
      <point x="555" y="-132"/>
      <point x="577" y="-23" type="curve" smooth="yes"/>
      <point x="652" y="349" type="line" smooth="yes"/>
      <point x="677" y="475"/>
      <point x="612" y="557"/>
    </contour>
  </outline>
</glyph>
<glyph name="OE" format="2">
  <advance width="1121"/>
  <unicode hex="0152"/>
  <anchor x="733" y="0" name="bottom"/>
  <anchor x="1027" y="10" name="ogonek"/>
  <anchor x="643" y="700" name="top"/>
  <outline>
    <contour>
      <point x="450" y="700" type="line" smooth="yes"/>
      <point x="213" y="700"/>
      <point x="28" y="538"/>
      <point x="28" y="327" type="curve" smooth="yes"/>
      <point x="28" y="132"/>
      <point x="179" y="0"/>
      <point x="379" y="0" type="curve" smooth="yes"/>
      <point x="501" y="0" type="line"/>
      <point x="541" y="183" type="line"/>
      <point x="398" y="183" type="line" smooth="yes"/>
      <point x="319" y="183"/>
      <point x="267" y="248"/>
      <point x="267" y="335" type="curve" smooth="yes"/>
      <point x="267" y="435"/>
      <point x="338" y="513"/>
      <point x="431" y="513" type="curve" smooth="yes"/>
      <point x="585" y="513" type="line"/>
      <point x="623" y="700" type="line"/>
    </contour>
    <contour>
      <point x="701" y="263" type="line"/>
      <point x="1044" y="263" type="line"/>
      <point x="1079" y="438" type="line"/>
      <point x="736" y="438" type="line"/>
    </contour>
    <contour>
      <point x="789" y="623" type="line"/>
      <point x="668" y="524" type="line"/>
      <point x="1129" y="524" type="line"/>
      <point x="1165" y="700" type="line"/>
      <point x="573" y="700" type="line"/>
      <point x="432" y="0" type="line"/>
      <point x="1033" y="0" type="line"/>
      <point x="1069" y="176" type="line"/>
      <point x="599" y="176" type="line"/>
      <point x="680" y="77" type="line"/>
    </contour>
  </outline>
</glyph>
<glyph name="oe" format="2">
  <advance width="1998"/>
  <unicode hex="0153"/>
  <outline>
    <contour>
      <point x="704" y="1110" type="curve" smooth="yes"/>
      <point x="300" y="1110"/>
      <point x="26" y="864"/>
      <point x="26" y="492" type="curve" smooth="yes"/>
      <point x="26" y="184"/>
      <point x="242" y="-16"/>
      <point x="592" y="-16" type="curve" smooth="yes"/>
      <point x="966" y="-16"/>
      <point x="1170" y="242"/>
      <point x="1170" y="620" type="curve" smooth="yes"/>
      <point x="1170" y="918"/>
      <point x="1012" y="1110"/>
    </contour>
    <contour>
      <point x="668" y="754" type="curve" smooth="yes"/>
      <point x="758" y="754"/>
      <point x="812" y="682"/>
      <point x="812" y="570" type="curve" smooth="yes"/>
      <point x="812" y="428"/>
      <point x="736" y="330"/>
      <point x="626" y="330" type="curve" smooth="yes"/>
      <point x="536" y="330"/>
      <point x="482" y="402"/>
      <point x="482" y="514" type="curve" smooth="yes"/>
      <point x="482" y="656"/>
      <point x="558" y="754"/>
    </contour>
    <contour>
      <point x="1160" y="446" type="line"/>
      <point x="1956" y="446" type="line"/>
      <point x="2020" y="850"/>
      <point x="1820" y="1110"/>
      <point x="1436" y="1110" type="curve" smooth="yes"/>
      <point x="1082" y="1110"/>
      <point x="886" y="850"/>
      <point x="886" y="464" type="curve" smooth="yes"/>
      <point x="886" y="174"/>
      <point x="1028" y="-16"/>
      <point x="1336" y="-16" type="curve" smooth="yes"/>
      <point x="1550" y="-16"/>
      <point x="1724" y="56"/>
      <point x="1856" y="184" type="curve"/>
      <point x="1644" y="414" type="line"/>
      <point x="1568" y="350"/>
      <point x="1486" y="316"/>
      <point x="1408" y="316" type="curve" smooth="yes"/>
      <point x="1296" y="316"/>
      <point x="1228" y="392"/>
      <point x="1228" y="532" type="curve" smooth="yes"/>
      <point x="1228" y="682"/>
      <point x="1294" y="810"/>
      <point x="1410" y="810" type="curve" smooth="yes"/>
      <point x="1490" y="810"/>
      <point x="1540" y="744"/>
      <point x="1526" y="654" type="curve"/>
      <point x="1180" y="654" type="line"/>
    </contour>
  </outline>
</glyph>
<glyph name="Scedilla" format="2">
  <advance width="1326"/>
  <unicode hex="015E"/>
  <anchor x="534" y="-530" name="bottom"/>
  <anchor x="868" y="1384" name="top"/>
  <outline>
    <contour>
      <point x="1430" y="1198" type="line"/>
      <point x="1249" y="1346"/>
      <point x="980" y="1430"/>
      <point x="749" y="1430" type="curve" smooth="yes"/>
      <point x="452" y="1430"/>
      <point x="151" y="1272"/>
      <point x="151" y="940" type="curve" smooth="yes"/>
      <point x="151" y="545"/>
      <point x="776" y="565"/>
      <point x="776" y="404" type="curve" smooth="yes"/>
      <point x="776" y="345"/>
      <point x="723" y="324"/>
      <point x="673" y="324" type="curve" smooth="yes"/>
      <point x="509" y="324"/>
      <point x="262" y="477"/>
      <point x="156" y="597" type="curve"/>
      <point x="-86" y="268" type="line"/>
      <point x="42" y="137"/>
      <point x="227" y="45"/>
      <point x="415" y="0" type="curve"/>
      <point x="340" y="-146" type="line"/>
      <point x="380" y="-146" type="line" smooth="yes"/>
      <point x="436" y="-146"/>
      <point x="488" y="-162"/>
      <point x="488" y="-192" type="curve" smooth="yes"/>
      <point x="488" y="-222"/>
      <point x="446" y="-242"/>
      <point x="394" y="-242" type="curve" smooth="yes"/>
      <point x="362" y="-242"/>
      <point x="330" y="-236"/>
      <point x="300" y="-224" type="curve"/>
      <point x="202" y="-410" type="line"/>
      <point x="272" y="-436"/>
      <point x="354" y="-452"/>
      <point x="436" y="-452" type="curve" smooth="yes"/>
      <point x="596" y="-452"/>
      <point x="756" y="-386"/>
      <point x="756" y="-222" type="curve" smooth="yes"/>
      <point x="756" y="-158"/>
      <point x="716" y="-100"/>
      <point x="614" y="-72" type="curve"/>
      <point x="637" y="-31" type="line"/>
      <point x="945" y="-42"/>
      <point x="1263" y="107"/>
      <point x="1263" y="459" type="curve" smooth="yes"/>
      <point x="1263" y="864"/>
      <point x="642" y="851"/>
      <point x="642" y="1009" type="curve" smooth="yes"/>
      <point x="642" y="1057"/>
      <point x="680" y="1076"/>
      <point x="722" y="1076" type="curve" smooth="yes"/>
      <point x="852" y="1076"/>
      <point x="1088" y="942"/>
      <point x="1191" y="863" type="curve"/>
    </contour>
  </outline>
</glyph>
<glyph name="scedilla" format="2">
  <advance width="544"/>
  <unicode hex="015F"/>
  <anchor x="137" y="-265" name="bottom"/>
  <anchor x="317" y="547" name="top"/>
  <outline>
    <contour>
      <point x="112" y="-91" type="line"/>
      <point x="132" y="-91" type="line" smooth="yes"/>
      <point x="160" y="-91"/>
      <point x="186" y="-99"/>
      <point x="186" y="-114" type="curve" smooth="yes"/>
      <point x="186" y="-129"/>
      <point x="165" y="-139"/>
      <point x="139" y="-139" type="curve" smooth="yes"/>
      <point x="123" y="-139"/>
      <point x="107" y="-136"/>
      <point x="92" y="-130" type="curve"/>
      <point x="43" y="-223" type="line"/>
      <point x="78" y="-236"/>
      <point x="119" y="-244"/>
      <point x="160" y="-244" type="curve" smooth="yes"/>
      <point x="240" y="-244"/>
      <point x="320" y="-211"/>
      <point x="320" y="-129" type="curve" smooth="yes"/>
      <point x="320" y="-97"/>
      <point x="300" y="-68"/>
      <point x="249" y="-54" type="curve"/>
      <point x="275" y="-9" type="line"/>
      <point x="411" y="-7"/>
      <point x="504" y="67"/>
      <point x="504" y="176" type="curve" smooth="yes"/>
      <point x="504" y="331"/>
      <point x="263" y="339"/>
      <point x="263" y="384" type="curve" smooth="yes"/>
      <point x="263" y="397"/>
      <point x="276" y="406"/>
      <point x="295" y="406" type="curve" smooth="yes"/>
      <point x="336" y="406"/>
      <point x="402" y="378"/>
      <point x="472" y="331" type="curve"/>
      <point x="568" y="457" type="line"/>
      <point x="481" y="520"/>
      <point x="380" y="555"/>
      <point x="284" y="555" type="curve" smooth="yes"/>
      <point x="147" y="555"/>
      <point x="53" y="478"/>
      <point x="53" y="366" type="curve" smooth="yes"/>
      <point x="53" y="213"/>
      <point x="290" y="202"/>
      <point x="290" y="164" type="curve" smooth="yes"/>
      <point x="290" y="149"/>
      <point x="279" y="142"/>
      <point x="253" y="142" type="curve" smooth="yes"/>
      <point x="198" y="142"/>
      <point x="129" y="173"/>
      <point x="61" y="226" type="curve"/>
      <point x="-29" y="98" type="line"/>
      <point x="24" y="53"/>
      <point x="90" y="21"/>
      <point x="161" y="4" type="curve"/>
    </contour>
  </outline>
</glyph>
<glyph name="Tcedilla" format="2">
  <advance width="1280"/>
  <unicode hex="0162"/>
  <anchor x="651" y="600" name="center"/>
  <anchor x="843" y="1400" name="top"/>
  <anchor x="529" y="-448" name="bottom"/>
  <outline>
    <contour>
      <point x="1367" y="1034" type="line"/>
      <point x="1441" y="1400" type="line"/>
      <point x="181" y="1400" type="line"/>
      <point x="107" y="1034" type="line"/>
      <point x="505" y="1034" type="line"/>
      <point x="297" y="0" type="line"/>
      <point x="407" y="0" type="line"/>
      <point x="332" y="-146" type="line"/>
      <point x="372" y="-146" type="line" smooth="yes"/>
      <point x="428" y="-146"/>
      <point x="480" y="-162"/>
      <point x="480" y="-192" type="curve" smooth="yes"/>
      <point x="480" y="-222"/>
      <point x="438" y="-242"/>
      <point x="386" y="-242" type="curve" smooth="yes"/>
      <point x="354" y="-242"/>
      <point x="322" y="-236"/>
      <point x="292" y="-224" type="curve"/>
      <point x="194" y="-410" type="line"/>
      <point x="264" y="-436"/>
      <point x="346" y="-452"/>
      <point x="428" y="-452" type="curve" smooth="yes"/>
      <point x="588" y="-452"/>
      <point x="748" y="-386"/>
      <point x="748" y="-222" type="curve" smooth="yes"/>
      <point x="748" y="-158"/>
      <point x="708" y="-100"/>
      <point x="606" y="-72" type="curve"/>
      <point x="647" y="0" type="line"/>
      <point x="759" y="0" type="line"/>
      <point x="967" y="1034" type="line"/>
    </contour>
  </outline>
</glyph>
<glyph name="tcedilla" format="2">
  <advance width="455"/>
  <unicode hex="0163"/>
  <anchor x="133" y="-265" name="bottom"/>
  <anchor x="198" y="299" name="center"/>
  <anchor x="313" y="547" name="top"/>
  <anchor x="445" y="742" name="topright"/>
  <outline>
    <contour>
      <point x="157" y="670" type="line"/>
      <point x="132" y="547" type="line"/>
      <point x="60" y="547" type="line"/>
      <point x="32" y="405" type="line"/>
      <point x="104" y="405" type="line"/>
      <point x="60" y="185" type="line" smooth="yes"/>
      <point x="43" y="98"/>
      <point x="80" y="30"/>
      <point x="156" y="3" type="curve"/>
      <point x="108" y="-91" type="line"/>
      <point x="128" y="-91" type="line" smooth="yes"/>
      <point x="156" y="-91"/>
      <point x="182" y="-99"/>
      <point x="182" y="-114" type="curve" smooth="yes"/>
      <point x="182" y="-129"/>
      <point x="161" y="-139"/>
      <point x="135" y="-139" type="curve" smooth="yes"/>
      <point x="119" y="-139"/>
      <point x="103" y="-136"/>
      <point x="88" y="-130" type="curve"/>
      <point x="39" y="-223" type="line"/>
      <point x="74" y="-236"/>
      <point x="115" y="-244"/>
      <point x="156" y="-244" type="curve" smooth="yes"/>
      <point x="236" y="-244"/>
      <point x="316" y="-211"/>
      <point x="316" y="-129" type="curve" smooth="yes"/>
      <point x="316" y="-97"/>
      <point x="296" y="-68"/>
      <point x="245" y="-54" type="curve"/>
      <point x="271" y="-9" type="line"/>
      <point x="315" y="-6"/>
      <point x="363" y="3"/>
      <point x="395" y="20" type="curve"/>
      <point x="375" y="181" type="line"/>
      <point x="355" y="173"/>
      <point x="330" y="164"/>
      <point x="311" y="164" type="curve"/>
      <point x="290" y="163"/>
      <point x="281" y="172"/>
      <point x="287" y="201" type="curve" smooth="yes"/>
      <point x="328" y="405" type="line"/>
      <point x="459" y="405" type="line"/>
      <point x="487" y="547" type="line"/>
      <point x="356" y="547" type="line"/>
      <point x="381" y="670" type="line"/>
    </contour>
  </outline>
</glyph>
<glyph name="tbar" format="2">
  <advance width="448"/>
  <unicode hex="0167"/>
  <anchor x="212" y="0" name="bottom"/>
  <outline>
    <contour>
      <point x="157" y="670" type="line"/>
      <point x="58" y="176" type="line"/>
      <point x="35" y="62"/>
      <point x="101" y="-11"/>
      <point x="227" y="-10" type="curve"/>
      <point x="285" y="-10"/>
      <point x="349" y="3"/>
      <point x="389" y="24" type="curve"/>
      <point x="382" y="178" type="line"/>
      <point x="360" y="170"/>
      <point x="336" y="164"/>
      <point x="323" y="164" type="curve"/>
      <point x="296" y="163"/>
      <point x="283" y="181"/>
      <point x="289" y="210" type="curve"/>
      <point x="381" y="670" type="line"/>
    </contour>
    <contour>
      <point x="58" y="547" type="line"/>
      <point x="35" y="430" type="line"/>
      <point x="462" y="430" type="line"/>
      <point x="485" y="547" type="line"/>
    </contour>
    <contour>
      <point x="17" y="349" type="line"/>
      <point x="-6" y="232" type="line"/>
      <point x="421" y="232" type="line"/>
      <point x="444" y="349" type="line"/>
    </contour>
  </outline>
</glyph>
<glyph name="Schwa" format="2">
  <advance width="777"/>
  <unicode hex="018F"/>
  <outline>
    <contour>
      <point x="438" y="715" type="curve" smooth="yes"/>
      <point x="643" y="715"/>
      <point x="782" y="579"/>
      <point x="782" y="387" type="curve" smooth="yes"/>
      <point x="782" y="160"/>
      <point x="602" y="-16"/>
      <point x="374" y="-16" type="curve" smooth="yes"/>
      <point x="164" y="-16"/>
      <point x="34" y="125"/>
      <point x="34" y="345" type="curve" smooth="yes"/>
      <point x="34" y="362"/>
      <point x="35" y="379"/>
      <point x="36" y="397" type="curve"/>
      <point x="602" y="397" type="line"/>
      <point x="584" y="271" type="line"/>
      <point x="277" y="271" type="line"/>
      <point x="294" y="214"/>
      <point x="334" y="177"/>
      <point x="393" y="177" type="curve" smooth="yes"/>
      <point x="490" y="177"/>
      <point x="544" y="266"/>
      <point x="544" y="370" type="curve" smooth="yes"/>
      <point x="544" y="456"/>
      <point x="502" y="522"/>
      <point x="425" y="522" type="curve" smooth="yes"/>
      <point x="370" y="522"/>
      <point x="318" y="489"/>
      <point x="287" y="437" type="curve"/>
      <point x="144" y="602" type="line"/>
      <point x="218" y="673"/>
      <point x="321" y="715"/>
    </contour>
  </outline>
</glyph>
<glyph name="florin" format="2">
  <advance width="469"/>
  <unicode hex="0192"/>
  <outline>
    <contour>
      <point x="411" y="752" type="curve" smooth="yes"/>
      <point x="283" y="753"/>
      <point x="186" y="683"/>
      <point x="164" y="569" type="curve" smooth="yes"/>
      <point x="56" y="19" type="line" smooth="yes"/>
      <point x="51" y="-10"/>
      <point x="30" y="-31"/>
      <point x="1" y="-30" type="curve"/>
      <point x="-12" y="-30"/>
      <point x="-33" y="-25"/>
      <point x="-47" y="-13" type="curve"/>
      <point x="-108" y="-163" type="line"/>
      <point x="-78" y="-187"/>
      <point x="-24" y="-204"/>
      <point x="27" y="-204" type="curve" smooth="yes"/>
      <point x="156" y="-205"/>
      <point x="253" y="-135"/>
      <point x="275" y="-21" type="curve" smooth="yes"/>
      <point x="381" y="529" type="line" smooth="yes"/>
      <point x="386" y="558"/>
      <point x="411" y="579"/>
      <point x="446" y="578" type="curve"/>
      <point x="459" y="578"/>
      <point x="480" y="573"/>
      <point x="495" y="561" type="curve"/>
      <point x="577" y="711" type="line"/>
      <point x="537" y="735"/>
      <point x="474" y="752"/>
    </contour>
    <contour>
      <point x="69" y="467" type="line"/>
      <point x="42" y="325" type="line"/>
      <point x="447" y="325" type="line"/>
      <point x="474" y="467" type="line"/>
    </contour>
  </outline>
</glyph>
<glyph name="Aringacute" format="2">
  <advance width="1596"/>
  <unicode hex="01FA"/>
  <anchor x="662" y="0" name="bottom"/>
  <anchor x="1338" y="0" name="ogonek"/>
  <anchor x="1191" y="2070" name="top"/>
  <outline>
    <contour>
      <point x="692" y="1400" type="line"/>
      <point x="-130" y="0" type="line"/>
      <point x="342" y="0" type="line"/>
      <point x="936" y="1116" type="line"/>
      <point x="804" y="1138" type="line"/>
      <point x="1008" y="0" type="line"/>
      <point x="1506" y="0" type="line"/>
      <point x="1168" y="1400" type="line"/>
    </contour>
    <contour>
      <point x="350" y="530" type="line"/>
      <point x="296" y="198" type="line"/>
      <point x="1110" y="198" type="line"/>
      <point x="1164" y="530" type="line"/>
    </contour>
    <contour>
      <point x="971" y="1746" type="curve" smooth="yes"/>
      <point x="819" y="1746"/>
      <point x="684" y="1617"/>
      <point x="684" y="1461" type="curve" smooth="yes"/>
      <point x="684" y="1333"/>
      <point x="778" y="1236"/>
      <point x="910" y="1236" type="curve" smooth="yes"/>
      <point x="1062" y="1236"/>
      <point x="1198" y="1366"/>
      <point x="1198" y="1523" type="curve" smooth="yes"/>
      <point x="1198" y="1650"/>
      <point x="1103" y="1746"/>
    </contour>
    <contour>
      <point x="951" y="1572" type="curve" smooth="yes"/>
      <point x="992" y="1572"/>
      <point x="1021" y="1543"/>
      <point x="1021" y="1504" type="curve" smooth="yes"/>
      <point x="1021" y="1453"/>
      <point x="980" y="1411"/>
      <point x="930" y="1411" type="curve" smooth="yes"/>
      <point x="889" y="1411"/>
      <point x="860" y="1440"/>
      <point x="860" y="1479" type="curve" smooth="yes"/>
      <point x="860" y="1531"/>
      <point x="901" y="1572"/>
    </contour>
    <contour>
      <point x="829" y="1613" type="line"/>
      <point x="1079" y="1549" type="line"/>
      <point x="1436" y="1740" type="line"/>
      <point x="1151" y="1907" type="line"/>
    </contour>
  </outline>
</glyph>
<glyph name="dotlessj" format="2">
  <advance width="680"/>
  <unicode hex="0237"/>
  <anchor x="432" y="1094" name="top"/>
  <outline>
    <contour>
      <point x="-294" y="-356" type="line"/>
      <point x="-222" y="-386"/>
      <point x="-138" y="-406"/>
      <point x="-34" y="-406" type="curve" smooth="yes"/>
      <point x="218" y="-408"/>
      <point x="400" y="-282"/>
      <point x="446" y="-52" type="curve" smooth="yes"/>
      <point x="674" y="1094" type="line"/>
      <point x="224" y="1094" type="line"/>
      <point x="16" y="52" type="line" smooth="yes"/>
      <point x="4" y="-10"/>
      <point x="-52" y="-60"/>
      <point x="-120" y="-58" type="curve"/>
      <point x="-134" y="-58"/>
      <point x="-150" y="-58"/>
      <point x="-170" y="-54" type="curve"/>
    </contour>
  </outline>
</glyph>
<glyph name="jdotless" format="2">
  <advance width="324"/>
  <unicode hex="0237"/>
  <anchor x="208" y="547" name="top"/>
  <outline>
    <contour>
      <point x="-155" y="-178" type="line"/>
      <point x="-119" y="-193"/>
      <point x="-77" y="-203"/>
      <point x="-25" y="-203" type="curve"/>
      <point x="101" y="-204"/>
      <point x="192" y="-141"/>
      <point x="215" y="-26" type="curve"/>
      <point x="329" y="547" type="line"/>
      <point x="104" y="547" type="line"/>
      <point x="0" y="26" type="line"/>
      <point x="-6" y="-5"/>
      <point x="-34" y="-30"/>
      <point x="-68" y="-29" type="curve"/>
      <point x="-75" y="-29"/>
      <point x="-83" y="-29"/>
      <point x="-93" y="-27" type="curve"/>
    </contour>
  </outline>
</glyph>
<glyph name="schwa" format="2">
  <advance width="611"/>
  <unicode hex="0259"/>
  <outline>
    <contour>
      <point x="303" y="554" type="curve" smooth="yes"/>
      <point x="212" y="554"/>
      <point x="133" y="523"/>
      <point x="69" y="463" type="curve"/>
      <point x="185" y="349" type="line"/>
      <point x="220" y="376"/>
      <point x="258" y="390"/>
      <point x="295" y="390" type="curve" smooth="yes"/>
      <point x="352" y="390"/>
      <point x="382" y="360"/>
      <point x="382" y="304" type="curve" smooth="yes"/>
      <point x="382" y="220"/>
      <point x="333" y="145"/>
      <point x="277" y="145" type="curve" smooth="yes"/>
      <point x="237" y="145"/>
      <point x="213" y="181"/>
      <point x="228" y="220" type="curve"/>
      <point x="435" y="220" type="line"/>
      <point x="435" y="324" type="line"/>
      <point x="19" y="324" type="line"/>
      <point x="-24" y="131"/>
      <point x="90" y="-7"/>
      <point x="293" y="-7" type="curve" smooth="yes"/>
      <point x="473" y="-7"/>
      <point x="602" y="125"/>
      <point x="602" y="308" type="curve" smooth="yes"/>
      <point x="602" y="458"/>
      <point x="486" y="554"/>
    </contour>
  </outline>
</glyph>
<glyph name="commaturnedmod" format="2">
  <advance width="306"/>
  <unicode hex="02BB"/>
  <anchor x="305" y="700" name="_topleft"/>
  <outline>
    <contour>
      <point x="305" y="700" type="line"/>
      <point x="177" y="700" type="line"/>
      <point x="109" y="506" type="line"/>
      <point x="260" y="470" type="line"/>
    </contour>
  </outline>
</glyph>
<glyph name="uni02BB" format="2">
  <advance width="516"/>
  <unicode hex="02BB"/>
  <outline>
    <contour>
      <point x="562" y="1400" type="line"/>
      <point x="306" y="1400" type="line"/>
      <point x="170" y="1012" type="line"/>
      <point x="472" y="940" type="line"/>
    </contour>
  </outline>
</glyph>
<glyph name="apostrophemod" format="2">
  <advance width="504"/>
  <unicode hex="02BC"/>
  <outline>
    <contour>
      <point x="175" y="873" type="line"/>
      <point x="405" y="873" type="line"/>
      <point x="566" y="1400" type="line"/>
      <point x="277" y="1400" type="line"/>
    </contour>
  </outline>
</glyph>
<glyph name="uni02BC" format="2">
  <advance width="504"/>
  <unicode hex="02BC"/>
  <outline>
    <contour>
      <point x="175" y="873" type="line"/>
      <point x="405" y="873" type="line"/>
      <point x="566" y="1400" type="line"/>
      <point x="277" y="1400" type="line"/>
    </contour>
  </outline>
</glyph>
<glyph name="ringhalfright" format="2">
  <advance width="221"/>
  <unicode hex="02BE"/>
  <outline>
    <contour>
      <point x="128" y="579" type="line"/>
      <point x="197" y="579"/>
      <point x="259" y="634"/>
      <point x="267" y="703" type="curve" smooth="yes"/>
      <point x="275" y="772"/>
      <point x="227" y="827"/>
      <point x="158" y="827" type="curve"/>
      <point x="148" y="742" type="line"/>
      <point x="170" y="742"/>
      <point x="185" y="725"/>
      <point x="182" y="703" type="curve" smooth="yes"/>
      <point x="179" y="681"/>
      <point x="160" y="664"/>
      <point x="138" y="664" type="curve"/>
    </contour>
  </outline>
</glyph>
<glyph name="uni02BE" format="2">
  <advance width="426"/>
  <unicode hex="02BE"/>
  <outline>
    <contour>
      <point x="248" y="1158" type="line"/>
      <point x="386" y="1158"/>
      <point x="510" y="1268"/>
      <point x="526" y="1406" type="curve" smooth="yes"/>
      <point x="542" y="1544"/>
      <point x="446" y="1654"/>
      <point x="308" y="1654" type="curve"/>
      <point x="288" y="1484" type="line"/>
      <point x="332" y="1484"/>
      <point x="362" y="1450"/>
      <point x="356" y="1406" type="curve" smooth="yes"/>
      <point x="350" y="1362"/>
      <point x="312" y="1328"/>
      <point x="268" y="1328" type="curve"/>
    </contour>
  </outline>
</glyph>
<glyph name="ringhalfleftmod" format="2">
  <advance width="246"/>
  <unicode hex="02BF"/>
  <outline>
    <contour>
      <point x="227" y="579" type="line"/>
      <point x="167" y="579"/>
      <point x="125" y="625"/>
      <point x="125" y="683" type="curve" smooth="yes"/>
      <point x="125" y="761"/>
      <point x="198" y="827"/>
      <point x="275" y="827" type="curve"/>
      <point x="259" y="742" type="line"/>
      <point x="234" y="742"/>
      <point x="212" y="722"/>
      <point x="212" y="697" type="curve" smooth="yes"/>
      <point x="212" y="678"/>
      <point x="225" y="664"/>
      <point x="244" y="664" type="curve"/>
    </contour>
  </outline>
</glyph>
<glyph name="uni02BF" format="2">
  <advance width="424"/>
  <unicode hex="02BF"/>
  <outline>
    <contour>
      <point x="420" y="1158" type="line"/>
      <point x="300" y="1158"/>
      <point x="216" y="1250"/>
      <point x="216" y="1366" type="curve" smooth="yes"/>
      <point x="216" y="1522"/>
      <point x="362" y="1654"/>
      <point x="516" y="1654" type="curve"/>
      <point x="484" y="1484" type="line"/>
      <point x="434" y="1484"/>
      <point x="390" y="1444"/>
      <point x="390" y="1394" type="curve" smooth="yes"/>
      <point x="390" y="1356"/>
      <point x="416" y="1328"/>
      <point x="454" y="1328" type="curve"/>
    </contour>
  </outline>
</glyph>
<glyph name="uni02C8" format="2">
  <advance width="368"/>
  <unicode hex="02C8"/>
  <outline>
    <contour>
      <point x="418" y="992" type="line"/>
      <point x="498" y="1400" type="line"/>
      <point x="210" y="1400" type="line"/>
      <point x="130" y="992" type="line"/>
    </contour>
  </outline>
</glyph>
<glyph name="verticallinemod" format="2">
  <advance width="310"/>
  <unicode hex="02C8"/>
  <outline>
    <contour>
      <point x="272" y="496" type="line"/>
      <point x="312" y="700" type="line"/>
      <point x="168" y="700" type="line"/>
      <point x="128" y="496" type="line"/>
    </contour>
  </outline>
</glyph>
<glyph name="macronmod" format="2">
  <advance width="680"/>
  <unicode hex="02C9"/>
  <anchor x="537" y="1540" name="top"/>
  <outline>
    <contour>
      <point x="185" y="1268" type="line"/>
      <point x="785" y="1268" type="line"/>
      <point x="835" y="1524" type="line"/>
      <point x="235" y="1524" type="line"/>
    </contour>
  </outline>
</glyph>
<glyph name="secondtonechinese" format="2">
  <advance width="338"/>
  <unicode hex="02CA"/>
  <anchor x="185" y="547" name="_top"/>
  <anchor x="270" y="780" name="top"/>
  <outline>
    <contour>
      <point x="83" y="601" type="line"/>
      <point x="223" y="591" type="line"/>
      <point x="410" y="720" type="line"/>
      <point x="253" y="780" type="line"/>
    </contour>
  </outline>
</glyph>
<glyph name="uni02CA" format="2">
  <advance width="700"/>
  <unicode hex="02CA"/>
  <anchor x="552" y="1560" name="top"/>
  <outline>
    <contour>
      <point x="178" y="1202" type="line"/>
      <point x="458" y="1182" type="line"/>
      <point x="832" y="1440" type="line"/>
      <point x="518" y="1560" type="line"/>
    </contour>
  </outline>
</glyph>
<glyph name="fourthtonechinese" format="2">
  <advance width="302"/>
  <unicode hex="02CB"/>
  <anchor x="245" y="547" name="_top"/>
  <anchor x="299" y="770" name="top"/>
  <outline>
    <contour>
      <point x="102" y="720" type="line"/>
      <point x="215" y="591" type="line"/>
      <point x="360" y="601" type="line"/>
      <point x="284" y="780" type="line"/>
    </contour>
  </outline>
</glyph>
<glyph name="uni02CB" format="2">
  <advance width="700"/>
  <unicode hex="02CB"/>
  <anchor x="646" y="1540" name="top"/>
  <outline>
    <contour>
      <point x="252" y="1440" type="line"/>
      <point x="478" y="1182" type="line"/>
      <point x="768" y="1202" type="line"/>
      <point x="616" y="1560" type="line"/>
    </contour>
  </outline>
</glyph>
<glyph name="uni02CC" format="2">
  <advance width="376"/>
  <unicode hex="02CC"/>
  <outline>
    <contour>
      <point x="134" y="-468" type="line"/>
      <point x="214" y="-60" type="line"/>
      <point x="-82" y="-60" type="line"/>
      <point x="-162" y="-468" type="line"/>
    </contour>
  </outline>
</glyph>
<glyph name="verticallinelowmod" format="2">
  <advance width="314"/>
  <unicode hex="02CC"/>
  <outline>
    <contour>
      <point x="130" y="-234" type="line"/>
      <point x="170" y="-30" type="line"/>
      <point x="22" y="-30" type="line"/>
      <point x="-18" y="-234" type="line"/>
    </contour>
  </outline>
</glyph>
<glyph name="gravecomb" format="2">
  <advance width="542"/>
  <unicode hex="0300"/>
  <anchor x="419" y="770" name="top"/>
  <outline>
    <contour>
      <point x="222" y="720" type="line"/>
      <point x="360" y="591" type="line"/>
      <point x="503" y="601" type="line"/>
      <point x="392" y="780" type="line"/>
    </contour>
  </outline>
</glyph>
<glyph name="acutecomb" format="2">
  <advance width="578"/>
  <unicode hex="0301"/>
  <anchor x="390" y="780" name="top"/>
  <outline>
    <contour>
      <point x="203" y="601" type="line"/>
      <point x="345" y="591" type="line"/>
      <point x="507" y="720" type="line"/>
      <point x="338" y="780" type="line"/>
    </contour>
  </outline>
</glyph>
<glyph name="circumflexcomb" format="2">
  <advance width="439"/>
  <unicode hex="0302"/>
  <anchor x="323" y="745" name="top"/>
  <outline>
    <contour>
      <point x="91" y="607" type="line"/>
      <point x="231" y="607" type="line"/>
      <point x="377" y="739" type="line"/>
      <point x="267" y="739" type="line"/>
      <point x="361" y="607" type="line"/>
      <point x="501" y="607" type="line"/>
      <point x="421" y="769" type="line"/>
      <point x="233" y="769" type="line"/>
    </contour>
  </outline>
</glyph>
<glyph name="uni0302" format="2">
  <advance width="900"/>
  <unicode hex="0302"/>
  <anchor x="590" y="1094" name="_top"/>
  <anchor x="668" y="1490" name="top"/>
  <outline>
    <contour>
      <point x="193" y="1214" type="line"/>
      <point x="473" y="1214" type="line"/>
      <point x="765" y="1478" type="line"/>
      <point x="545" y="1478" type="line"/>
      <point x="733" y="1214" type="line"/>
      <point x="1013" y="1214" type="line"/>
      <point x="853" y="1538" type="line"/>
      <point x="477" y="1538" type="line"/>
    </contour>
  </outline>
</glyph>
<glyph name="tildecomb" format="2">
  <advance width="513"/>
  <unicode hex="0303"/>
  <anchor x="328" y="770" name="top"/>
  <outline>
    <contour>
      <point x="433" y="771" type="line"/>
      <point x="427" y="745"/>
      <point x="416" y="733"/>
      <point x="396" y="733" type="curve" smooth="yes"/>
      <point x="369" y="733"/>
      <point x="334" y="774"/>
      <point x="272" y="774" type="curve" smooth="yes"/>
      <point x="197" y="774"/>
      <point x="153" y="718"/>
      <point x="129" y="596" type="curve"/>
      <point x="246" y="596" type="line"/>
      <point x="252" y="623"/>
      <point x="264" y="635"/>
      <point x="283" y="635" type="curve" smooth="yes"/>
      <point x="311" y="635"/>
      <point x="345" y="594"/>
      <point x="408" y="594" type="curve" smooth="yes"/>
      <point x="482" y="594"/>
      <point x="525" y="647"/>
      <point x="549" y="771" type="curve"/>
    </contour>
  </outline>
</glyph>
<glyph name="macroncomb" format="2">
  <advance width="451"/>
  <unicode hex="0304"/>
  <anchor x="324" y="770" name="top"/>
  <outline>
    <contour>
      <point x="138" y="634" type="line"/>
      <point x="458" y="634" type="line"/>
      <point x="483" y="762" type="line"/>
      <point x="163" y="762" type="line"/>
    </contour>
  </outline>
</glyph>
<glyph name="uni0304" format="2">
  <advance width="680"/>
  <unicode hex="0304"/>
  <anchor x="474" y="1094" name="_top"/>
  <anchor x="670" y="1540" name="top"/>
  <outline>
    <contour>
      <point x="165" y="1268" type="line"/>
      <point x="805" y="1268" type="line"/>
      <point x="855" y="1524" type="line"/>
      <point x="215" y="1524" type="line"/>
    </contour>
  </outline>
</glyph>
<glyph name="brevecomb" format="2">
  <advance width="433"/>
  <unicode hex="0306"/>
  <anchor x="259" y="547" name="_top"/>
  <anchor x="296" y="740" name="top"/>
  <outline>
    <contour>
      <point x="118" y="769" type="line"/>
      <point x="102" y="663"/>
      <point x="161" y="595"/>
      <point x="268" y="595" type="curve" smooth="yes"/>
      <point x="375" y="595"/>
      <point x="460" y="663"/>
      <point x="486" y="769" type="curve"/>
      <point x="351" y="769" type="line"/>
      <point x="342" y="739"/>
      <point x="319" y="719"/>
      <point x="292" y="719" type="curve" smooth="yes"/>
      <point x="265" y="719"/>
      <point x="250" y="739"/>
      <point x="253" y="769" type="curve"/>
    </contour>
  </outline>
</glyph>
<glyph name="dotaccentcomb" format="2">
  <advance width="564"/>
  <unicode hex="0307"/>
  <anchor x="512" y="1402" name="_center"/>
  <anchor x="402" y="1094" name="_top"/>
  <anchor x="540" y="1544" name="top"/>
  <outline>
    <contour>
      <point x="499" y="1634" type="curve" smooth="yes"/>
      <point x="345" y="1634"/>
      <point x="221" y="1518"/>
      <point x="221" y="1364" type="curve" smooth="yes"/>
      <point x="221" y="1254"/>
      <point x="293" y="1178"/>
      <point x="409" y="1178" type="curve" smooth="yes"/>
      <point x="563" y="1178"/>
      <point x="687" y="1294"/>
      <point x="687" y="1448" type="curve" smooth="yes"/>
      <point x="687" y="1558"/>
      <point x="615" y="1634"/>
    </contour>
  </outline>
</glyph>
<glyph name="uni0308" format="2">
  <advance width="980"/>
  <unicode hex="0308"/>
  <anchor x="610" y="1094" name="_top"/>
  <anchor x="696" y="1540" name="top"/>
  <outline>
    <contour>
      <point x="490" y="1564" type="curve" smooth="yes"/>
      <point x="372" y="1564"/>
      <point x="276" y="1472"/>
      <point x="276" y="1354" type="curve" smooth="yes"/>
      <point x="276" y="1270"/>
      <point x="332" y="1210"/>
      <point x="422" y="1210" type="curve" smooth="yes"/>
      <point x="540" y="1210"/>
      <point x="636" y="1302"/>
      <point x="636" y="1418" type="curve" smooth="yes"/>
      <point x="636" y="1504"/>
      <point x="580" y="1564"/>
    </contour>
    <contour>
      <point x="894" y="1564" type="curve" smooth="yes"/>
      <point x="776" y="1564"/>
      <point x="680" y="1472"/>
      <point x="680" y="1354" type="curve" smooth="yes"/>
      <point x="680" y="1270"/>
      <point x="736" y="1210"/>
      <point x="826" y="1210" type="curve" smooth="yes"/>
      <point x="944" y="1210"/>
      <point x="1040" y="1302"/>
      <point x="1040" y="1418" type="curve" smooth="yes"/>
      <point x="1040" y="1504"/>
      <point x="984" y="1564"/>
    </contour>
  </outline>
</glyph>
<glyph name="hookabovecomb" format="2">
  <advance width="670"/>
  <unicode hex="0309"/>
  <anchor x="364" y="1094" name="_top"/>
  <anchor x="492" y="1548" name="top"/>
  <outline>
    <contour>
      <point x="542" y="1674" type="curve" smooth="yes"/>
      <point x="446" y="1674"/>
      <point x="350" y="1644"/>
      <point x="246" y="1586" type="curve"/>
      <point x="322" y="1420" type="line"/>
      <point x="350" y="1440"/>
      <point x="382" y="1450"/>
      <point x="406" y="1450" type="curve" smooth="yes"/>
      <point x="434" y="1450"/>
      <point x="452" y="1434"/>
      <point x="452" y="1406" type="curve" smooth="yes"/>
      <point x="452" y="1362"/>
      <point x="406" y="1304"/>
      <point x="328" y="1248" type="curve"/>
      <point x="498" y="1174" type="line"/>
      <point x="660" y="1280"/>
      <point x="748" y="1388"/>
      <point x="748" y="1506" type="curve" smooth="yes"/>
      <point x="748" y="1602"/>
      <point x="684" y="1674"/>
    </contour>
  </outline>
  <guideline angle="90" x="186" y="0"/>
</glyph>
<glyph name="ringcomb" format="2">
  <advance width="327"/>
  <unicode hex="030A"/>
  <anchor x="267" y="795" name="top"/>
  <outline>
    <contour>
      <point x="264" y="827" type="curve" smooth="yes"/>
      <point x="190" y="827"/>
      <point x="124" y="764"/>
      <point x="124" y="688" type="curve" smooth="yes"/>
      <point x="124" y="626"/>
      <point x="170" y="579"/>
      <point x="234" y="579" type="curve" smooth="yes"/>
      <point x="308" y="579"/>
      <point x="374" y="642"/>
      <point x="374" y="718" type="curve" smooth="yes"/>
      <point x="374" y="780"/>
      <point x="328" y="827"/>
    </contour>
    <contour>
      <point x="254" y="742" type="curve" smooth="yes"/>
      <point x="274" y="742"/>
      <point x="288" y="728"/>
      <point x="288" y="709" type="curve" smooth="yes"/>
      <point x="288" y="684"/>
      <point x="268" y="664"/>
      <point x="244" y="664" type="curve" smooth="yes"/>
      <point x="224" y="664"/>
      <point x="210" y="678"/>
      <point x="210" y="697" type="curve" smooth="yes"/>
      <point x="210" y="722"/>
      <point x="230" y="742"/>
    </contour>
  </outline>
</glyph>
<glyph name="uni030A" format="2">
  <advance width="638"/>
  <unicode hex="030A"/>
  <anchor x="461" y="1094" name="_top"/>
  <anchor x="556" y="1590" name="top"/>
  <outline>
    <contour>
      <point x="520" y="1654" type="curve" smooth="yes"/>
      <point x="372" y="1654"/>
      <point x="240" y="1528"/>
      <point x="240" y="1376" type="curve" smooth="yes"/>
      <point x="240" y="1252"/>
      <point x="332" y="1158"/>
      <point x="460" y="1158" type="curve" smooth="yes"/>
      <point x="608" y="1158"/>
      <point x="740" y="1284"/>
      <point x="740" y="1436" type="curve" smooth="yes"/>
      <point x="740" y="1560"/>
      <point x="648" y="1654"/>
    </contour>
    <contour>
      <point x="500" y="1484" type="curve" smooth="yes"/>
      <point x="540" y="1484"/>
      <point x="568" y="1456"/>
      <point x="568" y="1418" type="curve" smooth="yes"/>
      <point x="568" y="1368"/>
      <point x="528" y="1328"/>
      <point x="480" y="1328" type="curve" smooth="yes"/>
      <point x="440" y="1328"/>
      <point x="412" y="1356"/>
      <point x="412" y="1394" type="curve" smooth="yes"/>
      <point x="412" y="1444"/>
      <point x="452" y="1484"/>
    </contour>
  </outline>
</glyph>
<glyph name="hungarumlautcomb" format="2">
  <advance width="538"/>
  <unicode hex="030B"/>
  <anchor x="339" y="780" name="top"/>
  <outline>
    <contour>
      <point x="105" y="601" type="line"/>
      <point x="259" y="591" type="line"/>
      <point x="350" y="727" type="line"/>
      <point x="199" y="780" type="line"/>
    </contour>
    <contour>
      <point x="326" y="601" type="line"/>
      <point x="480" y="591" type="line"/>
      <point x="571" y="727" type="line"/>
      <point x="420" y="780" type="line"/>
    </contour>
  </outline>
</glyph>
<glyph name="dblgravecomb" format="2">
  <advance width="1140"/>
  <unicode hex="030F"/>
  <anchor x="800" y="1094" name="_top"/>
  <anchor x="770" y="1562" name="top"/>
  <outline>
    <contour>
      <point x="732" y="1454" type="line"/>
      <point x="858" y="1182" type="line"/>
      <point x="1172" y="1202" type="line"/>
      <point x="1076" y="1560" type="line"/>
    </contour>
    <contour>
      <point x="290" y="1454" type="line"/>
      <point x="416" y="1182" type="line"/>
      <point x="730" y="1202" type="line"/>
      <point x="634" y="1560" type="line"/>
    </contour>
  </outline>
</glyph>
<glyph name="horncomb" format="2">
  <advance width="386"/>
  <unicode hex="031B"/>
  <anchor x="161" y="547" name="_topright"/>
  <outline>
    <contour>
      <point x="204" y="648" type="line"/>
      <point x="222" y="619"/>
      <point x="213" y="547"/>
      <point x="151" y="547" type="curve"/>
      <point x="110" y="438" type="line"/>
      <point x="305" y="438"/>
      <point x="404" y="534"/>
      <point x="368" y="705" type="curve"/>
    </contour>
  </outline>
</glyph>
<glyph name="uni031B" format="2">
  <advance width="508"/>
  <unicode hex="031B"/>
  <anchor x="194" y="1094" name="_topright"/>
  <outline>
    <contour>
      <point x="276" y="1296" type="line"/>
      <point x="312" y="1238"/>
      <point x="294" y="1094"/>
      <point x="170" y="1094" type="curve"/>
      <point x="88" y="876" type="line"/>
      <point x="478" y="876"/>
      <point x="676" y="1068"/>
      <point x="604" y="1410" type="curve"/>
    </contour>
  </outline>
</glyph>
<glyph name="commaaccentcomb" format="2">
  <advance width="306"/>
  <unicode hex="0326"/>
  <anchor x="84" y="-224" name="bottom"/>
  <outline>
    <contour>
      <point x="-36" y="-244" type="line"/>
      <point x="84" y="-244" type="line"/>
      <point x="202" y="-61" type="line"/>
      <point x="27" y="-61" type="line"/>
    </contour>
  </outline>
</glyph>
<glyph name="cedillacomb" format="2">
  <advance width="684"/>
  <unicode hex="0327"/>
  <anchor x="219" y="0" name="_bottom"/>
  <anchor x="96" y="-530" name="bottom"/>
  <anchor x="456" y="1094" name="top"/>
  <outline>
    <contour>
      <point x="18" y="-146" type="line"/>
      <point x="28" y="-146"/>
      <point x="44" y="-146"/>
      <point x="58" y="-146" type="curve" smooth="yes"/>
      <point x="114" y="-146"/>
      <point x="166" y="-162"/>
      <point x="166" y="-192" type="curve" smooth="yes"/>
      <point x="166" y="-222"/>
      <point x="124" y="-242"/>
      <point x="72" y="-242" type="curve" smooth="yes"/>
      <point x="40" y="-242"/>
      <point x="8" y="-236"/>
      <point x="-22" y="-224" type="curve"/>
      <point x="-120" y="-410" type="line"/>
      <point x="-50" y="-436"/>
      <point x="32" y="-452"/>
      <point x="114" y="-452" type="curve" smooth="yes"/>
      <point x="274" y="-452"/>
      <point x="434" y="-386"/>
      <point x="434" y="-222" type="curve" smooth="yes"/>
      <point x="434" y="-158"/>
      <point x="394" y="-100"/>
      <point x="292" y="-72" type="curve"/>
      <point x="354" y="36" type="line"/>
      <point x="122" y="56" type="line"/>
    </contour>
  </outline>
</glyph>
<glyph name="ogonekcomb" format="2">
  <advance width="316"/>
  <unicode hex="0328"/>
  <anchor x="205" y="0" name="_ogonek"/>
  <outline>
    <contour>
      <point x="90" y="43" type="line"/>
      <point x="7" y="-19"/>
      <point x="-39" y="-84"/>
      <point x="-39" y="-151" type="curve" smooth="yes"/>
      <point x="-39" y="-203"/>
      <point x="-11" y="-244"/>
      <point x="56" y="-244" type="curve" smooth="yes"/>
      <point x="94" y="-244"/>
      <point x="136" y="-232"/>
      <point x="169" y="-219" type="curve"/>
      <point x="161" y="-108" type="line"/>
      <point x="151" y="-113"/>
      <point x="141" y="-116"/>
      <point x="134" y="-116" type="curve" smooth="yes"/>
      <point x="123" y="-116"/>
      <point x="118" y="-109"/>
      <point x="118" y="-98" type="curve" smooth="yes"/>
      <point x="118" y="-62"/>
      <point x="159" y="-29"/>
      <point x="205" y="0" type="curve"/>
    </contour>
  </outline>
</glyph>
<glyph name="macronbelowcomb" format="2">
  <advance width="450"/>
  <unicode hex="0331"/>
  <anchor x="169" y="0" name="_bottom"/>
  <outline>
    <contour>
      <point x="-20" y="-203" type="line"/>
      <point x="280" y="-203" type="line"/>
      <point x="305" y="-75" type="line"/>
      <point x="5" y="-75" type="line"/>
    </contour>
  </outline>
</glyph>
<glyph name="strokeshortcomb" format="2">
  <advance width="874"/>
  <unicode hex="0335"/>
  <anchor x="516" y="866" name="_center"/>
  <outline>
    <contour>
      <point x="52" y="746" type="line"/>
      <point x="906" y="746" type="line"/>
      <point x="952" y="984" type="line"/>
      <point x="98" y="984" type="line"/>
    </contour>
  </outline>
</glyph>
<glyph name="uni0335" format="2">
  <advance width="874"/>
  <unicode hex="0335"/>
  <anchor x="516" y="866" name="_center"/>
  <outline>
    <contour>
      <point x="52" y="746" type="line"/>
      <point x="906" y="746" type="line"/>
      <point x="952" y="984" type="line"/>
      <point x="98" y="984" type="line"/>
    </contour>
  </outline>
</glyph>
<glyph name="uni0336" format="2">
  <advance width="1200"/>
  <unicode hex="0336"/>
  <anchor x="694" y="866" name="_center"/>
  <outline>
    <contour>
      <point x="187" y="746" type="line"/>
      <point x="1097" y="746" type="line"/>
      <point x="1143" y="984" type="line"/>
      <point x="233" y="984" type="line"/>
    </contour>
  </outline>
</glyph>
<glyph name="slashshortcomb" format="2">
  <advance width="746"/>
  <unicode hex="0337"/>
  <outline>
    <contour>
      <point x="474" y="1140" type="line"/>
      <point x="-60" y="178" type="line"/>
      <point x="316" y="178" type="line"/>
      <point x="850" y="1140" type="line"/>
    </contour>
  </outline>
</glyph>
<glyph name="slashlongcomb" format="2">
  <advance width="746"/>
  <unicode hex="0338"/>
  <outline>
    <contour>
      <point x="188" y="0" type="line"/>
      <point x="1012" y="1484" type="line"/>
      <point x="636" y="1484" type="line"/>
      <point x="-188" y="0" type="line"/>
    </contour>
  </outline>
</glyph>
<glyph name="tonos" format="2">
  <advance width="450"/>
  <unicode hex="0384"/>
  <anchor x="52" y="1520" name="t.uni0308"/>
  <anchor x="-252" y="0" name="b.uni0324_3"/>
  <anchor x="-26" y="0" name="m.uni0328_4"/>
  <outline>
    <contour>
      <point x="82" y="1214" type="line"/>
      <point x="270" y="1534" type="line"/>
      <point x="654" y="1534" type="line"/>
      <point x="336" y="1214" type="line"/>
    </contour>
  </outline>
</glyph>
<glyph name="Alphatonos" format="2">
  <advance width="806"/>
  <unicode hex="0386"/>
  <anchor x="473" y="700" name="t.uni0308"/>
  <anchor x="333" y="-0" name="b.uni0324_3"/>
  <anchor x="755" y="-0" name="m.uni0328_4"/>
  <outline>
    <contour>
      <point x="-89" y="0" type="line"/>
      <point x="357" y="700" type="line"/>
      <point x="589" y="700" type="line"/>
      <point x="755" y="0" type="line"/>
      <point x="511" y="0" type="line"/>
      <point x="402" y="588" type="line"/>
      <point x="494" y="588" type="line"/>
      <point x="151" y="0" type="line"/>
    </contour>
    <contour>
      <point x="117" y="122" type="line"/>
      <point x="211" y="292" type="line"/>
      <point x="533" y="292" type="line"/>
      <point x="559" y="122" type="line"/>
    </contour>
    <contour>
      <point x="64" y="607" type="line"/>
      <point x="158" y="767" type="line"/>
      <point x="350" y="767" type="line"/>
      <point x="191" y="607" type="line"/>
    </contour>
  </outline>
</glyph>
<glyph name="Epsilontonos" format="2">
  <advance width="1838"/>
  <unicode hex="0388"/>
  <anchor x="1316" y="1400" name="t.uni0308"/>
  <anchor x="1036" y="0" name="b.uni0324_3"/>
  <anchor x="1630" y="0" name="m.uni0328_4"/>
  <outline>
    <contour>
      <point x="1074" y="880" type="line"/>
      <point x="1698" y="880" type="line"/>
      <point x="1630" y="540" type="line"/>
      <point x="1006" y="540" type="line"/>
    </contour>
    <contour>
      <point x="1002" y="356" type="line"/>
      <point x="1702" y="356" type="line"/>
      <point x="1630" y="0" type="line"/>
      <point x="466" y="0" type="line"/>
      <point x="746" y="1400" type="line"/>
      <point x="1884" y="1400" type="line"/>
      <point x="1812" y="1044" type="line"/>
      <point x="1138" y="1044" type="line"/>
    </contour>
    <contour>
      <point x="108" y="1214" type="line"/>
      <point x="296" y="1534" type="line"/>
      <point x="680" y="1534" type="line"/>
      <point x="362" y="1214" type="line"/>
    </contour>
  </outline>
</glyph>
<glyph name="Etatonos" format="2">
  <advance width="2064"/>
  <unicode hex="0389"/>
  <anchor x="1400" y="1400" name="t.uni0308"/>
  <anchor x="1350" y="1152" name="t.uni0307_1"/>
  <anchor x="1120" y="0" name="b.uni0324_3"/>
  <outline>
    <contour>
      <point x="1618" y="1400" type="line"/>
      <point x="2090" y="1400" type="line"/>
      <point x="1810" y="0" type="line"/>
      <point x="1338" y="0" type="line"/>
    </contour>
    <contour>
      <point x="902" y="0" type="line"/>
      <point x="430" y="0" type="line"/>
      <point x="710" y="1400" type="line"/>
      <point x="1182" y="1400" type="line"/>
    </contour>
    <contour>
      <point x="1474" y="516" type="line"/>
      <point x="974" y="516" type="line"/>
      <point x="1050" y="904" type="line"/>
      <point x="1550" y="904" type="line"/>
    </contour>
    <contour>
      <point x="86" y="1214" type="line"/>
      <point x="274" y="1534" type="line"/>
      <point x="658" y="1534" type="line"/>
      <point x="340" y="1214" type="line"/>
    </contour>
  </outline>
</glyph>
<glyph name="Iotatonos" format="2">
  <advance width="546"/>
  <unicode hex="038A"/>
  <anchor x="441" y="700" name="t.uni0308"/>
  <anchor x="301" y="-0" name="b.uni0324_3"/>
  <anchor x="419" y="-0" name="m.uni0328_4"/>
  <outline>
    <contour>
      <point x="183" y="0" type="line"/>
      <point x="323" y="700" type="line"/>
      <point x="559" y="700" type="line"/>
      <point x="419" y="0" type="line"/>
    </contour>
    <contour>
      <point x="45" y="607" type="line"/>
      <point x="139" y="767" type="line"/>
      <point x="331" y="767" type="line"/>
      <point x="172" y="607" type="line"/>
    </contour>
  </outline>
</glyph>
<glyph name="Omicrontonos" format="2">
  <advance width="923"/>
  <unicode hex="038C"/>
  <anchor x="569" y="700" name="t.uni0308"/>
  <anchor x="499" y="350" name="t.uni0307_1"/>
  <anchor x="735" y="700" name="t.uni031B_2"/>
  <anchor x="429" y="0" name="b.uni0324_3"/>
  <anchor x="552" y="0" name="m.uni0328_4"/>
  <outline>
    <contour>
      <point x="427" y="-16" type="qcurve" smooth="yes"/>
      <point x="341" y="-16"/>
      <point x="207" y="38"/>
      <point x="120" y="137"/>
      <point x="88" y="271"/>
      <point x="104" y="350" type="qcurve" smooth="yes"/>
      <point x="120" y="430"/>
      <point x="205" y="563"/>
      <point x="331" y="662"/>
      <point x="487" y="716"/>
      <point x="572" y="716" type="qcurve" smooth="yes"/>
      <point x="658" y="716"/>
      <point x="791" y="662"/>
      <point x="877" y="563"/>
      <point x="910" y="430"/>
      <point x="894" y="350" type="qcurve" smooth="yes"/>
      <point x="878" y="271"/>
      <point x="792" y="137"/>
      <point x="667" y="38"/>
      <point x="512" y="-16"/>
    </contour>
    <contour>
      <point x="464" y="175" type="qcurve" smooth="yes"/>
      <point x="497" y="175"/>
      <point x="559" y="199"/>
      <point x="611" y="244"/>
      <point x="648" y="309"/>
      <point x="656" y="350" type="qcurve" smooth="yes"/>
      <point x="664" y="391"/>
      <point x="653" y="456"/>
      <point x="619" y="501"/>
      <point x="567" y="525"/>
      <point x="534" y="525" type="qcurve" smooth="yes"/>
      <point x="501" y="525"/>
      <point x="439" y="501"/>
      <point x="387" y="456"/>
      <point x="350" y="391"/>
      <point x="342" y="350" type="qcurve" smooth="yes"/>
      <point x="334" y="309"/>
      <point x="345" y="244"/>
      <point x="379" y="199"/>
      <point x="431" y="175"/>
    </contour>
    <contour>
      <point x="41" y="607" type="line"/>
      <point x="135" y="767" type="line"/>
      <point x="327" y="767" type="line"/>
      <point x="168" y="607" type="line"/>
    </contour>
  </outline>
</glyph>
<glyph name="Upsilontonos" format="2">
  <advance width="2124"/>
  <unicode hex="038E"/>
  <anchor x="1472" y="1400" name="t.uni0308"/>
  <anchor x="1286" y="532" name="t.uni0307_1"/>
  <anchor x="1192" y="0" name="b.uni0324_3"/>
  <outline>
    <component base="Y" xOffset="490"/>
    <contour>
      <point x="86" y="1214" type="line"/>
      <point x="274" y="1534" type="line"/>
      <point x="658" y="1534" type="line"/>
      <point x="340" y="1214" type="line"/>
    </contour>
  </outline>
</glyph>
<glyph name="Omegatonos" format="2">
  <advance width="928"/>
  <unicode hex="038F"/>
  <outline>
    <contour>
      <point x="-12" y="0" type="line"/>
      <point x="25" y="183" type="line"/>
      <point x="145" y="183" type="line"/>
      <point x="117" y="221"/>
      <point x="94" y="328"/>
      <point x="107" y="394" type="qcurve" smooth="yes"/>
      <point x="121" y="465"/>
      <point x="203" y="583"/>
      <point x="327" y="669"/>
      <point x="479" y="716"/>
      <point x="562" y="716" type="qcurve" smooth="yes"/>
      <point x="645" y="716"/>
      <point x="779" y="669"/>
      <point x="867" y="583"/>
      <point x="903" y="464"/>
      <point x="889" y="393" type="qcurve" smooth="yes"/>
      <point x="875" y="327"/>
      <point x="809" y="221"/>
      <point x="767" y="183" type="qcurve"/>
      <point x="887" y="183" type="line"/>
      <point x="850" y="0" type="line"/>
      <point x="460" y="0" type="line"/>
      <point x="494" y="170" type="line"/>
      <point x="554" y="199"/>
      <point x="636" y="299"/>
      <point x="648" y="361" type="qcurve" smooth="yes"/>
      <point x="656" y="401"/>
      <point x="644" y="462"/>
      <point x="610" y="504"/>
      <point x="557" y="525"/>
      <point x="524" y="525" type="qcurve" smooth="yes"/>
      <point x="491" y="525"/>
      <point x="430" y="504"/>
      <point x="378" y="462"/>
      <point x="342" y="401"/>
      <point x="334" y="361" type="qcurve" smooth="yes"/>
      <point x="322" y="298"/>
      <point x="364" y="197"/>
      <point x="412" y="170" type="qcurve"/>
      <point x="378" y="0" type="line"/>
    </contour>
    <contour>
      <point x="41" y="607" type="line"/>
      <point x="135" y="767" type="line"/>
      <point x="327" y="767" type="line"/>
      <point x="168" y="607" type="line"/>
    </contour>
  </outline>
</glyph>
<glyph name="iotadieresistonos" format="2">
  <advance width="800"/>
  <unicode hex="0390"/>
  <anchor x="642" y="1094" name="t.uni0308"/>
  <anchor x="424" y="0" name="b.uni0324_3"/>
  <anchor x="650" y="0" name="m.uni0328_4"/>
  <outline>
    <component base="iota" xOffset="50"/>
    <contour>
      <point x="454" y="1676" type="line"/>
      <point x="642" y="1996" type="line"/>
      <point x="1026" y="1996" type="line"/>
      <point x="708" y="1676" type="line"/>
    </contour>
    <contour>
      <point x="718" y="1224" type="qcurve" smooth="yes"/>
      <point x="642" y="1224"/>
      <point x="558" y="1320"/>
      <point x="574" y="1400" type="qcurve" smooth="yes"/>
      <point x="590" y="1480"/>
      <point x="714" y="1578"/>
      <point x="790" y="1578" type="qcurve" smooth="yes"/>
      <point x="866" y="1578"/>
      <point x="950" y="1480"/>
      <point x="934" y="1400" type="qcurve"/>
      <point x="918" y="1320"/>
      <point x="794" y="1224"/>
    </contour>
    <contour>
      <point x="274" y="1224" type="qcurve" smooth="yes"/>
      <point x="198" y="1224"/>
      <point x="114" y="1320"/>
      <point x="130" y="1400" type="qcurve" smooth="yes"/>
      <point x="146" y="1480"/>
      <point x="270" y="1578"/>
      <point x="346" y="1578" type="qcurve" smooth="yes"/>
      <point x="422" y="1578"/>
      <point x="506" y="1480"/>
      <point x="490" y="1400" type="qcurve" smooth="yes"/>
      <point x="474" y="1320"/>
      <point x="350" y="1224"/>
    </contour>
  </outline>
</glyph>
<glyph name="Gamma" format="2">
  <advance width="611"/>
  <unicode hex="0393"/>
  <anchor x="388" y="700" name="t.uni0308"/>
  <outline>
    <contour>
      <point x="-8" y="0" type="line"/>
      <point x="132" y="700" type="line"/>
      <point x="665" y="700" type="line"/>
      <point x="628" y="517" type="line"/>
      <point x="276" y="517" type="line"/>
      <point x="337" y="568" type="line"/>
      <point x="224" y="0" type="line"/>
    </contour>
  </outline>
</glyph>
<glyph name="Delta" format="2">
  <advance width="776"/>
  <unicode hex="0394"/>
  <outline>
    <contour>
      <point x="336" y="700" type="line"/>
      <point x="-76" y="0" type="line"/>
      <point x="160" y="0" type="line"/>
      <point x="409" y="469" type="line"/>
      <point x="493" y="0" type="line"/>
      <point x="742" y="0" type="line"/>
      <point x="573" y="700" type="line"/>
    </contour>
    <contour>
      <point x="100" y="166" type="line"/>
      <point x="73" y="0" type="line"/>
      <point x="580" y="0" type="line"/>
      <point x="607" y="166" type="line"/>
    </contour>
  </outline>
</glyph>
<glyph name="Epsilon" format="2">
  <advance width="673"/>
  <unicode hex="0395"/>
  <anchor x="412" y="700" name="t.uni0308"/>
  <anchor x="272" y="-0" name="b.uni0324_3"/>
  <anchor x="569" y="-0" name="m.uni0328_4"/>
  <outline>
    <contour>
      <point x="291" y="440" type="line"/>
      <point x="603" y="440" type="line"/>
      <point x="569" y="270" type="line"/>
      <point x="257" y="270" type="line"/>
    </contour>
    <contour>
      <point x="255" y="178" type="line"/>
      <point x="605" y="178" type="line"/>
      <point x="569" y="0" type="line"/>
      <point x="-13" y="0" type="line"/>
      <point x="127" y="700" type="line"/>
      <point x="696" y="700" type="line"/>
      <point x="660" y="522" type="line"/>
      <point x="323" y="522" type="line"/>
    </contour>
  </outline>
</glyph>
